<?xml version="1.0" encoding="utf-8"?>
<svg version="1.1" id="Layer_1" xmlns="http://www.w3.org/2000/svg" xmlns:xlink="http://www.w3.org/1999/xlink" x="0px" y="0px"
	 viewBox="0 0 44.347 44.347" style="enable-background:new 0 0 44.347 44.347;" xml:space="preserve">
<path class="st0" d="M22.188,0C9.786-0.011,0.025,9.792,0,22.282c-0.025,12.382,9.553,22.035,21.893,22.065
	c12.51,0.031,22.412-9.678,22.454-22.018C44.389,10.056,34.421,0.011,22.188,0z M22.078,40.018
	c-9.787-0.064-17.738-8.033-17.749-17.786c-0.01-9.567,8.063-17.849,17.398-17.849c10.001,0,18.155,8.038,18.143,17.884
	C39.858,32.066,31.823,40.082,22.078,40.018z"/>
<path class="st0" d="M21.196,6.083c-1.654,2.357-2.497,4.469-0.884,6.821c1.166,1.702,2.788,2.478,4.823,2.073
	c2.649-0.527,3.82-2.455,4.303-4.986c2.487,3.938,2.258,7.871-0.584,10.98c-2.739,2.995-6.799,3.766-10.547,2.003
	c-3.228-1.519-5.648-5.485-5.301-8.689C13.461,10.071,16.556,6.805,21.196,6.083z"/>
</svg>
