<svg id="Layer_1" data-name="Layer 1" xmlns="http://www.w3.org/2000/svg" width="382.02" height="440.11" viewBox="0 0 382.02 440.11"><defs><style>.cls-1{fill:#fff;}</style></defs><title>compass</title><path d="M260.43,105.55c0.09,3-.8,5.84-0.91,8.65,0.43,0.88,1.1.66,1.69,0.66,0.91,0,1.64.22,1.73,1.28s0,1.86-1.19,2.17l-1.18.32c-1.12.31-2.32,0.71-2.25,2.1,0.08,1.55,1.47,1.41,2.56,1.55a2.78,2.78,0,0,1,.62.26c-0.2,2-.85,2.78-3.13,2.08-2.54-.78-3.65.59-3,3.21,0.32,1.34.88,2.72,2.19,3.14,2.92,0.95,5.43,3.12,8.8,2.77a29.31,29.31,0,0,1,5.08.43c-1.72,1.45-4,1.25-4.36,3.32a5.36,5.36,0,0,0-3.87.27,1.54,1.54,0,0,0-1.17,1.18c-0.42,3.6-1.38,7.13.15,10.79a13.86,13.86,0,0,1,1,8.39,6.21,6.21,0,0,0,.19,3.33c2.93,7.71,1,16.07,3.33,23.86a2.92,2.92,0,0,1-.08,2.09c-1.51,2.49-.66,4.92-0.09,7.4,2,8.56,3.91,17.13,5,25.85a5,5,0,0,0,.62,1.14c3.87-3.84,9.11-5.48,12.93-9.21a58.32,58.32,0,0,1,13.36-9.66c2.15-1.15,4.33-2.34,5.69-4.53,0.63-1,1.75-.95,2.72-1.19,2.83-.7,5.48-1.47,6.59-4.74,0.45-1.31,2.16-1.78,3.31-2.62,2.63-1.93,6-3.46,7.05-6.6,1.2-3.42,3.82-4.77,6.56-5.81,3.1-1.17,5.15-3.53,8.2-5.28a121.86,121.86,0,0,0-22.4-18c4.93,0.2,9.41.66,13.64,4.09,28.67,23.25,44.34,53.08,46.5,90,0,0.69-.23,1.44.54,2.2,3.19-.59,6.42-2.27,9.94-1.36-1.49,3.57,1.18,4.35,4.31,2.9s4.68-.56,8.54,1.83c-5.1,1.66-9.91,3.27-14.74,4.78-1.36.43-2.57-.45-3.83-0.81-1.44-.42-2.86-0.92-4.6-1.48-0.2,2.61-.37,4.81-0.53,7-0.3,4.18-1.21,8.29-1.63,12.44s-2.81,6.53-6.63,9c2.29-9.55,4.08-18.56,4.12-27.85-1.67-.69-3.15,0-4.63.07-2,.13-4,1.16-5.9-0.29a1.61,1.61,0,0,0-1.46.1c-3.69,2.56-8.2,1.11-12.12,2.52a2.62,2.62,0,0,1-1.5.07c-6.62-1.87-12.59,0-18.57,2.78A25,25,0,0,1,316.28,264a67.08,67.08,0,0,0-14.89,1.44c-5.1.93-10.11,2.3-15.27,3.5,0,1.05,1,1.72,1.67,2.56,3.65,4.66,7.37,9.27,11.06,13.9,1.53,1.91,3.09,3.76,3.56,6.32s2.84,3.39,4.52,4.76c2.93,2.39,5.4,5,6,8.86,0.52,3.59,2.3,5.76,5.83,7.07,2.28,0.85,4.53,3,4.82,5.49,0.52,4.56,2.81,7.72,6.22,10.4A5.6,5.6,0,0,1,331.7,331l-5.47-4.44c-2.85-2.33-5.77-4.57-8.51-7-1.56-1.4-2.55-1.58-4.31-.07a86.14,86.14,0,0,1-39.47,19.32c-2.8.57-5.64,0.91-8.48,1.26-1.08.13-2,.17-2.2,1.55-1.22,8.77-2.47,17.54-3.76,26.64,10.71,0.07,20.74-2,30.78-4.74-1.76,5.08-5.05,6.78-14.28,7.54-0.66-.41-0.13-1.46-1.24-1.9-3.59,3.81-8.55,3.28-13.3,3.59-3,.2-3.32.5-2.12,3.3,1.7,4,2,7.73.13,11.77-1.35,2.94-2.14,6.14-3.49,9.26a78,78,0,0,1-4.73-12.93c5.4-2.37,6.07-4.66,2.79-9.16-4,1.66-3.89-2.15-6.07-2.45-2.53-.34-5.09-0.48-7.62-0.81-1.67-.22-3.52-0.14-4.31-2.25a1.93,1.93,0,0,0-1.82-1c-3.25.08-6.31-1.43-9.62-1s-6-1.18-8.74-2.45c-1.67-.78-0.38-2.51-0.49-4.24,12.32,4.44,24.69,7.23,37.65,7.49,0.57-1.93-.05-3.7-0.31-5.47s-0.2-3.06,1.62-3.8a2.11,2.11,0,0,0,1.18-3.23,18.49,18.49,0,0,1-1.44-5.6c-0.27-1.93-.68-3.9-3-4.54-1.05-.29-1-1.22-1-2,0.13-2.92-1.43-3.65-4.1-3.89a66.63,66.63,0,0,1-16.18-3.59c2.35-1.42,4.05-1.33,6.72.15,3.7,2.07,7.75,1.32,11.69,1.4a1,1,0,0,0,1-1c0.17-1,.72-2.13.43-3-2-6-.67-12.33-2.6-18.35a107.34,107.34,0,0,1-3.61-16.76c-0.24-1.62-.6-3.21.75-4.6a2.67,2.67,0,0,0,.49-2.34,14.91,14.91,0,0,1,.23-5.43,3.58,3.58,0,0,0-1.22-3.88c-1.28-.87-2.57-0.09-3.77.41a7.64,7.64,0,0,0-3.27,3.14c-1.39,2.11-3.41,3.34-5.59,4.58-4.81,2.75-9.81,5.3-13.38,9.82-2.67,3.39-5.6,6.53-10.08,7.6a4.07,4.07,0,0,0-2.21,2c-0.76,1.14-.95,2.87-3.26,1.89-1.09-.46-2.69,3.92-1.61,4.93,4.54,4.23,8.93,8.84,14.48,11.6,3.15,1.57,6.55,2.52,9.21,5.39a2.46,2.46,0,0,1-1.95-.42,86.91,86.91,0,0,1-21.79-13.53c-0.89-.75-1.84-1.33-1.91-2.89a1.62,1.62,0,0,0-3-.78c-4.81,7.63-12.42,12.17-19.13,17.72a8,8,0,0,0-.77.93c9.12,9.33,19.76,16.51,31.85,22.57-3.59,1.48-6.41,2.25-9.3-.28a20.8,20.8,0,0,0-6.44-3.46c-1.8-.69-3.61-1.45-4.43-3.49-0.57-1.42-2.26-1.2-3.31-2a122.16,122.16,0,0,1-21.5-21.29,6.22,6.22,0,0,1-1.1-2.17,16.93,16.93,0,0,0-3.22-6.22c-5.52-6.63-8-15-12.88-22-0.91-1.32-1.27-2.65-.14-4.19a2.8,2.8,0,0,0-.16-3.19c-2.25-3.57-2.43-5.32-.78-10.41A116,116,0,0,0,174.78,334l5.34-7c0.61-.8,1.08-1.69,2.43-1.39,1.81,0.4,2.57-.89,3.07-2.32a12.52,12.52,0,0,0,.7-4.83c-0.12-2.11.46-3.45,2.71-4a5.06,5.06,0,0,0,3.52-2.27c-6.9-7.64-14.11-15.06-16.79-25.43a6.08,6.08,0,0,1,.47-5.22,3.74,3.74,0,0,1,.9,2.26c1,6.26,4.07,11.33,8.41,15.86,2.24,2.34,3.85,5.27,5.91,7.8,2.56,3.15,4.23,2.93,6.17-.67,1.29-2.4,2.08-5.11,5.16-6.09,1.16-.37,1.19-1.75,1.07-2.94-0.23-2.31.43-3.71,2.79-5,2.12-1.2,5-3,4.38-6.47a2.37,2.37,0,0,1,1.6-2.66,5.37,5.37,0,0,0,2.7-1.94c1.31-2.45,2.69-4.63,5.6-5.59a2.25,2.25,0,0,0,1.1-3.37c-1.16-1.69-.17-2.85.78-4.41-3-1.18-5.81-2.32-8.64-3.37a3.4,3.4,0,0,0-2.1-.12c-5.25,1.79-10.32,0-15.41-.77-3.77-.57-7.48-1.62-11.75-2.57,2.09-1.36,4.24-1.45,6-3-3-1.3-6.27-1.26-8.56-3.78,1.15-.93,2.29-0.5,3.31-0.45,13.47,0.65,26.94,1.27,40.39,2.08,3,0.18,5-1.07,7.46-3.09-2.87-1.78-5.06-4-8.57-3.75-16.1,1.17-32.2,2.26-48.29,3.41a2.33,2.33,0,0,0-2.06.7c1.43,0.85,3.06.27,4.48,0.78,0.28,1-1.13,1-1.17,1.93,0.27,0.92,1.58.25,2,1.47-1.73-.55-2.9,1.4-4.41.81-1.91-.74-3.63-0.27-5.38.21a6.23,6.23,0,0,1-5.56-.77c-3.33-2.37-6.86-3.16-10.8-1.73a3.69,3.69,0,0,1-2.67-.09c-1.92-.73-3.81-1.18-5.88-0.05-0.83.45-2.16,0-3.5-.06-0.36,3.61.22,7.12,0.57,10.63,0.1,1,.61,2.13-0.15,2.95a3.35,3.35,0,0,1-3.12.91c-1.07-.22-0.82-1.25-0.93-2-0.36-2.7-1.21-5.41,1.65-7.52a1.37,1.37,0,0,0-.63-2.55c-1.82-.3-3.32-2.73-5.49-0.91a0.88,0.88,0,0,1-.82-0.19c-2.48-3.21-8.44-4-11.54-6.3a5.65,5.65,0,0,1,1.91-.63c4.39-1.5,8.65-4.16,13.35-1,1.29-1.85-.15-4.13,1.49-5.4a4.21,4.21,0,0,1,3.52-.66c0.28,1.21-.44,2.18-0.66,3.24-0.55,2.68.44,4.13,3.22,4.25a15.47,15.47,0,0,0,6.29-1.12c3-1.15,6-2,9.26-1,0.47,0.15,1.27.39,1.43,0,1.08-2.73,3.56-1.74,5.42-2,4.86-.63,9.77-0.83,14.59-1.84,2.16-.45,4,0.76,5.93,1.16,2.53,0.51,5,1.14,6.53-2,0.79-1.59,4.06-1.73,5.75-.5,1,0.73,1.83,1.45,2.73-.06a1.79,1.79,0,0,1,1.62-.69,43.39,43.39,0,0,0,11-2.52,7.25,7.25,0,0,1,4.17.25c3.57,0.86,5.26-.43,5.54-4,0.05-.65.18-1.46-0.46-1.59-2.46-.48-3.06-3.12-5-4.14a0.54,0.54,0,0,1-.24-0.19c-2.47-5-7-8.62-9.06-13.82-1.18-3-2.17-6-5.3-7.57a4.85,4.85,0,0,1-1.32-1.64,8.59,8.59,0,0,0-1.17-1.78c-3.08-2.55-5-5.46-5-9.77,0-2.57-3.16-3.29-5.19-4.24-1.31-.62-2-1.12-2-2.53a2.69,2.69,0,0,0-.95-1.87A200.75,200.75,0,0,1,175.43,172c-1.29.33-1.9,1.33-2.65,2.12A116,116,0,0,0,151.09,207c-1.66,3.79-1.66,3.79-6.42,4.25,1.14-2.9,1.68-5.9,4.05-8.1a14.41,14.41,0,0,0,3.05-4.92c1-2.15,2.72-4,3.5-6,2.38-6.12,8.17-9.85,10.43-15.93,0.41-1.11.83-2.36,2.36-.68,0.73-3.52,3.1-5.57,5.55-7.82,2.62,3.51,6.19,5.73,9.38,8.37,1.32,1.09,2.39,2.2,2.47,4s1,2.86,3,2.37a4.14,4.14,0,0,1,3.88,1.18c6.33,5.17,12.7,10.29,19.07,15.41a13.05,13.05,0,0,1,3.87,4.27c0.82,1.66,2.53,2.32,4.13,3,1.94,0.83,3.67,1.8,4.17,4.1a2,2,0,0,0,2.19,1.76c1.93,0,3.19,1.06,4.44,2.35,3.29,3.4,7.36,5.77,11.56,9l6.54-55.09c-10,.33-18.8,3.41-27.53,7.11-0.24-1.82,1-2.34,2-3a19.56,19.56,0,0,1,5.9-2.51c2.4-.67,5-0.37,7.25-0.78s4.36-2.45,7-2.53c4-.11,6.93-1.17,6.38-6.06-0.13-1.18.92-1.71,1.73-2.34a12.48,12.48,0,0,0,4.06-4.47c-2.93-2.77-2.84-8.5.18-11.07-0.94-.85-2.81.35-3.29-1.62-0.38-1.55,1.26-1,1.58-2a3.18,3.18,0,0,0-3.32-1.3c-4.77.45-9.51,1-14.35,0.53a9.16,9.16,0,0,0-6.58,2.05c-1.89,1.5-4.36,1.77-6.64,2.12-1.7.26-2.76-1.42-4-2.47,0.53-1.28,1.68-1.24,2.59-1.51a116.79,116.79,0,0,1,28.57-5.16c2.12-.08,2.85-0.8,3-2.79,0.28-3.24.87-6.38-.82-9.53a9.63,9.63,0,0,1-.83-5.72c1.09-.91,2.28-0.18,3.37-1.09l-1-8.49c-2.45-.9-4.87.18-7.13-0.64-0.45-1.5.39-2.2,1.59-2.41a5.28,5.28,0,0,0,4-2.92c0.54-1,1.51-1.26,2.92-1.12l-0.73,6.72c0.58,0.35,1.15.39,1.27,0,0.82-2.44.81-5,1.12-7.53a1.05,1.05,0,0,0-.84-1.13c-0.95-.29-1.12-1.13-1.35-1.9-2.65-8.61-5-17.32-5.14-26.37-0.1-8.08,2.93-15.37,7-22.23a6,6,0,0,1,1-1c2.66,3,3.88,6.55,5.19,10a38.77,38.77,0,0,1,1.86,21.69c-1.14,5.61-2.4,11.18-4,16.66-0.39,1.29-.36,2.9-2.26,3.25-0.71.13-.66,0.9-0.58,1.54,0.22,1.82.46,3.65,0.6,5.48s1.15,1.92,2.54,1.53Zm60.12,91.6c-1.44.7-1.73,2.63-2.94,2.51-2.69-.26-3.46,1.69-4.06,3.38a25.38,25.38,0,0,1-7.16,10.08c-1.93,1.79-3.05,4.36-5.45,5.63a7.22,7.22,0,0,0-4.09,5.75,8.54,8.54,0,0,1-2.64,5c-1.61,1.71-3.26,3.38-4.83,5.13A5.82,5.82,0,0,1,286,236.6c-3,.57-6.11.74-8.69,2.66a0.7,0.7,0,0,1-.83.1c-2-1.13-3.9-.13-5.84.31-1.13.26-2.27,0.87-3.65,0.33,0.14-2.71,2.64-1.18,3.63-2.15-4.74-6.77-14.31-8-23.76-3.09-7.59,3.95-12.34,12.12-10.23,17.87l4.92-4.72,4.51,4.16,2.18-5.69A6.57,6.57,0,0,0,247,246c-5.33-.29-5.63-0.8-3.31-5.72a2.82,2.82,0,0,1,.47-0.53c1.79,0.31,3.61,1.28,5.39.13,0.67,1.48-.19,3,1,4.1,1.48-1.11,3.28-1.49,5-2.27-0.71-1.84-2.55-2.55-3.42-4.38,0.78-.81,1.59-1.69,2.44-2.54,2.81-2.85,2.82-2.84,5.56.22a2,2,0,0,1,.21.63,12.57,12.57,0,0,0-1.88,4.41c-0.12.72-.29,1.57,0.64,1.79,1.83,0.42,3.34,1.68,5.31,2.26,0-1.22,0-2.14,0-3s-0.43-1.72.54-2.49c0.57,3.45.94,3.76,3.49,3.1,3.15-.81,3.22-0.74,3.07,2.89-0.82.54-1.76,0.28-2.66,0.33-2.75.16-3.17,0.86-2.12,3.33,0.51,1.19.91,2.44,1.42,3.82,2-1,2.93-3,4.63-3.88,1.42,0.34,1.82,2,3.2,2.18,0.64-1.38-.55-3,1.33-4.15a56.4,56.4,0,0,0,7.85-5.93,5.85,5.85,0,0,1,5-1.72c4.65,0.65,9.3,1.34,14,2a3.41,3.41,0,0,1,2.58,1.39,6,6,0,0,0,7.61,2.25c4.34-1.67,8.62-1.07,13-.33,1.34,0.23,2.55.41,3.28,1.82s2,1.32,3.46,1.26c5.87-.22,11.51,1.27,17.16,2.57,1.28,0.3,2.74,1.19,3.75.06,2.18-2.42,3.79-1.39,5.59.4,0.94,0.93,2.58,1.95,3.44.69,1.14-1.68,2.32-1.13,3.67-1s2.58,0.64,4,.29a4.85,4.85,0,0,0,.27-3c-0.34-4.38-.75-8.75-1-13.13-0.12-1.77-.36-3.43.84-5.22,1.42-2.1-.57-6.79-3-7.93a2.08,2.08,0,0,1-1.27-1.53,80.15,80.15,0,0,0-5.46-13.29,4.3,4.3,0,0,1-.4-3.21c0.69-2.56-.52-4.56-2.35-6.23-0.52-.47-1.49-0.74-1.65-1.28-1.43-4.85-5.54-8.06-7.55-12.53-0.37-.83-0.77-2-1.84-1.71-1.66.41-2.13-.8-2.92-1.66-1.89-2.06-3.48-4.42-6-6.16-5.57,7-10.95,13.8-16.4,20.55-1,1.26-.37,1.94.4,2.85a89.67,89.67,0,0,1,9,12.7c0.76,1.3,1,2.38-.69,3.44C328.31,207.17,325,201.79,320.56,197.16ZM263.85,337.43c13,1.14,40.25-10.65,49.29-21.18a5.75,5.75,0,0,0-2.12-2.1c-4.83-3.94-9.68-7.85-14.51-11.78-0.85-.69-1.79-1.27-1.83-2.63-0.15-4.52-3.37-6.82-6.87-8.58a10.35,10.35,0,0,1-3.43-2.38,7.11,7.11,0,0,0-5.05-2.57,9.41,9.41,0,0,1-6.23-2.81,1.24,1.24,0,0,0-1.57-.29Zm-8.09-.67c0.93-.64.64-1.31,0.68-1.89q0.87-14.82,1.73-29.65c0.06-1-.3-2.47.71-2.78,2-.63,2.49-2.48,4-3.76l-1.26,20.89c1-1,.87-2.26,1-3.41,1.33-11.25,2.5-22.53,4-33.76,0.41-3.07-.56-4.8-3.2-6.06,1.19,6.06.86,16.37-4.7,19.62,0.26-4.76.46-9.44,0.79-14.11a4.82,4.82,0,0,0-2.19-4.84c-2.27,2.54-3.93,5.2-3.68,8.65-2.88.24-3.4,1.33-1.86,3.57a4.08,4.08,0,0,0,1,1.11,3.22,3.22,0,0,1,1.3,2.93q0.42,11.78.88,23.57C255.21,323.42,255.48,330,255.75,336.77ZM334,253.93v-0.53c-0.8-.07-1.59-0.17-2.39-0.21-8.26-.41-16.51-0.91-24.78-1.15-2.83-.08-5.14-0.67-6.74-3.14,1.46-.93,2.82-0.53,4.33.05s3.74,1.87,5.06.06c1-1.36,1.92-1.14,3.07-1.08,3.85,0.21,7.69.43,11.54,0.65a56,56,0,0,0-9.48-1.7c-3.84-.46-7.69-1.76-11.39-1.86-5.74-.16-11.36-1-17-1.47-3-.25-3.65.09-5.1,3.37,2.84-1.39,5.7-.29,8.5-0.5,3.82-.29,4,3.56,6.43,5-5.16.17-10.34-1.85-15.57,1.3,3.55,2.33,6.49,4.68,10.68,3.77,1-.23,2.29-0.46,3.23.38,1.1,1,2.25.67,3.46,0.42a123.41,123.41,0,0,1,17.9-2.39C321.81,254.49,327.91,254.24,334,253.93ZM257.1,229.62c0.87-4.83,4.82-8.31,2.49-13.2a2.31,2.31,0,0,1,.08-1.78c0.9-1.79.43-3.58,0.26-5.4-0.32-3.45-1.71-6.95-.94-10.31a21.23,21.23,0,0,0-.2-9.36,16,16,0,0,1,0-7.83,23.1,23.1,0,0,0,.62-8.82c-0.09-.83-0.33-1.66-1.39-1.72-1.24-.08-1.2.94-1.25,1.7-0.17,2.94-.83,5.82-0.59,8.83,0.27,3.41.61,6.94-1.73,10a3.16,3.16,0,0,0-.37,2.06c0.94,9.35,0,18.7-.15,28C253.89,224.7,254.75,227,257.1,229.62Zm7.42,23.19c0.81-3.54-.49-6.75-3.44-7.86a8.5,8.5,0,0,1-4.24-3.23c0.17,2.44-1.26,2.73-2.8,3.16a7.57,7.57,0,0,0-5.09,4.92,12.2,12.2,0,0,0-.46,5.66c-1.2.37-1.84-.89-2.76-0.82-1.18.74-1.78,2-3.09,2.57-0.45-1.37.18-2.38,0.42-3.43,0.34-1.46-.12-3.11-1.35-3.32-2.34-.39-2.17,3.45-4.7,3.37-0.73,0-.67.64-0.57,1.14a19.91,19.91,0,0,0,6.19,11.2c1-.65,1.61-1.34,1.55-2.14-0.18-2.28,1.33-2.35,2.91-2.57s3.08-.11,4.05-1.54c5,3.08,8.15,2.77,10.72-1-6.57,2.9-11.5.44-12-6a6.2,6.2,0,0,1,3.33-6.1c1.84-1.09,3.68-1.91,5.21.56a2.13,2.13,0,0,0,1.4.54C262.7,248.26,264.18,249.92,264.52,252.81Zm22.55-32.36c-1.52-2.83-3-1.76-4.47-.34a15.2,15.2,0,0,0-1.81,2.07,19.64,19.64,0,0,1-5.89,6.05,6.74,6.74,0,0,0-2.89,3.08c-0.62,1.48,1.13,5,2.53,4.76,2.13-.4,4.34-0.62,6-2.57,7.4-8.69,14.94-17.27,22.41-25.9,0.4-.47,1.14-0.84.82-2Zm-46.85,16.12c-0.3-3-.9-5.43-3.2-7.44-7.54-6.58-14.92-13.34-22.38-20-0.56-.5-1-1.29-2.13-1.31,1.76,2.52,4,4.56,4.84,7.44a6.64,6.64,0,0,0,3.1,4c2.24,1.3,3.18,3.36,3.79,5.68,0.36,1.38.62,2.79,1,4.17,1,3.51,2.27,4.42,6,4.25,1.12-.05,2.23-0.35,3.06.79C235.71,236.13,237.91,236.12,240.22,236.58Zm0.24,33.28c-3.83.83-7.77,0.78-10.57,3.16s-5.07,5.83-7.52,8.82a1.4,1.4,0,0,0-.31,1.14c1,2.37-.83,3.53-2,4.94-1.79,2.09-3.67,4.1-5.44,6.21s-3.66,3.65-5,5.9a0.71,0.71,0,0,0,1-.13q14-12.14,27.92-24.28C240.13,274.2,240.31,272.36,240.46,269.85Zm64.25,32.39,0.34-.46q-13.56-15.35-27.13-30.7c-1-1.1-2.12-1.86-3.79-1.21,0,2.12.74,4-.26,6.23s2.27,6.63,4.22,5.8c2.58-1.09,3.73.41,5.2,1.69Q294,292.91,304.7,302.25ZM257.08,91.67c0.34-2.38.64-4.77,1-7.14,0.12-.71-0.19-1.82,1-1.93,1.57-.14,1.68-1.35,1.8-2.41,0.22-2,.25-4.06.36-6.09,0.05-.9-0.19-1.95.64-2.57,2.09-1.54,1.14-2.85-.13-4.29-2.05-2.33-4.79-4.3-4.59-7.95a0.59,0.59,0,0,0-.28-0.11C252.22,69.9,255.13,80.73,257.08,91.67Zm-5.87,100.4c-1,2.82-.5,6.08-2.85,8.45-0.31.31-.12,1.18,0,1.78a5.15,5.15,0,0,1,0,2.09c-0.92,3.26-.39,6.77-1.77,10a4.54,4.54,0,0,0,.07,3,10,10,0,0,1,.15,4.52c-0.56,3.61.14,4.58,3.69,5.75-1.37-4.77-.72-9.81.5-14.47a50.92,50.92,0,0,0,1.09-9.31C252.3,200.09,251.56,196,251.21,192.07Zm75.54,66.09-0.19-.59c-9.06.63-18.11,1.41-27.17,1.84-6.19.29-12.37,1.87-18.68,0.39,2.59,4.28,2.59,4.24,7.22,3.57,5.26-.75,10.52-1.42,15.78-2.12Zm-76.17,18.23c-4.46,2.27-4.43,2.26-3.83,6.62,1,7.07,1.79,14.16,2.83,21.22,0.88,6,1.35,12.09,2.81,18-0.73-13.42-1.66-26.81-2.62-40.2C249.63,280.12,249.35,278.19,250.58,276.39Zm20.84-8.12c-2.91.41-4.16-1.17-4.87-3.55-0.39-1.31-1.49-2.06-2.55-2.93-1.71,1.33-3.76,1.68-5.76,2.46,0.5,1.59,1.8,2.59,2.37,4s-0.68,2.75-.73,4.21C264.6,272.44,268.68,271,271.42,268.27Zm-83.19-20.46,0,0.6c6.89-.4,13.78-0.89,20.68-1.19,7.83-.34,15.65-1.47,23.4-0.84-1.26-2.63-3.35-3.27-6.4-2.88C213.34,245.08,200.78,246.39,188.23,247.81ZM263.16,228c2.95-1.48,4-3.18,3.52-6.23-1.1-7.66-1.75-15.39-2.68-23.08-0.61-5-.86-10.1-2.09-15,0.49,11.5,1.21,23,1.82,34.47C263.9,221.33,264.77,224.55,263.16,228Zm2.89,32.05c2.1,0.75,4.1-.16,6,0.64,0.67,2.15-.12,4.43.63,7,3.13-3.54,3.85-7.43,3.88-11.82-3.65,1.59-6.32.39-8.27-2.37C265.19,255.22,267.75,258.18,266.05,260.09Zm-65.74-.29L226,263.36c4.19,0.58,4.35.49,6.25-4-1.91,1.57-4.06,1-6.15.95C217.55,260.19,209,259.82,200.31,259.8Zm52.05,9.5c1.12-.4.72-2.36,2.61-1.93a1.42,1.42,0,0,0,1.67-1.39,1.85,1.85,0,0,0-1.46-2l-4.54-1.6c-0.83,1.77-1.9,3.41-.74,5.29-1.3,1-2.76.19-4.39,1a19.84,19.84,0,0,0,9.44,3.57Z" transform="translate(-64.99 -0.07)"/><path d="M78.7,240.2a14,14,0,0,0-9.31,4.72c-2.23,2.55-2.17,4,0,6.6-2.2,1.12-3.81.41-4.32-2a6.21,6.21,0,0,1,1-4.66c2.58-4.16,6.49-6.37,11.1-7.53a7.37,7.37,0,0,0,2.89-.93c0.71-.53,1.5-1.37,2.42-0.53a2.56,2.56,0,0,1,.59,3.08c-1.93,4.52-2,9.34-2.17,14.13a4.74,4.74,0,0,0,.71,3.43,96.8,96.8,0,0,1,6.24-8.34c2.69-3.43,5.81-6.59,6.61-11.18a2.78,2.78,0,0,1,2.24-2.62c1.72-.19,2.64,2,1.7,3.91a22.76,22.76,0,0,0-1.27,17.17c1.47-.7,2.22-2.07,3.18-3.19A129.11,129.11,0,0,0,109,241.55c1.45-2.12,2.9-4.23.64-6.88-1-1.23.2-2.27,1.25-2.95s2.1-.41,2.89.69a4,4,0,0,1,.48,2.94,15.2,15.2,0,0,1-3.17,7.54c-3.22,4.35-6.54,8.62-9.81,12.93a41.34,41.34,0,0,0-3.78,5.93c-0.44.85-.77,2.13-2.12,1.76s-1.63-1.49-1.68-2.66c-0.1-2.65,0-5.3-.21-7.94-0.12-2,.13-4.07-0.62-6.26-2.24,1.57-3.49,3.81-5.06,5.74a45.06,45.06,0,0,0-6.57,10.3c-0.49,1.11-.76,2.63-2.4,2.18-1.48-.4-1.29-1.83-1.27-3.08,0.08-6.83.11-13.66,1.35-20.42A4,4,0,0,0,78.7,240.2Z" transform="translate(-64.99 -0.07)"/><path d="M277.73,88.13c1.15,1.07,1,3.24,3,2.84,1.24-.24,1.66-1.44,1.89-2.56A3.61,3.61,0,0,0,281,84.16c-2.15-1.25-4.42-.25-6.59-0.08-1.49.11-1.76,1.8-2.3,3a2.74,2.74,0,0,1-.31.85c-2.6,2.4-3.25,5.33-2.61,8.73a3.7,3.7,0,0,1-.71,2c-0.65,1.23-1.14,3.12-2.83,2.74a4.14,4.14,0,0,1-3.26-4C262.84,91,264,84.79,268.9,80a3.93,3.93,0,0,1,3.8-1.41,5.29,5.29,0,0,0,3-.39c2.92-1.28,5.27.08,7.67,1.39a5,5,0,0,0,1,.68c4,0.91,4.43,4.19,5.26,7.39,1.31,5-4.64,11.6-10.57,9.9A4.94,4.94,0,0,1,275.15,93,5.18,5.18,0,0,1,277.73,88.13Z" transform="translate(-64.99 -0.07)"/><path d="M253.93,7.33a19.94,19.94,0,0,0-10.16,2.33,8.1,8.1,0,0,0-3,2.53c-1.6,2.27-1.22,3.22,1.53,3.72A2.33,2.33,0,0,1,240,18.57c-1.65.11-2.15-1.29-2.48-2.62-0.68-2.76.7-4.76,2.58-6.47,3.39-3.08,7.6-4.26,12-4.92,0.86-.13,1.88.18,2.36-1a1.36,1.36,0,0,1,1.64-1,2,2,0,0,1,1.4,1.81c1.33,6.42,5.29,11.56,8.31,17.53,1.15-1.26,1.16-2.52,1.44-3.62a80,80,0,0,1,3.49-11.73,13.44,13.44,0,0,1,4-5.73,2.15,2.15,0,0,1,2.53-.5,2.12,2.12,0,0,1,1.17,2,1.87,1.87,0,0,1-1.77,1.81,4.31,4.31,0,0,0-3.42,3.16c-2.43,6.51-4.6,13.1-4.05,20.21,0.08,1.08.16,2.19-1,2.61-1.41.51-2-.62-2.49-1.66-2.26-5-5.19-9.72-7.72-14.62a3.29,3.29,0,0,0-1.48-2C255.6,14.92,254.9,18,253.95,21a22.15,22.15,0,0,1-5.82,9.94c-3,2.8-4.69,2.8-7.89.17a11.16,11.16,0,0,0-1.53-1A2.6,2.6,0,0,1,237.27,27c0.21-.83.9-1.69,1.74-1.35,1.22,0.49,3.06.39,3.34,2.16,0.16,1-.09,2.08,1.23,2.44s2.1-.62,2.82-1.42c2.94-3.27,4.54-7.24,5.72-11.4A43.1,43.1,0,0,0,253.93,7.33Z" transform="translate(-64.99 -0.07)"/><path d="M236.27,88.27c3,1,3.76,2.61,2.42,5.16a7.84,7.84,0,0,1-4.82,4c-2.49.76-3,.51-3.72-2.09a6,6,0,0,0-1.59-2.57c-2.56-2.53-4.11-9.31-2.67-12.39,1-2.06,2.85-3.13,4.95-3.81,7.5-2.44,16.07,2,18.67,9.68A84.39,84.39,0,0,1,251.85,96c0.4,1.92-.52,3.18-1.73,4.28a2.66,2.66,0,0,1-4.57-1.25c-0.63-2-1-4.17-1.45-6.26a28.35,28.35,0,0,0-2.69-8.1c-1.9-3.35-5.06-4.89-8.41-4.24a2.76,2.76,0,0,0-2.32,1.71c-0.8,2,.21,6.59,1.81,8S234.95,91.08,236.27,88.27Z" transform="translate(-64.99 -0.07)"/><path d="M444.77,244.54c-3-3.88-6.53-2.27-9.73-2.38-1.14,0-1.57.7-1.73,1.74-0.32,2.11-.69,4.2-1.1,6.69,2.69-.12,5.17.87,7.52-0.6,0.74-.46,1.4-1,2.11-0.08a1.92,1.92,0,0,1-.17,2.53,2.21,2.21,0,0,1-1.84.95c-0.61,0-1.22-.1-1.83-0.1-5.92,0-5.91,0-7.65,5.64-0.39,1.25-.85,2.49-1.28,3.72,7.45,2.84,15-.34,17.13-7.14,1.38,2.21,1,4.86-1.07,7a12.18,12.18,0,0,1-7.08,3.32,37.06,37.06,0,0,1-8.24.29c-1.22-.07-2.37-0.25-3.45.72-0.65.58-5.07-1-5.26-1.82a1.47,1.47,0,0,1,1.76-1.87c2.76,0.28,3.44-1.52,4.06-3.57,1.64-5.38,2.29-10.94,3.29-16.78a15,15,0,0,0-11,2.89c-2.23,1.74-2.07,3.11.28,5.14a2.06,2.06,0,0,1-2.51,1.94,2.64,2.64,0,0,1-2.13-2.67c-0.22-2.72,1.25-4.65,3.19-6.28,2.51-2.11,5.59-2.89,8.72-3.46,2.07-.37,4.29-0.21,5.49-2.59a1.87,1.87,0,0,1,2.46-.64c1.24,0.53.1,1.67,0.75,2.6,2.86-.35,6.24,1.27,8.48-2.2a0.88,0.88,0,0,1,1.36,0,1.53,1.53,0,0,1,.54,1.65A16.51,16.51,0,0,0,444.77,244.54Z" transform="translate(-64.99 -0.07)"/><path d="M256.36,412.09c-3.14.46-4.45,3.24-2.87,6.08,1,1.74,2.56,2.88,4,4.18,5,4.56,5.21,9.1.22,13.76-3.25,3-7.06,4.87-11.71,3.73a5.86,5.86,0,0,1-4.81-5.26c-0.09-1,0-1.95.92-2.4s1.77,0.18,2.39.89a3.69,3.69,0,0,1,.91,1.57c0.54,2.77,2.47,2.89,4.66,2.58a9.92,9.92,0,0,0,4.71-2.07c4.29-3.29,4.42-6.41.43-10.05-1-.89-2-1.71-3-2.64-3.07-3.06-3.34-6.74-.75-10.18a12.59,12.59,0,0,1,5.27-4.06c1.17-.49,2.62-0.88,3.28.41s-0.74,2.11-1.67,2.86A2.73,2.73,0,0,1,256.36,412.09Z" transform="translate(-64.99 -0.07)"/><path d="M356,319.4a106.31,106.31,0,0,1-16.08,19.79l4.05,4.54c-2.38-.72-3.25-2.55-5-3.49-5.61,4.79-11.21,9.64-17.75,13.27A365,365,0,0,1,356,319.4Z" transform="translate(-64.99 -0.07)"/><path d="M343.26,264.47a40.94,40.94,0,0,1-1.34,8.11,86.55,86.55,0,0,1-17.5,35.69C323,310,323,310,321,308.77a102.5,102.5,0,0,0,9.21-12.94,86.08,86.08,0,0,0,10.44-28.93C341,264.7,341,264.71,343.26,264.47Z" transform="translate(-64.99 -0.07)"/><path d="M148,214.06a138.14,138.14,0,0,0-5.58,23.52l-4.35.53c0.32-3.72,0-7.4,4-9.29-0.26-1.48-1.52-.38-2-1.21C140.22,221.65,141.87,218.7,148,214.06Z" transform="translate(-64.99 -0.07)"/><path d="M301.3,145.64c-1.8.88-3.12-.24-4.39-1.2a21.69,21.69,0,0,0-14.25-4.4c-2.75.07-4.84-1.91-7.13-3.1-0.93-.48-0.23-1.72.89-1.86a8.14,8.14,0,0,1,2.41.3,141.72,141.72,0,0,1,18.86,5.13C300.36,141.4,301.61,142.82,301.3,145.64Z" transform="translate(-64.99 -0.07)"/><path d="M267.85,111.71a2.34,2.34,0,0,0,.63-0.15c1.72-1,3.36-1,4.58.67,1.09,1.5.43,2.92-.74,4.09-1.45,1.46-3.15,2-4.92.67-2.74-2-3.9-5.07-5.23-8.17,1.32-.82,2.35-1,3.33.2C266.28,109.93,266.76,111.11,267.85,111.71Z" transform="translate(-64.99 -0.07)"/><path d="M246.46,111.76c3.14-3.76,3.14-3.76,5.66-3.06a20.86,20.86,0,0,1-4.47,7.52c-2,2-4.36,1.89-6.07-.22-0.89-1.09-1.4-2.31-.58-3.64a2.94,2.94,0,0,1,3.69-1.35C245.25,111.19,245.79,111.48,246.46,111.76Z" transform="translate(-64.99 -0.07)"/><path d="M170,245.13a31.59,31.59,0,0,1,.81-7.81,84,84,0,0,1,4-14.46c0.32-.87.54-1.85,1.88-1.29s0.63,1.31.36,2a82.7,82.7,0,0,0-4.39,17.49C172.37,242.64,171.48,243.65,170,245.13Z" transform="translate(-64.99 -0.07)"/><path d="M302.82,143.18c1.91-.21,3.34.79,4.8,1.64a16.61,16.61,0,0,0,2.86,1.72c3,1,3.84,3.26,3.91,6.46-2.41-1.18-5-1.63-6.12-4.44a4.51,4.51,0,0,0-3.87-3C302.91,145.39,302.5,144.65,302.82,143.18Z" transform="translate(-64.99 -0.07)"/><path d="M186.37,157.67c-1.79,1.76-3.28,3.31-3.9,5.54-0.25.9-1.41,2-2.27,1.79-2.44-.63-3.91,1.14-5.82,2C174.91,163.53,180,159.51,186.37,157.67Z" transform="translate(-64.99 -0.07)"/><path d="M260.55,105.62c-1.59-1.73-1.88-3-1.53-7,0.74-.29,1.76-0.17,1.91.42,0.88,3.36,5.27,3,6.74,6.05-2.63,1-5-.12-7.23.47Z" transform="translate(-64.99 -0.07)"/><path d="M199.76,187.29c6-3,10.37-8.68,17.09-10.37,0.39,0.63.12,0.89-.11,1a96.68,96.68,0,0,0-14.8,10.11C200.85,189,200.77,188.89,199.76,187.29Z" transform="translate(-64.99 -0.07)"/><path d="M130.27,257.69c-7.27-1.91-13.54-5.16-20.64-5.14C117.18,250.73,123.72,253,130.27,257.69Z" transform="translate(-64.99 -0.07)"/><path d="M281,169.45c-4.08,2.49-7.87-.58-11.84-0.63-0.76,0-.75-0.25-1.14-2.34A47.6,47.6,0,0,1,281,169.45Z" transform="translate(-64.99 -0.07)"/><path d="M314.44,187.52c-1.86,2.23-3.33.93-4.12-.58-1.35-2.59-2.79-4.58-6-4.8-1.6-.11-1.07-2.19-1.93-3.19A59.28,59.28,0,0,1,314.44,187.52Z" transform="translate(-64.99 -0.07)"/><path d="M285.29,170.84a39.7,39.7,0,0,1,12.21,5.47C293.25,174.93,288.24,175.44,285.29,170.84Z" transform="translate(-64.99 -0.07)"/><path d="M171.93,260.16l0.89,7c0.11,0.84.22,1.7-1,1.81s-1.2-.8-1.32-1.61c-0.24-1.71-.52-3.42-0.74-5.14C169.6,260.68,170.15,259.86,171.93,260.16Z" transform="translate(-64.99 -0.07)"/><path d="M188.55,202.25c-1.14-.51-2-1-1.27-2.09s1.73-2.21,2.62-3.3a1,1,0,0,1,1.57,0,0.93,0.93,0,0,1,.21,1.52C190.67,199.61,189.67,200.86,188.55,202.25Z" transform="translate(-64.99 -0.07)"/><path d="M202.13,151l-12,4.79C192.37,153.26,198.17,150.9,202.13,151Z" transform="translate(-64.99 -0.07)"/><path d="M137.94,242c0-2,1.61-3.26,3.24-2.5a1.14,1.14,0,0,1,.67.91,1,1,0,0,1-.73,1.13A5.45,5.45,0,0,1,137.94,242Z" transform="translate(-64.99 -0.07)"/><path d="M146.39,213.07a13.68,13.68,0,0,1-3.42,3.25C143.51,214.33,143.2,212.19,146.39,213.07Z" transform="translate(-64.99 -0.07)"/><path d="M214.07,141.54c2.34-1.24,2.34-1.24,3.95.5C216.8,141.21,215.39,141.68,214.07,141.54Z" transform="translate(-64.99 -0.07)"/><path class="cls-1" d="M320.56,197.16c4.49,4.63,7.75,10,11,15.49,1.73-1.07,1.45-2.15.69-3.44a89.67,89.67,0,0,0-9-12.7c-0.77-.9-1.42-1.59-0.4-2.85,5.45-6.74,10.83-13.55,16.4-20.55,2.47,1.74,4.06,4.1,6,6.16,0.78,0.85,1.26,2.07,2.92,1.66,1.07-.27,1.47.88,1.84,1.71,2,4.47,6.12,7.68,7.55,12.53,0.16,0.54,1.13.8,1.65,1.28,1.83,1.67,3,3.66,2.35,6.23a4.3,4.3,0,0,0,.4,3.21,80.15,80.15,0,0,1,5.46,13.29,2.08,2.08,0,0,0,1.27,1.53c2.46,1.14,4.45,5.83,3,7.93-1.2,1.78-1,3.45-.84,5.22,0.3,4.38.71,8.75,1,13.13a4.85,4.85,0,0,1-.27,3c-1.38.34-2.65-.18-4-0.29s-2.52-.67-3.67,1c-0.86,1.26-2.49.24-3.44-.69-1.8-1.79-3.41-2.82-5.59-.4-1,1.13-2.47.23-3.75-.06-5.65-1.3-11.29-2.79-17.16-2.57-1.43.05-2.75,0.1-3.46-1.26s-1.94-1.59-3.28-1.82c-4.35-.74-8.62-1.34-13,0.33a6,6,0,0,1-7.61-2.25,3.41,3.41,0,0,0-2.58-1.39c-4.65-.63-9.3-1.33-14-2a5.85,5.85,0,0,0-5,1.72,56.4,56.4,0,0,1-7.85,5.93c-1.88,1.15-.69,2.76-1.33,4.15-1.39-.14-1.78-1.84-3.2-2.18-1.7.92-2.66,2.93-4.63,3.88-0.51-1.38-.91-2.62-1.42-3.82-1.06-2.47-.63-3.17,2.12-3.33,0.89-.05,1.83.21,2.66-0.33,0.16-3.64.08-3.71-3.07-2.89-2.55.66-2.92,0.35-3.49-3.1-1,.76-0.46,1.72-0.54,2.49s0,1.82,0,3c-2-.58-3.47-1.84-5.31-2.26-0.93-.22-0.75-1.07-0.64-1.79a12.57,12.57,0,0,1,1.88-4.41,2,2,0,0,0-.21-0.63c-2.74-3.06-2.75-3.07-5.56-.22-0.84.85-1.66,1.73-2.44,2.54,0.87,1.83,2.71,2.54,3.42,4.38-1.68.77-3.49,1.15-5,2.27-1.21-1.12-.35-2.61-1-4.1-1.78,1.15-3.6.18-5.39-.13a2.82,2.82,0,0,0-.47.53c-2.32,4.92-2,5.43,3.31,5.72a6.57,6.57,0,0,1,1.22.32l-2.18,5.69-4.51-4.16-4.92,4.72c-2.11-5.75,2.64-13.92,10.23-17.87,9.45-4.92,19-3.68,23.76,3.09-1,1-3.5-.56-3.63,2.15,1.38,0.55,2.52-.07,3.65-0.33,1.94-.44,3.83-1.44,5.84-0.31a0.7,0.7,0,0,0,.83-0.1c2.58-1.92,5.7-2.09,8.69-2.66a5.82,5.82,0,0,0,3.37-1.93c1.57-1.75,3.22-3.42,4.83-5.13a8.54,8.54,0,0,0,2.64-5,7.22,7.22,0,0,1,4.09-5.75c2.4-1.27,3.52-3.84,5.45-5.63a25.38,25.38,0,0,0,7.16-10.08c0.59-1.69,1.37-3.63,4.06-3.38C318.83,199.79,319.11,197.86,320.56,197.16Zm22.89,46.9c0.11-3.77-.84-7.26-1.78-10.73-0.25-.91-1.19-0.86-1.93-0.32C340.31,240.87,341.08,243.33,343.45,244.06Z" transform="translate(-64.99 -0.07)"/><path class="cls-1" d="M263.85,337.43l7.68-54.33a1.24,1.24,0,0,1,1.57.29,9.41,9.41,0,0,0,6.23,2.81,7.11,7.11,0,0,1,5.05,2.57,10.35,10.35,0,0,0,3.43,2.38c3.51,1.76,6.72,4.06,6.87,8.58,0,1.37,1,1.94,1.83,2.63,4.83,3.93,9.68,7.85,14.51,11.78a5.75,5.75,0,0,1,2.12,2.1C304.1,326.79,276.87,338.57,263.85,337.43Z" transform="translate(-64.99 -0.07)"/><path class="cls-1" d="M255.75,336.77c-0.27-6.77-.54-13.35-0.79-19.93q-0.46-11.78-.88-23.57a3.22,3.22,0,0,0-1.3-2.93,4.08,4.08,0,0,1-1-1.11c-1.54-2.24-1-3.33,1.86-3.57-0.25-3.45,1.41-6.11,3.68-8.65a4.82,4.82,0,0,1,2.19,4.84c-0.33,4.67-.53,9.35-0.79,14.11,5.56-3.25,5.89-13.56,4.7-19.62,2.64,1.26,3.61,3,3.2,6.06-1.5,11.23-2.67,22.51-4,33.76-0.14,1.15,0,2.37-1,3.41l1.26-20.89c-1.46,1.28-1.93,3.13-4,3.76-1,.32-0.65,1.79-0.71,2.78q-0.87,14.82-1.73,29.65C256.4,335.45,256.69,336.12,255.75,336.77Z" transform="translate(-64.99 -0.07)"/><path class="cls-1" d="M334,253.93c-6.1.31-12.2,0.56-18.29,0.94a123.41,123.41,0,0,0-17.9,2.39c-1.21.26-2.36,0.56-3.46-.42-0.94-.84-2.19-0.6-3.23-0.38-4.19.91-7.13-1.44-10.68-3.77,5.24-3.15,10.41-1.12,15.57-1.3-2.39-1.42-2.61-5.27-6.43-5-2.8.21-5.66-.89-8.5,0.5,1.45-3.27,2.07-3.61,5.1-3.37,5.68,0.46,11.3,1.31,17,1.47,3.71,0.1,7.55,1.4,11.39,1.86a56,56,0,0,1,9.48,1.7c-3.85-.22-7.69-0.44-11.54-0.65-1.15-.06-2.07-0.28-3.07,1.08-1.32,1.81-3.42.56-5.06-.06s-2.87-1-4.33-.05c1.6,2.47,3.92,3.06,6.74,3.14,8.26,0.24,16.52.74,24.78,1.15,0.8,0,1.6.14,2.39,0.21v0.53Z" transform="translate(-64.99 -0.07)"/><path class="cls-1" d="M257.1,229.62c-2.35-2.67-3.22-4.92-3.18-7.81,0.11-9.35,1.09-18.69.15-28a3.16,3.16,0,0,1,.37-2.06c2.34-3,2-6.58,1.73-10-0.24-3,.42-5.89.59-8.83,0-.76,0-1.77,1.25-1.7,1.06,0.06,1.3.89,1.39,1.72a23.1,23.1,0,0,1-.62,8.82,16,16,0,0,0,0,7.83,21.23,21.23,0,0,1,.2,9.36c-0.77,3.37.62,6.86,0.94,10.31,0.17,1.82.64,3.61-.26,5.4a2.31,2.31,0,0,0-.08,1.78C261.93,221.31,258,224.79,257.1,229.62Z" transform="translate(-64.99 -0.07)"/><path class="cls-1" d="M264.52,252.81c-0.34-2.89-1.82-4.55-4.67-4.91a2.13,2.13,0,0,1-1.4-.54c-1.53-2.47-3.37-1.65-5.21-.56a6.2,6.2,0,0,0-3.33,6.1c0.45,6.44,5.39,8.91,12,6-2.57,3.79-5.67,4.11-10.72,1-1,1.43-2.59,1.33-4.05,1.54s-3.09.3-2.91,2.57c0.06,0.8-.57,1.49-1.55,2.14a19.91,19.91,0,0,1-6.19-11.2c-0.1-.51-0.16-1.17.57-1.14,2.53,0.08,2.36-3.77,4.7-3.37,1.23,0.21,1.69,1.86,1.35,3.32-0.24,1.05-.87,2.06-0.42,3.43,1.32-.55,1.92-1.83,3.09-2.57,0.92-.07,1.55,1.19,2.76.82a12.2,12.2,0,0,1,.46-5.66,7.57,7.57,0,0,1,5.09-4.92c1.55-.42,3-0.71,2.8-3.16a8.5,8.5,0,0,0,4.24,3.23C264,246.06,265.33,249.27,264.52,252.81Z" transform="translate(-64.99 -0.07)"/><path class="cls-1" d="M287.07,220.45l16.69-14.81c0.33,1.13-.41,1.5-0.82,2-7.47,8.63-15,17.21-22.41,25.9-1.66,2-3.87,2.17-6,2.57-1.4.26-3.15-3.29-2.53-4.76a6.74,6.74,0,0,1,2.89-3.08,19.64,19.64,0,0,0,5.89-6.05,15.2,15.2,0,0,1,1.81-2.07C284,218.7,285.55,217.62,287.07,220.45Z" transform="translate(-64.99 -0.07)"/><path class="cls-1" d="M240.22,236.58c-2.3-.45-4.5-0.44-5.93-2.4-0.83-1.13-1.94-.84-3.06-0.79-3.72.17-5-.74-6-4.25-0.39-1.38-.65-2.79-1-4.17-0.61-2.32-1.55-4.37-3.79-5.68a6.64,6.64,0,0,1-3.1-4c-0.83-2.89-3.08-4.93-4.84-7.44,1.16,0,1.57.8,2.13,1.31,7.46,6.67,14.83,13.44,22.38,20C239.32,231.15,239.91,233.57,240.22,236.58Z" transform="translate(-64.99 -0.07)"/><path class="cls-1" d="M240.46,269.85c-0.15,2.51-.32,4.34-2,5.76q-14,12.12-27.92,24.28a0.71,0.71,0,0,1-1,.13c1.31-2.25,3.32-3.94,5-5.9s3.65-4.12,5.44-6.21c1.21-1.41,3.06-2.56,2-4.94a1.4,1.4,0,0,1,.31-1.14c2.45-3,4.61-6.35,7.52-8.82S236.62,270.69,240.46,269.85Z" transform="translate(-64.99 -0.07)"/><path class="cls-1" d="M304.7,302.25q-10.7-9.33-21.41-18.65c-1.47-1.28-2.62-2.78-5.2-1.69-2,.83-5.28-3.45-4.22-5.8s0.28-4.11.26-6.23c1.67-.65,2.81.11,3.79,1.21q13.58,15.34,27.13,30.7Z" transform="translate(-64.99 -0.07)"/><path class="cls-1" d="M257.08,91.67c-1.95-10.94-4.86-21.77-.15-32.48a0.59,0.59,0,0,1,.28.11c-0.2,3.65,2.54,5.61,4.59,7.95,1.26,1.44,2.22,2.75.13,4.29-0.84.62-.59,1.67-0.64,2.57-0.12,2-.15,4.07-0.36,6.09-0.11,1.06-.23,2.28-1.8,2.41-1.2.1-.89,1.22-1,1.93C257.72,86.9,257.42,89.28,257.08,91.67Z" transform="translate(-64.99 -0.07)"/><path class="cls-1" d="M251.21,192.07c0.35,4,1.09,8,.81,11.8a50.92,50.92,0,0,1-1.09,9.31c-1.22,4.66-1.87,9.7-.5,14.47-3.54-1.16-4.25-2.14-3.69-5.75a10,10,0,0,0-.15-4.52,4.54,4.54,0,0,1-.07-3c1.38-3.21.85-6.72,1.77-10a5.15,5.15,0,0,0,0-2.09c-0.07-.6-0.26-1.47,0-1.78C250.71,198.15,250.2,194.89,251.21,192.07Z" transform="translate(-64.99 -0.07)"/><path class="cls-1" d="M326.75,258.16l-23,3.1c-5.26.71-10.53,1.37-15.78,2.12-4.63.66-4.63,0.7-7.22-3.57,6.31,1.47,12.48-.1,18.68-0.39,9.07-.43,18.12-1.21,27.17-1.84Z" transform="translate(-64.99 -0.07)"/><path class="cls-1" d="M250.58,276.39c-1.23,1.8-.95,3.72-0.81,5.65,1,13.39,1.88,26.79,2.62,40.2-1.46-5.93-1.93-12-2.81-18-1-7.06-1.87-14.15-2.83-21.22C246.16,278.65,246.12,278.66,250.58,276.39Z" transform="translate(-64.99 -0.07)"/><path class="cls-1" d="M271.42,268.27c-2.75,2.78-6.82,4.16-11.53,4.15,0-1.46,1.31-2.81.73-4.21s-1.88-2.37-2.37-4c2-.78,4-1.13,5.76-2.46,1.06,0.87,2.15,1.61,2.55,2.93C267.27,267.1,268.51,268.68,271.42,268.27Z" transform="translate(-64.99 -0.07)"/><path class="cls-1" d="M188.23,247.81c12.55-1.41,25.11-2.73,37.64-4.31,3.05-.39,5.14.26,6.4,2.88-7.75-.63-15.56.5-23.4,0.84-6.9.3-13.79,0.78-20.68,1.19Z" transform="translate(-64.99 -0.07)"/><path class="cls-1" d="M263.16,228c1.61-3.48.74-6.7,0.57-9.88-0.61-11.49-1.33-23-1.82-34.47,1.23,4.94,1.48,10,2.09,15,0.93,7.69,1.58,15.42,2.68,23.08C267.13,224.86,266.11,226.56,263.16,228Z" transform="translate(-64.99 -0.07)"/><path class="cls-1" d="M266.05,260.09c1.7-1.91-.86-4.86,2.2-6.55,2,2.76,4.62,4,8.27,2.37,0,4.39-.75,8.28-3.88,11.82-0.75-2.58,0-4.85-.63-7C270.15,259.93,268.15,260.84,266.05,260.09Z" transform="translate(-64.99 -0.07)"/><path class="cls-1" d="M200.31,259.8c8.7,0,17.23.39,25.77,0.52,2.09,0,4.24.63,6.15-.95-1.9,4.47-2.06,4.57-6.25,4Z" transform="translate(-64.99 -0.07)"/><path class="cls-1" d="M252.37,269.3l2.59,2.94a19.84,19.84,0,0,1-9.44-3.57c1.63-.84,3.09,0,4.39-1-1.16-1.88-.09-3.52.74-5.29l4.54,1.6a1.85,1.85,0,0,1,1.46,2,1.42,1.42,0,0,1-1.67,1.39C253.09,266.95,253.49,268.9,252.37,269.3Z" transform="translate(-64.99 -0.07)"/><path d="M343.45,244.06c-2.37-.73-3.13-3.18-3.71-11,0.74-.54,1.68-0.6,1.93.32C342.61,236.79,343.56,240.29,343.45,244.06Z" transform="translate(-64.99 -0.07)"/></svg>