<svg id="Layer_1" data-name="Layer 1" xmlns="http://www.w3.org/2000/svg" width="521.81" height="523.57" viewBox="0 0 521.81 523.57"><defs><style>.cls-1{fill:#a37148;}.cls-2{opacity:0.1;}.cls-3,.cls-5{fill:none;stroke:#352a1b;}.cls-3{stroke-width:25px;}.cls-4{opacity:0.3;}.cls-5{stroke-width:5px;}.cls-6{fill:#352a1b;fill-opacity:0.3;}.cls-7{fill:#96b33c;}</style></defs><title>dirt</title><rect class="cls-1" x="4.09" y="7.1" width="512" height="512"/><g class="cls-2"><path class="cls-3" d="M0,213.59c2.05,0,5.92-.37,8.41,2.05,0.91,0.89,2.91,4.46,4.19,4.51,2.15,0.08,1.84-13.58,3.14-15.3,3.19-4.22,1.06,11.56,4.37,7.43,1-1.2,1.13-2.86,1.92-4.18,3.72-6.16,15.15.6,20-4.74,1.65-1.82,1.87-4.49,2.82-6.76a11.25,11.25,0,0,1,14.79-5.49l2.19-6.55a14.41,14.41,0,0,0,15.68-5.19c0.82-1.14,1.56-2.48,2.87-3a14,14,0,0,1,2.94-.35c5.13-.77,5.81-8.29,10-11.3,2.77-2,6.77-1.73,9.27-4s2.6-6,4.74-8.53c1.61-1.88,4.1-2.72,6.48-3.41a121.22,121.22,0,0,1,17.76-3.72,14,14,0,0,0,5.68-1.54,10.67,10.67,0,0,0,2.91-3,27.69,27.69,0,0,0,4.4-22c-0.82-3.54-2.28-7.54-.26-10.57,1-1.55,2.8-2.47,3.92-4,2.53-3.35,1.53-9.1,5.21-11.14,1.47-.81,3.29-0.71,4.84-1.37,3.65-1.55,4.56-6.58,7.93-8.67s7.74-.7,11-2.67c4-2.42,4.1-8.32,7.21-11.82,2.69-3,7.62-4.28,8.6-8.2,1.17-4.73-4.39-8.21-6.23-12.71-1-2.36-.87-5-1.62-7.45s-2.95-4.83-5.44-4.34l4.51-1.69c-2.7-1.69-2.15-5.79-.8-8.67s3.22-6,2.09-9c-0.68-1.81-2.42-3.25-2.47-5.19s3.28-3.26,2.48-5C184.57,4,185,3.16,185,0" transform="translate(4.09 7.1)"/><path class="cls-3" d="M139.4,140.48c-0.92.56-.22,2.13,0.83,2.39s2.12-.2,3.19-0.31c3.7-.39,6.42,3.17,8.8,6s6.66,5.44,9.52,3.07c-3,3.28-1.16,8.66,1.53,12.23s6.23,7.11,6.22,11.58c0,1.77-.58,3.66.23,5.24,1.13,2.19,4.31,2.55,5.65,4.62,1.75,2.7-.56,6.59,1,9.41,0.82,1.48,2.49,2.24,3.71,3.42,6.43,6.26-2,20.8,6.1,24.75,1.55,0.76,3.36.81,4.93,1.53,8.34,3.81,2.13,20.34,10.64,23.76,7.74,3.11,15-10.22,22.78-7.21,3.93,1.52,6.15,6.91,10.37,6.72,6.47-.3,7-13,13.49-12.4,5.7,0.5,5,10.34,10,13,6.11,3.14,13-7.11,19.23-4.27,2.06,0.94,3.53,3.2,5.78,3.41,1.74,0.16,3.29-1,4.87-1.72,6.07-2.86,13.17,0,19.25,2.87,0.51-7.92,8.76-14.43,16.58-13.07-4.26-4.13,1.12-11.3,6.79-13s12.58-1.83,16.09-6.6c1.21-1.65,1.84-3.68,3.08-5.3,4.53-5.91,13.83-3.54,20.56-.36s15.48,6.37,20.88,1.24l3.29,11.26,11.74-2.23a5.88,5.88,0,0,1,3-.05c1.58,0.54,2.38,2.25,3.2,3.71,4.74,8.45,16.29,12.29,25.15,8.36L441,245c8.73-.47,18.69-0.47,24.62,6,1.68,1.82,3,4.15,5.32,5.09,4.32,1.76,9.87-2.26,13.65.48,1.44,1,2.14,2.81,3.2,4.24a9.85,9.85,0,0,0,12.23,2.69c0.4,7.3,4.63,14.73,11.95,14.73" transform="translate(4.09 7.1)"/><path class="cls-3" d="M307,249.55c10,0.33,18.3,11,16.17,20.77,2.83-2.33,7.07.19,9.37,3s4.64,6.47,8.3,6.64c1.13,0,2.32-.25,3.36.18,3.72,1.52,0,8,2.63,11.06,2.44-.34,5-0.68,7.33,0s4.54,2.69,4.6,5.15c0,1.2-.43,2.39-0.21,3.57a6.19,6.19,0,0,0,2.05,3.12c5.44,5.32,11.69,9.73,17.91,14.12,3.43,2.42,8,4.91,11.54,2.68,2-1.23,3.07-3.66,5.24-4.48,3.48-1.31,6.84,2.3,10.53,2.83,3.53,0.51,6.91-1.89,10.48-1.84,5,0.08,8.71,5,9.76,9.88s0.26,10,.63,15c0.77,10.27,6.45,20,5.45,30.27-3.57,3.42.06,10.28-3.13,14-1.81,2.14-5.35,2.58-6.48,5.14a14.57,14.57,0,0,0-.59,3.58c-0.52,3.13-3,5.5-4.92,8s-3.5,6-2,8.75l-10.85.26a12.3,12.3,0,0,1-4.69,14.14c-1.39.9-3,1.54-4.12,2.76-2,2.13-1.91,5.38-2.89,8.11s-4.55,5.13-6.59,3.08a33.12,33.12,0,0,0,3.19,20.41l-5.44,1.88A47.9,47.9,0,0,1,384,484c-0.3,1.33-.64,2.77-0.07,4,1.31,2.79,6.12,2.32,7.38,5.14,0.84,1.87-.45,3.94-1.47,5.72-3.47,6-3.24,6-3.24,13.18" transform="translate(4.09 7.1)"/><path class="cls-3" d="M202.71,248.1l-6.43,0-3.72,9-6.18.24c0.17,4.84-.72,11.13-5.46,12.13-1.49.31-3.07,0-4.53,0.38-3,.84-4.26,4.44-4.22,7.54s0.93,6.22.32,9.26-3.65,6-6.55,4.88l-2.06,15.57c-0.31,2.35-.21,5.43,2,6.23a14.57,14.57,0,0,0-3.33,5.3c-0.56,2,0,4.52,1.77,5.59a10.74,10.74,0,0,1,2.06,1.13,4.18,4.18,0,0,1,1,2.09,54.4,54.4,0,0,1,.5,24.42,20.59,20.59,0,0,0,11.23,4.24l0.13,16,6.66,1a7,7,0,0,0,10.8,7.67,5.18,5.18,0,0,0,4.27,4.46" transform="translate(4.09 7.1)"/><path class="cls-3" d="M161.21,323.44a46.86,46.86,0,0,0-.84,11.71c-3.08,1.17-4.29,4.76-5.73,7.72s-4.56,6-7.59,4.7c1.15,1.12.88,3.13-.14,4.36a9.74,9.74,0,0,1-4.06,2.47l-15.44,6.21c0.53,4.11,1,8.45-.59,12.27s-6.21,6.7-10,5a19.24,19.24,0,0,0,.56,9,12.13,12.13,0,0,0-2.48,12.9,36.36,36.36,0,0,0-.21,21.66c2.87-1.43,5.35,2.59,5.9,5.75a67.12,67.12,0,0,1,.79,16.72l8.6-2.23c0,7.61,6.37,13.49,12.24,18.33a3.57,3.57,0,0,0,1.55.89,4.64,4.64,0,0,0,2.55-.7,8.12,8.12,0,0,1,9.75,3" transform="translate(4.09 7.1)"/><path class="cls-3" d="M357.16,206.61a14.86,14.86,0,0,0,1.18-8.54l8.51-3.41c-2.79-2.29-.35-7,2.86-8.64s7.21-2.08,9.58-4.8c4-4.56,1.14-12.92,5.8-16.8,2.84-2.36,7-1.75,10.62-2.45s7.32-4.89,4.92-7.7l13.75-.38a3.34,3.34,0,0,0,2.18-.58c1.24-1.11.25-3.09,0.11-4.75-0.27-3.17,3-5.57,6.18-6.07s6.38,0.19,9.52-.31,6.44-2.9,6.18-6.07a47.45,47.45,0,0,0,19.38,8,12.25,12.25,0,0,1,4,1.08c2.32,1.28,4.2,4.35,6.73,3.57,1.36-.42,2.12-1.83,3.25-2.69s1.52,0.12,3.34.75a13.71,13.71,0,0,1,1.41-7.43" transform="translate(4.09 7.1)"/><path class="cls-3" d="M248.7,234.24a8.42,8.42,0,0,0,8.82-5.79c1.36-4.63-1.35-10.3,1.59-14.12,0.91-1.19,2.28-2,3-3.33a7.39,7.39,0,0,0,.67-3.53,34.77,34.77,0,0,0-4-16.41c-1.13-2.13-2.53-4.49-1.77-6.78,1.06-3.19,5.52-3.89,7.19-6.8" transform="translate(4.09 7.1)"/><path class="cls-3" d="M316.4,0c-0.76,2.65,1.95,3.14,3.52,5.4,3.26,4.7,2.43,11,1.46,16.65,3.28-1,6.65,1.88,7.71,5.12s0.51,6.76.27,10.17a5.13,5.13,0,0,0,.37,2.83,7.79,7.79,0,0,0,2.2,2c5.17,4.17,3.93,12.23,2.2,18.65l12.64,0.69a6.55,6.55,0,0,1,3.48.85c3.13,2.2.81,8.11,3.88,10.39,2,1.49,4.88.31,7.34,0.76,3.82,0.7-6,8.23,3.11,9.07a50.39,50.39,0,0,0,8.7-15.27c0.62-1.75,1.21-3.64,2.63-4.85,1.74-1.5,4.28-1.58,6.33-2.61,3.17-1.59,5.59-5.53,9.1-4.95a6.66,6.66,0,0,1,2.78,1.36,21.07,21.07,0,0,1,8.15,19.41c3.64,1.07,7.67-1.13,11.29,0,4.41,1.41,5.85,6.81,6.61,11.38l18.37-.28c3.84,3.83-1,12.11,3.5,15.17,3,2.06,7.44-.61,10.7,1,1.42,0.72,2.35,2.14,3.67,3,3,2,7,.81,10.1-0.85s6.3-3.82,9.85-3.69c5.59,0.21,10.22,6.1,15.72,5,1.25-.24,2.42-0.84,3.68-1,3.41-.55,6.07,4.64,9.46,5.31a38.32,38.32,0,0,0,6.61.67" transform="translate(4.09 7.1)"/><path class="cls-3" d="M-0.07,400c6.87,0,12.25-8.72,16.54-5.12,2.09-3,3,6.85,6.44,5.56,0.59,3.24-4.59,6.64-2.65,9.31s5.58,4.4,8.6,3.1,4.48-5.08,7.59-6.16a21.3,21.3,0,0,1,3.68-.57c6.28-1,10.12-9.22,6.85-14.68-0.92-1.55-2.34-3.26-1.63-4.92a7,7,0,0,1,1.29-1.64c2.16-2.53,1.88-6.27,1.48-9.58l-3.35-27.81c-0.42-3.5-.37-7.94,2.8-9.48a8.72,8.72,0,0,0,2.22-1.07c2-1.82-.64-4.9-3-6.22,3.22-1.58,2.81-6.28,1.61-9.66s-2.53-7.6,0-10.17A11.37,11.37,0,0,1,51.14,309,22.18,22.18,0,0,0,62.28,291.2c4.36,0,6.08-5.57,6.5-9.9" transform="translate(4.09 7.1)"/><path class="cls-3" d="M0,26.69c3.16,0,11-3.28,11,0,2.45,0.21-2.31,7.11.1,6.6,0.07,3.74,6.43,1.09,6.5,4.83C18.89,37,10.94,45,11.76,46.47s-2.1,3.26-1.25,4.74a5.93,5.93,0,0,0,9.08,1l0.35,10.86a12.59,12.59,0,0,0,10.9-4c6.53,2,2.08,5.73,5.06,6.64s6.4,1.05,8.67,3.19a7.47,7.47,0,0,0,2.34,2c3.62,1.28,4.73-6,8.52-6.6,3.26-.51,5.28,4.33,8.58,4.31,2.34,0,4.14-2.53,6.48-2.42,1,0,2,.59,3,0.59,2.66,0,3.72-3.33,4.7-5.81,3.07-7.75,13.18-11.79,20.75-8.28-1.66-2.92.8-6.84,4-7.77s6.67,0.28,9.65,1.84c0.35-5.27,6.3-9.38,11.36-7.84-1.35-4.44-2.49-9.86.69-13.24a5.85,5.85,0,0,0,1.38-1.7c0.83-2.11-1.94-3.74-4.14-4.33-3.7-1-6.11-.23-9.81-1.23-2,2.63-2.56-.8-2.51-4.6-2.17-1.87-2.62-3-4.48-4.26,0-3.75.2-9.53,0.2-9.53" transform="translate(4.09 7.1)"/><path class="cls-3" d="M267.1,511.9c0-3.1,1.07-6.53,2.9-7.93s7.08-4.63,7.33-6.93c0.5-4.55-10.15-.22-10.73-4.76-0.13-1,.15-2,0-3a6.29,6.29,0,0,0-1.72-2.78l-5.65-6.32,4-1.82c-0.24-2.34-3.26-3-5.43-3.86-4.45-1.87-5.87-5.38-5.77-9.77l9.09-.15a5.37,5.37,0,0,1,5.17-6.56c1.32,0.07,2.76.62,3.86-.1,2-1.28.65-5.08,2.7-6.24,1.08-.61,2.45,0,3.65-0.33,2.44-.58,2.71-3.84,3.57-6.19a8.67,8.67,0,0,1,11.27-4.7" transform="translate(4.09 7.1)"/><path class="cls-3" d="M251.91,464.14l-4.05-.37c2.1-3.64,3.71-9.24,0-11.2a7.84,7.84,0,0,1-1.88-1c-1-.94-0.74-2.54-1-3.88-0.78-3.45-5-4.59-8.22-6s-6.47-5.45-4-8c1.18-1.25,3.34-1.52,4-3.1,1-2.28-2.11-4.55-1.8-7,0.27-2.16,2.92-3.1,5.09-3.07s4.52,0.53,6.41-.55c4-2.27,2-8.44,3.76-12.67,1.28-3.14,4.67-5,8-5.45s6.76,0.33,10.06,1.08l0.28-14.35a4.7,4.7,0,0,1,.54-2.55c1.4-2.11,4.62-.76,7.16-0.69,4.86,0.13,7.93-7,4.5-10.45a34.58,34.58,0,0,0,12.26-1.2,27.75,27.75,0,0,0-1.58-13.48,8.27,8.27,0,0,0,6.89-3.28" transform="translate(4.09 7.1)"/><path class="cls-3" d="M220,201.18a14.46,14.46,0,0,0,1.95-5.34c0.45-1.85,1.11-3.79,2.61-5s4.09-1.12,5,.56a23.32,23.32,0,0,0,1.27-8.51l4,0.61c1.07-2.35,4.23-3.11,6.69-2.33s4.39,2.67,6.21,4.5a26.8,26.8,0,0,0,3-6.49l5,2.36c0.61-2.65,4.31-3.52,6.7-2.2s3.67,4,4.67,6.5L269,182.1a19.83,19.83,0,0,1,4.09,1.56l2.79-5.69a4.59,4.59,0,0,1,3,1.53,31.62,31.62,0,0,1,4.35-6,23.21,23.21,0,0,1,4.86,2.64,34.16,34.16,0,0,1,1.12-9.08c1.72,1,2.34-.67,3.45-3" transform="translate(4.09 7.1)"/></g><g class="cls-4"><path class="cls-5" d="M0,213.59c2.05,0,5.92-.37,8.41,2.05,0.91,0.89,2.91,4.46,4.19,4.51,2.15,0.08,1.84-13.58,3.14-15.3,3.19-4.22,1.06,11.56,4.37,7.43,1-1.2,1.13-2.86,1.92-4.18,3.72-6.16,15.15.6,20-4.74,1.65-1.82,1.87-4.49,2.82-6.76a11.25,11.25,0,0,1,14.79-5.49l2.19-6.55a14.41,14.41,0,0,0,15.68-5.19c0.82-1.14,1.56-2.48,2.87-3a14,14,0,0,1,2.94-.35c5.13-.77,5.81-8.29,10-11.3,2.77-2,6.77-1.73,9.27-4s2.6-6,4.74-8.53c1.61-1.88,4.1-2.72,6.48-3.41a121.22,121.22,0,0,1,17.76-3.72,14,14,0,0,0,5.68-1.54,10.67,10.67,0,0,0,2.91-3,27.69,27.69,0,0,0,4.4-22c-0.82-3.54-2.28-7.54-.26-10.57,1-1.55,2.8-2.47,3.92-4,2.53-3.35,1.53-9.1,5.21-11.14,1.47-.81,3.29-0.71,4.84-1.37,3.65-1.55,4.56-6.58,7.93-8.67s7.74-.7,11-2.67c4-2.42,4.1-8.32,7.21-11.82,2.69-3,7.62-4.28,8.6-8.2,1.17-4.73-4.39-8.21-6.23-12.71-1-2.36-.87-5-1.62-7.45s-2.95-4.83-5.44-4.34l4.51-1.69c-2.7-1.69-2.15-5.79-.8-8.67s3.22-6,2.09-9c-0.68-1.81-2.42-3.25-2.47-5.19s3.28-3.26,2.48-5C184.57,4,185,3.16,185,0" transform="translate(4.09 7.1)"/><path class="cls-5" d="M139.4,140.48c-0.92.56-.22,2.13,0.83,2.39s2.12-.2,3.19-0.31c3.7-.39,6.42,3.17,8.8,6s6.66,5.44,9.52,3.07c-3,3.28-1.16,8.66,1.53,12.23s6.23,7.11,6.22,11.58c0,1.77-.58,3.66.23,5.24,1.13,2.19,4.31,2.55,5.65,4.62,1.75,2.7-.56,6.59,1,9.41,0.82,1.48,2.49,2.24,3.71,3.42,6.43,6.26-2,20.8,6.1,24.75,1.55,0.76,3.36.81,4.93,1.53,8.34,3.81,2.13,20.34,10.64,23.76,7.74,3.11,15-10.22,22.78-7.21,3.93,1.52,6.15,6.91,10.37,6.72,6.47-.3,7-13,13.49-12.4,5.7,0.5,5,10.34,10,13,6.11,3.14,13-7.11,19.23-4.27,2.06,0.94,3.53,3.2,5.78,3.41,1.74,0.16,3.29-1,4.87-1.72,6.07-2.86,13.17,0,19.25,2.87,0.51-7.92,8.76-14.43,16.58-13.07-4.26-4.13,1.12-11.3,6.79-13s12.58-1.83,16.09-6.6c1.21-1.65,1.84-3.68,3.08-5.3,4.53-5.91,13.83-3.54,20.56-.36s15.48,6.37,20.88,1.24l3.29,11.26,11.74-2.23a5.88,5.88,0,0,1,3-.05c1.58,0.54,2.38,2.25,3.2,3.71,4.74,8.45,16.29,12.29,25.15,8.36L441,245c8.73-.47,18.69-0.47,24.62,6,1.68,1.82,3,4.15,5.32,5.09,4.32,1.76,9.87-2.26,13.65.48,1.44,1,2.14,2.81,3.2,4.24a9.85,9.85,0,0,0,12.23,2.69c0.4,7.3,4.63,14.73,11.95,14.73" transform="translate(4.09 7.1)"/><path class="cls-5" d="M307,249.55c10,0.33,18.3,11,16.17,20.77,2.83-2.33,7.07.19,9.37,3s4.64,6.47,8.3,6.64c1.13,0,2.32-.25,3.36.18,3.72,1.52,0,8,2.63,11.06,2.44-.34,5-0.68,7.33,0s4.54,2.69,4.6,5.15c0,1.2-.43,2.39-0.21,3.57a6.19,6.19,0,0,0,2.05,3.12c5.44,5.32,11.69,9.73,17.91,14.12,3.43,2.42,8,4.91,11.54,2.68,2-1.23,3.07-3.66,5.24-4.48,3.48-1.31,6.84,2.3,10.53,2.83,3.53,0.51,6.91-1.89,10.48-1.84,5,0.08,8.71,5,9.76,9.88s0.26,10,.63,15c0.77,10.27,6.45,20,5.45,30.27-3.57,3.42.06,10.28-3.13,14-1.81,2.14-5.35,2.58-6.48,5.14a14.57,14.57,0,0,0-.59,3.58c-0.52,3.13-3,5.5-4.92,8s-3.5,6-2,8.75l-10.85.26a12.3,12.3,0,0,1-4.69,14.14c-1.39.9-3,1.54-4.12,2.76-2,2.13-1.91,5.38-2.89,8.11s-4.55,5.13-6.59,3.08a33.12,33.12,0,0,0,3.19,20.41l-5.44,1.88A47.9,47.9,0,0,1,384,484c-0.3,1.33-.64,2.77-0.07,4,1.31,2.79,6.12,2.32,7.38,5.14,0.84,1.87-.45,3.94-1.47,5.72-3.47,6-3.24,6-3.24,13.18" transform="translate(4.09 7.1)"/><path class="cls-5" d="M202.71,248.1l-6.43,0-3.72,9-6.18.24c0.17,4.84-.72,11.13-5.46,12.13-1.49.31-3.07,0-4.53,0.38-3,.84-4.26,4.44-4.22,7.54s0.93,6.22.32,9.26-3.65,6-6.55,4.88l-2.06,15.57c-0.31,2.35-.21,5.43,2,6.23a14.57,14.57,0,0,0-3.33,5.3c-0.56,2,0,4.52,1.77,5.59a10.74,10.74,0,0,1,2.06,1.13,4.18,4.18,0,0,1,1,2.09,54.4,54.4,0,0,1,.5,24.42,20.59,20.59,0,0,0,11.23,4.24l0.13,16,6.66,1a7,7,0,0,0,10.8,7.67,5.18,5.18,0,0,0,4.27,4.46" transform="translate(4.09 7.1)"/><path class="cls-5" d="M161.21,323.44a46.86,46.86,0,0,0-.84,11.71c-3.08,1.17-4.29,4.76-5.73,7.72s-4.56,6-7.59,4.7c1.15,1.12.88,3.13-.14,4.36a9.74,9.74,0,0,1-4.06,2.47l-15.44,6.21c0.53,4.11,1,8.45-.59,12.27s-6.21,6.7-10,5a19.24,19.24,0,0,0,.56,9,12.13,12.13,0,0,0-2.48,12.9,36.36,36.36,0,0,0-.21,21.66c2.87-1.43,5.35,2.59,5.9,5.75a67.12,67.12,0,0,1,.79,16.72l8.6-2.23c0,7.61,6.37,13.49,12.24,18.33a3.57,3.57,0,0,0,1.55.89,4.64,4.64,0,0,0,2.55-.7,8.12,8.12,0,0,1,9.75,3" transform="translate(4.09 7.1)"/><path class="cls-5" d="M357.16,206.61a14.86,14.86,0,0,0,1.18-8.54l8.51-3.41c-2.79-2.29-.35-7,2.86-8.64s7.21-2.08,9.58-4.8c4-4.56,1.14-12.92,5.8-16.8,2.84-2.36,7-1.75,10.62-2.45s7.32-4.89,4.92-7.7l13.75-.38a3.34,3.34,0,0,0,2.18-.58c1.24-1.11.25-3.09,0.11-4.75-0.27-3.17,3-5.57,6.18-6.07s6.38,0.19,9.52-.31,6.44-2.9,6.18-6.07a47.45,47.45,0,0,0,19.38,8,12.25,12.25,0,0,1,4,1.08c2.32,1.28,4.2,4.35,6.73,3.57,1.36-.42,2.12-1.83,3.25-2.69s1.52,0.12,3.34.75a13.71,13.71,0,0,1,1.41-7.43" transform="translate(4.09 7.1)"/><path class="cls-5" d="M248.7,234.24a8.42,8.42,0,0,0,8.82-5.79c1.36-4.63-1.35-10.3,1.59-14.12,0.91-1.19,2.28-2,3-3.33a7.39,7.39,0,0,0,.67-3.53,34.77,34.77,0,0,0-4-16.41c-1.13-2.13-2.53-4.49-1.77-6.78,1.06-3.19,5.52-3.89,7.19-6.8" transform="translate(4.09 7.1)"/><path class="cls-5" d="M316.4,0c-0.76,2.65,1.95,3.14,3.52,5.4,3.26,4.7,2.43,11,1.46,16.65,3.28-1,6.65,1.88,7.71,5.12s0.51,6.76.27,10.17a5.13,5.13,0,0,0,.37,2.83,7.79,7.79,0,0,0,2.2,2c5.17,4.17,3.93,12.23,2.2,18.65l12.64,0.69a6.55,6.55,0,0,1,3.48.85c3.13,2.2.81,8.11,3.88,10.39,2,1.49,4.88.31,7.34,0.76,3.82,0.7-6,8.23,3.11,9.07a50.39,50.39,0,0,0,8.7-15.27c0.62-1.75,1.21-3.64,2.63-4.85,1.74-1.5,4.28-1.58,6.33-2.61,3.17-1.59,5.59-5.53,9.1-4.95a6.66,6.66,0,0,1,2.78,1.36,21.07,21.07,0,0,1,8.15,19.41c3.64,1.07,7.67-1.13,11.29,0,4.41,1.41,5.85,6.81,6.61,11.38l18.37-.28c3.84,3.83-1,12.11,3.5,15.17,3,2.06,7.44-.61,10.7,1,1.42,0.72,2.35,2.14,3.67,3,3,2,7,.81,10.1-0.85s6.3-3.82,9.85-3.69c5.59,0.21,10.22,6.1,15.72,5,1.25-.24,2.42-0.84,3.68-1,3.41-.55,6.07,4.64,9.46,5.31a38.32,38.32,0,0,0,6.61.67" transform="translate(4.09 7.1)"/><path class="cls-5" d="M-0.07,400c6.87,0,12.25-8.72,16.54-5.12,2.09-3,3,6.85,6.44,5.56,0.59,3.24-4.59,6.64-2.65,9.31s5.58,4.4,8.6,3.1,4.48-5.08,7.59-6.16a21.3,21.3,0,0,1,3.68-.57c6.28-1,10.12-9.22,6.85-14.68-0.92-1.55-2.34-3.26-1.63-4.92a7,7,0,0,1,1.29-1.64c2.16-2.53,1.88-6.27,1.48-9.58l-3.35-27.81c-0.42-3.5-.37-7.94,2.8-9.48a8.72,8.72,0,0,0,2.22-1.07c2-1.82-.64-4.9-3-6.22,3.22-1.58,2.81-6.28,1.61-9.66s-2.53-7.6,0-10.17A11.37,11.37,0,0,1,51.14,309,22.18,22.18,0,0,0,62.28,291.2c4.36,0,6.08-5.57,6.5-9.9" transform="translate(4.09 7.1)"/><path class="cls-5" d="M0,26.69c3.16,0,11-3.28,11,0,2.45,0.21-2.31,7.11.1,6.6,0.07,3.74,6.43,1.09,6.5,4.83C18.89,37,10.94,45,11.76,46.47s-2.1,3.26-1.25,4.74a5.93,5.93,0,0,0,9.08,1l0.35,10.86a12.59,12.59,0,0,0,10.9-4c6.53,2,2.08,5.73,5.06,6.64s6.4,1.05,8.67,3.19a7.47,7.47,0,0,0,2.34,2c3.62,1.28,4.73-6,8.52-6.6,3.26-.51,5.28,4.33,8.58,4.31,2.34,0,4.14-2.53,6.48-2.42,1,0,2,.59,3,0.59,2.66,0,3.72-3.33,4.7-5.81,3.07-7.75,13.18-11.79,20.75-8.28-1.66-2.92.8-6.84,4-7.77s6.67,0.28,9.65,1.84c0.35-5.27,6.3-9.38,11.36-7.84-1.35-4.44-2.49-9.86.69-13.24a5.85,5.85,0,0,0,1.38-1.7c0.83-2.11-1.94-3.74-4.14-4.33-3.7-1-6.11-.23-9.81-1.23-2,2.63-2.56-.8-2.51-4.6-2.17-1.87-2.62-3-4.48-4.26,0-3.75.2-9.53,0.2-9.53" transform="translate(4.09 7.1)"/><path class="cls-5" d="M267.1,511.9c0-3.1,1.07-6.53,2.9-7.93s7.08-4.63,7.33-6.93c0.5-4.55-10.15-.22-10.73-4.76-0.13-1,.15-2,0-3a6.29,6.29,0,0,0-1.72-2.78l-5.65-6.32,4-1.82c-0.24-2.34-3.26-3-5.43-3.86-4.45-1.87-5.87-5.38-5.77-9.77l9.09-.15a5.37,5.37,0,0,1,5.17-6.56c1.32,0.07,2.76.62,3.86-.1,2-1.28.65-5.08,2.7-6.24,1.08-.61,2.45,0,3.65-0.33,2.44-.58,2.71-3.84,3.57-6.19a8.67,8.67,0,0,1,11.27-4.7" transform="translate(4.09 7.1)"/><path class="cls-5" d="M251.91,464.14l-4.05-.37c2.1-3.64,3.71-9.24,0-11.2a7.84,7.84,0,0,1-1.88-1c-1-.94-0.74-2.54-1-3.88-0.78-3.45-5-4.59-8.22-6s-6.47-5.45-4-8c1.18-1.25,3.34-1.52,4-3.1,1-2.28-2.11-4.55-1.8-7,0.27-2.16,2.92-3.1,5.09-3.07s4.52,0.53,6.41-.55c4-2.27,2-8.44,3.76-12.67,1.28-3.14,4.67-5,8-5.45s6.76,0.33,10.06,1.08l0.28-14.35a4.7,4.7,0,0,1,.54-2.55c1.4-2.11,4.62-.76,7.16-0.69,4.86,0.13,7.93-7,4.5-10.45a34.58,34.58,0,0,0,12.26-1.2,27.75,27.75,0,0,0-1.58-13.48,8.27,8.27,0,0,0,6.89-3.28" transform="translate(4.09 7.1)"/><path class="cls-5" d="M220,201.18a14.46,14.46,0,0,0,1.95-5.34c0.45-1.85,1.11-3.79,2.61-5s4.09-1.12,5,.56a23.32,23.32,0,0,0,1.27-8.51l4,0.61c1.07-2.35,4.23-3.11,6.69-2.33s4.39,2.67,6.21,4.5a26.8,26.8,0,0,0,3-6.49l5,2.36c0.61-2.65,4.31-3.52,6.7-2.2s3.67,4,4.67,6.5L269,182.1a19.83,19.83,0,0,1,4.09,1.56l2.79-5.69a4.59,4.59,0,0,1,3,1.53,31.62,31.62,0,0,1,4.35-6,23.21,23.21,0,0,1,4.86,2.64,34.16,34.16,0,0,1,1.12-9.08c1.72,1,2.34-.67,3.45-3" transform="translate(4.09 7.1)"/></g><path class="cls-6" d="M186.06,116.05l0.11,3.47h4.1a4.94,4.94,0,0,0-3.48-5.74" transform="translate(4.09 7.1)"/><path class="cls-6" d="M219.34,116.53a3.87,3.87,0,0,0,5,2l-0.2-2.43a4,4,0,0,0-5.78-.56" transform="translate(4.09 7.1)"/><path class="cls-6" d="M211.21,136.69a9.82,9.82,0,0,0,5.05-.48c1.54-.74,2.66-2.66,1.91-4.2a7.4,7.4,0,0,0-6.14-1.52l-1,4.89" transform="translate(4.09 7.1)"/><path class="cls-6" d="M281.81,211.21l0.12,1.49a8.15,8.15,0,0,0,4.47,1.08,3.43,3.43,0,0,0-4-5.06l0,1.41" transform="translate(4.09 7.1)"/><path class="cls-6" d="M307.71,206.6a3.7,3.7,0,0,0,4.52,1.22,3.88,3.88,0,0,1,.58-1.82l-3.11-.81" transform="translate(4.09 7.1)"/><path class="cls-6" d="M297.36,222.37a5,5,0,0,0,2.5-.71,1.73,1.73,0,0,0,.56-2.3c-1.32-.84-3.28.91-2.61,2.32" transform="translate(4.09 7.1)"/><path class="cls-6" d="M297.63,211.48a4.12,4.12,0,0,0,3.88,1.25,2.44,2.44,0,0,0-.53-2.89,1.6,1.6,0,0,0-2.49.83" transform="translate(4.09 7.1)"/><path class="cls-6" d="M196.45,308.66a4.45,4.45,0,0,0,5.94,2.15,3.51,3.51,0,1,0-5.69-3.37" transform="translate(4.09 7.1)"/><path class="cls-6" d="M208.94,279.73a2.17,2.17,0,1,0,3.79-2.13l-2-.13" transform="translate(4.09 7.1)"/><path class="cls-6" d="M336.41,339.55l-2.78.65c1.16,0.5,1.23,2.21.59,3.3s-1.72,1.86-2.44,2.9c-2.7,3.94.91,9.05,4.3,12.43a21.15,21.15,0,0,0,13.82,2.24c-1.22-5.56,6.68-8.7,8.57-14.07,1.66-4.71-2.19-10-7-11.35s-10,.45-14.19,3.12" transform="translate(4.09 7.1)"/><path class="cls-6" d="M363.17,351.93c-1.46,1.61-3,3.32-3.48,5.43s0.29,4.72,2.32,5.5c2.26,0.87,4.83-1,5.62-3.28s0.31-4.8-.18-7.18l-4.06-.11" transform="translate(4.09 7.1)"/><path class="cls-6" d="M99.7,192.54a25,25,0,0,0-.64,7.72c1.33,0.58,2.88,1.16,4.19.53,1.59-.78,1.9-3.06,1.1-4.63a9.55,9.55,0,0,0-3.89-3.49" transform="translate(4.09 7.1)"/><path class="cls-6" d="M125.95,167.58a1.7,1.7,0,1,0,3,1.62,2.06,2.06,0,0,0-1.05-2.58,3.07,3.07,0,0,0-2.94.32" transform="translate(4.09 7.1)"/><path class="cls-6" d="M423.06,176.91c-1.93.17-2.72,2.9-1.68,4.53s3.12,2.25,5,2.41a4.93,4.93,0,0,0,3.43-.69c1.67-1.28,1.33-4.13-.27-5.5s-3.94-1.51-6-1.07" transform="translate(4.09 7.1)"/><path class="cls-6" d="M423.57,190.88l2.1-.06a1.76,1.76,0,0,0-1.31-2.15,5.1,5.1,0,0,0-2.8.28,1.67,1.67,0,0,0,.45,1.89" transform="translate(4.09 7.1)"/><path class="cls-6" d="M433.64,185c1.07,1.67,3.94,2.51,4.84.75,0.62-1.22-.35-2.77-1.63-3.27a7.45,7.45,0,0,0-4.06,0l-0.13,3" transform="translate(4.09 7.1)"/><path class="cls-6" d="M333.66,115a1.33,1.33,0,0,0-1.48-.44L332,120.25l-5.77.11,0,7.92c2.44-.51,5,0.36,7.46.24s5.34-2,4.83-4.45l4.51-.19c0.75-3.35,1.07-7.71-1.94-9.36a8,8,0,0,0-2.8-.73l-5.14-.7" transform="translate(4.09 7.1)"/><path class="cls-6" d="M102.7,332.59l0.7,1.39a4,4,0,0,0,5.57-5l-5.73-.1" transform="translate(4.09 7.1)"/><path class="cls-6" d="M155,399.62c-0.43,3,3.43,5.67,6.1,4.18l0-4a7.68,7.68,0,0,0-6.87-.8" transform="translate(4.09 7.1)"/><path class="cls-6" d="M149,419.13a4.06,4.06,0,0,0,3.5.48,4.54,4.54,0,0,0,.51-4.07,12.65,12.65,0,0,0-4.7.25" transform="translate(4.09 7.1)"/><path class="cls-6" d="M180.25,406.36a2.72,2.72,0,1,0,4.8-2.14c-1.27-1.56-3.78-1.24-5.55-.28" transform="translate(4.09 7.1)"/><path class="cls-6" d="M376,254.62a55.86,55.86,0,0,0,10.78,2.55l0-3.57a18,18,0,0,1-9.35-1.08" transform="translate(4.09 7.1)"/><path class="cls-6" d="M396.1,263.64l5.64-.11V258l-7.62,0a5.61,5.61,0,0,0,4.83,7.27" transform="translate(4.09 7.1)"/><path class="cls-6" d="M114.83,99.35c-0.19,1.46,1.79,2.52,3.09,1.82a2.45,2.45,0,1,0-3.6-2.34" transform="translate(4.09 7.1)"/><path class="cls-7" d="M236.86,128.23C238,122.71,239,116.07,235.2,112a17.92,17.92,0,0,0-15.35-5.41c1.85-4.47,7.51-6.34,12.27-5.44s8.82,3.88,12.7,6.77a14,14,0,0,1,2.75,2.46c2.76,3.52,1.59,8.6.28,12.88,4.12-3.47,7-8.7,6.69-14.08s-4.34-10.6-9.67-11.38c0.87-1.36,3-1,4.41-.3a18.07,18.07,0,0,1,6.11,27.64c4.23-6.65,9.65-14,17.52-14.45,3.62-.19,7.11,1.2,10.46,2.6s6.79,2.87,10.41,2.84,7.5-2,8.61-5.41a22.61,22.61,0,0,1-3.87,9,7.25,7.25,0,0,1-2.53,2.4c-1.69.83-3.72,0.47-5.5-.14-6.2-2.14-12.15-7.19-18.48-5.47-3.66,1-6.41,4.19-7.84,7.71s-3.6,5.29-3.9,9.07c0-3.93,4.93-5.57,8.81-6.25a8.69,8.69,0,0,1,9.38,5.47,4.44,4.44,0,0,0-5,.62c-1.37,1.27-1.8,3.3-3.09,4.66-2.87,3-10.91,5.4-14.59,3.45C249.09,137.71,243.51,131.76,236.86,128.23Z" transform="translate(4.09 7.1)"/><path class="cls-7" d="M171.27,353.74c1-4.44-2.76-9.68-6.25-12.6A57.14,57.14,0,0,0,139.71,329c3.95-5.38,12.05-5.42,18.41-3.39,9.71,3.09,18.89,11.06,19.24,21.24,4.77-9.8,2.59-21.4.31-32.06a23.71,23.71,0,0,1,11.13,18.78,29.06,29.06,0,0,1,11.94-16.27c-2,2.6-1.6,6.19-1.55,9.44s-0.65,7.09-3.58,8.51a80.84,80.84,0,0,0,16.54-14l-1,14.14c-0.27,3.68-1.7,6-3.65,9.16s-9.66,1.59-8.3,5.2c2.67-3.24,8.32-2.43,12.44-1.64s6.87,1.28,10.45,3.46c-6.8,5.38-18.07,2.07-24.24,8.16A22.59,22.59,0,0,1,211,362.88a4.87,4.87,0,0,1,1.93,1.79c1.26,2.46-1.62,5-4.23,5.92a22.45,22.45,0,0,1-13.57.24C185.7,368,179.31,359.44,171.27,353.74Z" transform="translate(4.09 7.1)"/><path class="cls-7" d="M294.42,291.63c5.27-4.15,4.3-13.8-1.69-16.82,1.59-3,6.32-2.9,8.86-.61s3.44,5.82,4.22,9.15a19.78,19.78,0,0,1,23.65-2.91,23.53,23.53,0,0,0-10.65,12.81c0.39-2.94,3.93-4.63,6.84-4s5.17,2.85,7,5.18,3.48,4.89,5.87,6.65A109.33,109.33,0,0,1,324,299.7c2.05,2.15,4.2,5.48,2.31,7.78-3.44-2.93-7.21-6-11.72-6.28-1.52-.09-3.06.14-4.58,0C304.29,300.54,296.92,296.84,294.42,291.63Z" transform="translate(4.09 7.1)"/><path class="cls-7" d="M412,290.83c4.47-5.29,3.87-16.92-2.83-18.66,4.45,0.47,9,1.44,12.61,4.09s6,7.33,4.86,11.65c3.68-5.71-1.8-19,1.31-21.76,1.54,5.63,5.82,11.35,5.84,16.7l11.93-12c-0.84,3.38,1.11,6.78,1.48,10.24,0.6,5.57-2.86,10.67-6.16,15.19,2.52-3.16,7.36-3.59,11.11-2.1s6.67,4.5,9.47,7.41a13.25,13.25,0,0,0-7-1.53c-2.4.29-4.78,1.94-5.24,4.32-0.64,3.32,2,8-1.07,9.45C436.35,307.95,421.05,300.69,412,290.83Z" transform="translate(4.09 7.1)"/></svg>