<svg id="Layer_1" data-name="Layer 1" xmlns="http://www.w3.org/2000/svg" width="512" height="512" viewBox="0 0 512 512"><defs><style>.cls-1{fill:#fee7a8;}.cls-2{fill:#efca72;}.cls-3{fill:none;}.cls-4{fill:#fff1b4;}.cls-5{fill:#fbdb94;}</style></defs><title>sand</title><rect class="cls-1" width="512" height="512"/><path class="cls-2" d="M447.23,78.52a9.44,9.44,0,0,1,4.38.25,3.24,3.24,0,0,1,2.2,3.42c-0.55,2.52-4.18,2.38-6.65,1.63l1.48-4.25Z"/><path class="cls-2" d="M429.37,104.37c0.39-.29.47,0.75,0,0.71a1.18,1.18,0,0,1-.8-1.09l-0.62-3a4.91,4.91,0,0,1,6.68,2.62,1.5,1.5,0,0,1-.1,1.45c-0.33.38-1.14,0.24-1.13-.27Z"/><path class="cls-2" d="M452.78,112.36a4.34,4.34,0,0,0,.12-4.45c-0.48-2-3.65-2.37-5.05-.82s-1.25,4-.34,5.92a5,5,0,0,0,3.68,3c1.66,0.17,3.43-1.44,2.94-3Z"/><path class="cls-2" d="M444.05,90.91A7,7,0,0,1,439,95.45a6.07,6.07,0,0,1,0-4.13c0.63-1.26,2.5-1.95,3.49-.94Z"/><path class="cls-2" d="M498.08,213.48a1.81,1.81,0,0,1,1.23,1.42,1.13,1.13,0,0,1-1.75.68,2,2,0,0,1-.58-2.08,4.13,4.13,0,0,1,2.18.24Z"/><path class="cls-2" d="M351.13,130l3.8,2.24a1.1,1.1,0,0,1,.66,1.55c-0.33,1.21-.85,2.62-2.07,2.91a0.8,0.8,0,0,1-.62-0.06,1,1,0,0,1-.36-0.63,6.1,6.1,0,0,1-.27-2.51,2.51,2.51,0,0,1,1.4-2Z"/><path class="cls-2" d="M319.83,124.4a3.89,3.89,0,0,1,.2,2.75,1.39,1.39,0,1,1-.66-2.31Z"/><path class="cls-2" d="M296.45,110.84a2.43,2.43,0,0,1,1.11.3c1,0.67.6,2.24,0.06,3.34-0.51-.3-1.18-0.06-1.74-0.27a1.53,1.53,0,0,1-.69-1.94C295.45,111.56,295,110.7,296.45,110.84Z"/><path class="cls-2" d="M316,109.35a2.74,2.74,0,0,1-.38,4,0.76,0.76,0,0,1-.51.18,0.92,0.92,0,0,1-.54-1c0-1.1.2-2.56,1.29-2.7Z"/><path class="cls-2" d="M324.41,106a1.1,1.1,0,0,1,1.41,1.16,3.16,3.16,0,0,1-1.12,1.87c-0.86.7-2.32-.37-2.08-1.45a1.82,1.82,0,0,1,2.67-.95Z"/><path class="cls-2" d="M302.84,95.73a3,3,0,0,0-.06-2.3,1.37,1.37,0,0,0-2-.5c-0.63.58-.32,1.62,0,2.4l0.41,0.89a1.07,1.07,0,0,0,.4.54c0.48,0.26,1-.34,1.05-0.88a9.22,9.22,0,0,1,0-1.63Z"/><path class="cls-2" d="M258,194.75a1.9,1.9,0,0,1,1,2,3.28,3.28,0,0,1-1.18,2,5.35,5.35,0,0,1-4.75,1.14,4.18,4.18,0,0,1,5.11-5.81"/><path class="cls-2" d="M237.72,183.64a19.8,19.8,0,0,1,4,1.3,1.32,1.32,0,0,1,.65.48,1.36,1.36,0,0,1,.12.68c0,1.13-.23,2.59-1.35,2.82a1.77,1.77,0,0,1-1.46-.49,2.92,2.92,0,0,1,1.32-5"/><path class="cls-2" d="M217.16,202.1a27.33,27.33,0,0,0,4.77.65c0.41,1.21-.69,2.52-1.94,2.79a6.23,6.23,0,0,1-3.71-.7,2.89,2.89,0,0,1,2.21-3.5"/><path class="cls-2" d="M218.18,181.34a5.84,5.84,0,0,1,2.42-.46,2.2,2.2,0,0,1,1.93,1.33,2.25,2.25,0,0,1-1.18,2.5,6.57,6.57,0,0,1-2.9.63,10.37,10.37,0,0,1,.84-4.69"/><path class="cls-2" d="M230.31,193.6c0.67,0.47.05,1.7-.77,1.66a1.7,1.7,0,0,1-1.4-1.74,1.12,1.12,0,0,1,1.54-.82"/><path class="cls-2" d="M214.41,169.91a5.67,5.67,0,0,1,2.12.05,1.93,1.93,0,0,1,1.44,1.42c0.15,1-.67,1.77-1.41,2.39a0.51,0.51,0,0,1-.93-0.3L215,171.56c-0.3-1-.38-2.4.61-2.65"/><path class="cls-2" d="M282.42,209.52a1.31,1.31,0,0,1-.16.94l-3.21-.78a0.86,0.86,0,0,1-.67-0.42,0.85,0.85,0,0,1,.07-0.58l0.72-1.87a4.87,4.87,0,0,0,1.68-.25,4.18,4.18,0,0,1,1.36,3"/><path class="cls-2" d="M270,228.39a1.87,1.87,0,0,1-1.84,2.47,3.13,3.13,0,0,1-.42-4.47,3.11,3.11,0,0,1,2.19,2.19"/><path class="cls-2" d="M239.28,205.25l2.49,0.15c0.93,0.06,2,.21,2.44,1a2.74,2.74,0,0,1-.36,2.37,1.11,1.11,0,0,1-1,.82,1.08,1.08,0,0,1-.42-0.23,6.57,6.57,0,0,1-1.9-1.92,2.24,2.24,0,0,1,.13-2.54,3.29,3.29,0,0,1,1.25-.73"/><path class="cls-2" d="M246.49,217.3a1.86,1.86,0,0,1-.77,3.62,3,3,0,0,1,.53-4.44"/><path class="cls-2" d="M389.94,267l0.31,1.76a2.32,2.32,0,0,1-2.42-2.92l3.08-.28a0.38,0.38,0,0,1,.45.59l-1.09,2.5"/><path class="cls-2" d="M321,265.5c0.41,1.1.79,2.45,0.06,3.37-0.9,1.14-2.69.73-4,.21a2,2,0,0,1-1.06-.69c-0.45-.73.16-1.63,0.74-2.26s1.51-1.5,2.46-1.29a2.8,2.8,0,0,1,.91.45l2,1.34"/><path class="cls-2" d="M433.63,290.07a6.26,6.26,0,0,1,3.37,3.45,1,1,0,0,1,.07.7,1,1,0,0,1-1.08.4l-1.12,0a1.06,1.06,0,0,1-1.3-1.17l-0.37-4.58"/><path class="cls-2" d="M400.94,294c1.27-.24,2.91-0.3,3.48.85a2.5,2.5,0,0,1,.21,1.08,3.84,3.84,0,0,1-1.12,3,3.44,3.44,0,0,1-3.21.46,10.16,10.16,0,0,1-2.91-1.7,1,1,0,0,1-.39-0.43,1.05,1.05,0,0,1,.35-1,13.38,13.38,0,0,1,2.69-2.66,4.52,4.52,0,0,1,3.59-.78"/><path class="cls-2" d="M379.92,293.09a2.51,2.51,0,0,1-1,4,0.58,0.58,0,0,1-.42,0,0.6,0.6,0,0,1-.26-0.42,3.22,3.22,0,0,1,1.93-3.65"/><path class="cls-2" d="M380.49,276.4a2.07,2.07,0,0,1,.31,2.61,2.81,2.81,0,0,1,.61-2.92,0.82,0.82,0,0,0-1,.13"/><path class="cls-2" d="M349.64,293.07c0.63-.24,1.17.73,0.82,1.3a1.87,1.87,0,0,1-1.8.66,1.57,1.57,0,0,1,.91-2.42"/><path class="cls-2" d="M446.65,316.72a1.91,1.91,0,0,1,.45,3.54,2.29,2.29,0,0,1,.82-4"/><path class="cls-2" d="M360.93,306.84a1.74,1.74,0,0,1-2.41,2.31l0-1.67,2,0"/><path class="cls-2" d="M374.17,311a4.41,4.41,0,0,1,0,2.81,1.64,1.64,0,0,1-2.35.78,1.87,1.87,0,0,1-.46-0.66,2.64,2.64,0,0,1-.12-2.23,1.49,1.49,0,0,1,1.92-.75"/><path class="cls-2" d="M199.73,183.66a1.37,1.37,0,0,1-1.43,1.23,2.18,2.18,0,0,1-2.22-1.18,1.36,1.36,0,0,1,1.24-1.85l2.16,0.91"/><path class="cls-2" d="M160.79,186.72c0.53,0.56,1.52.57,1.93,1.23a1.23,1.23,0,0,1-1.39,1.64,1.75,1.75,0,0,1-1.06-2.21,3.11,3.11,0,0,1,1.94-1.81"/><path class="cls-2" d="M184.38,191.43a4.11,4.11,0,0,1-1.37,5,2.69,2.69,0,0,1-3.38-.09,2.66,2.66,0,0,1,.06-3.28,7.77,7.77,0,0,1,2.83-2.09,6.59,6.59,0,0,0,1.71,1"/><path class="cls-2" d="M167.42,204.64a1.22,1.22,0,1,1,.9,2.28l-2-1.23a2.8,2.8,0,0,1,1.75-1.37"/><path class="cls-2" d="M152.51,156.07l1.92,0a3,3,0,0,1-.21,2.2,1.88,1.88,0,0,1-1.32-2.68l0.61-.07"/><path class="cls-2" d="M175.93,181.61l2.25,1.07a5.79,5.79,0,0,1-1.52,1.74,0.6,0.6,0,0,1-1-.62,3.89,3.89,0,0,1,.29-1.68"/><path class="cls-2" d="M180,151.74a1.69,1.69,0,0,1,1.86,1.93,2.46,2.46,0,0,1-2.28,1.86,0.66,0.66,0,0,1-.43-0.08,0.7,0.7,0,0,1-.22-0.55,6.84,6.84,0,0,1,.52-3.13c0.14-.33.75-0.57,0.72-0.21"/><path class="cls-2" d="M146.53,187.69a1.58,1.58,0,0,1-1.13,2,2.48,2.48,0,0,1-2.85-1.17,2.38,2.38,0,0,1,.72-3,1,1,0,0,1,1-.16,1.21,1.21,0,0,1,.37.38l1.55,2.19"/><path class="cls-2" d="M212,99.89a8.88,8.88,0,0,1-1.17,3,1.69,1.69,0,0,1-1.74-1,5,5,0,0,1-.36-2.12l1.47-.28"/><path class="cls-2" d="M191.3,55a3.26,3.26,0,0,1,2.32,3,2.23,2.23,0,0,1-2.84,2,4.66,4.66,0,0,1,2.31-6.2"/><path class="cls-2" d="M335.5,136.8a2.78,2.78,0,0,1-.77,2.39,4.09,4.09,0,0,0-1.58-.67c-0.67-.76-0.14-1.94.45-2.76a3.07,3.07,0,0,1,1.67-1.39,1.15,1.15,0,0,1,1.43,1.18"/><path class="cls-2" d="M353.3,148.26a1.6,1.6,0,0,1-.64,2.07,2.43,2.43,0,0,1-2.31,0,1.5,1.5,0,0,1-.87-1,1.31,1.31,0,0,1,1.16-1.33,3.81,3.81,0,0,1,1.9.34"/><path class="cls-2" d="M471.16,206A17.24,17.24,0,0,1,469,210.4a3.79,3.79,0,0,1-1.65-3.41,11.4,11.4,0,0,0,2.44-1c0.84-.28,2,0,2.07.93"/><path class="cls-2" d="M368.34,140c-0.12-.12.08-0.34,0.25-0.29a0.61,0.61,0,0,1,.33.39c-0.92.21-2.12,0.32-2.6-.5a1.54,1.54,0,0,1,.48-1.85,4.49,4.49,0,0,1,1.91-.78,2.09,2.09,0,0,1,2,.24c0.52,0.58.24,1.49-.07,2.2l-1.9.11"/><path class="cls-2" d="M335,102.92a9.37,9.37,0,0,1,4.37,1.17,2.51,2.51,0,0,1,1.41,1.57,1.9,1.9,0,0,1-1.2,1.94,4.49,4.49,0,0,1-2.42.18,2.25,2.25,0,0,1-1.3-.5,1.81,1.81,0,0,1-.4-1.56,3.52,3.52,0,0,1,3.29-2.9"/><path class="cls-2" d="M372.1,153.32l0.6,0.39a2.15,2.15,0,0,1-4.1,1,6,6,0,0,1,3-1.49"/><path class="cls-2" d="M415,202.24l0.18,2c-1.36.24-2.46-1.08-3.15-2.28a17.45,17.45,0,0,1,2.84-.72l0,1"/><path class="cls-2" d="M405.26,212.55l-1.13,2.33a2,2,0,0,1-.94,1.12c-0.79.3-1.57-.47-2-1.21a2.18,2.18,0,0,1-.27-2c0.44-.84,1.65-0.87,2.53-0.55a8,8,0,0,0,2.67.88"/><path class="cls-2" d="M430.89,220a1.36,1.36,0,0,1-.17,2.14,1.84,1.84,0,0,1-2.28-.47,2.91,2.91,0,0,1-.51-2.4l3.23,0"/><path class="cls-2" d="M435.91,200.92a2.87,2.87,0,0,1,2.63,2,1.62,1.62,0,0,1-.4,1.74c-0.74.57-1.79,0-2.55-.51a0.87,0.87,0,0,1-.44-0.55,1.18,1.18,0,0,1,.46-0.77c0.2-.23.28-0.68,0-0.78"/><path class="cls-2" d="M318,139.4a3.74,3.74,0,0,1,.34,2.49,1.21,1.21,0,0,1-1.71.25,2.35,2.35,0,0,1-.85-1.69,2,2,0,0,1,.47-1.71,1,1,0,0,1,1.52.27"/><path class="cls-2" d="M339.53,117.1a2.17,2.17,0,0,1,.76,2.42,1.54,1.54,0,0,1-2.24.71,1.67,1.67,0,0,1,1.89-2.22"/><path class="cls-2" d="M358.55,120.67c0.27-.19.49,0.42,0.2,0.58a1,1,0,0,1-.93-0.22l-2.07-1.37a12,12,0,0,0,3.21-3.39,4.39,4.39,0,0,1,.83,3.06"/><path class="cls-2" d="M273.68,107.62a2,2,0,0,1,2,3.47l-2.31-1.9a0.79,0.79,0,0,1,.22-1.12"/><path class="cls-2" d="M269.07,77.3a3.48,3.48,0,0,1,2.4,4,2.28,2.28,0,0,1-2.38-3"/><path class="cls-2" d="M321.93,86.59a1.31,1.31,0,0,1-1.66,1.65A1.12,1.12,0,0,1,322,86.81"/><path class="cls-2" d="M357.15,81.66a2.25,2.25,0,0,1-1.3,3.58l-0.73-3.48a2.78,2.78,0,0,1,2.7-.13"/><path class="cls-2" d="M383.78,129a1.2,1.2,0,0,1,.3,1.23,3.09,3.09,0,0,1-2.56-2.36c-0.12-1.24,1.61-2.35,2.43-1.42,0.42,0.48.56,1.35,1.2,1.39a1.27,1.27,0,0,1-.29,1.18"/><path class="cls-2" d="M408.78,159.72a2.24,2.24,0,0,1-2.08,3.77,1.52,1.52,0,0,1-1.07-.76,2,2,0,0,1-.12-1,3.73,3.73,0,0,1,1.18-2.76,1.8,1.8,0,0,1,2.66.42"/><path class="cls-2" d="M448.89,217.86a1.88,1.88,0,0,1,2.4,2,1.64,1.64,0,0,1-2.92.36,2,2,0,0,1,1.29-2.5,5.89,5.89,0,0,1,3.1-.07"/><path class="cls-2" d="M333.15,151.69a2.51,2.51,0,0,1-.12,3.13,2.71,2.71,0,0,1-1-1.4,0.94,0.94,0,0,1,.93-1.14"/><path class="cls-2" d="M297.19,129.37a0.33,0.33,0,0,1,.46.42,1.52,1.52,0,1,1-2.62-1l1.45-.54"/><path class="cls-2" d="M188.41,95.88a3.62,3.62,0,0,1,1,1.93,1.33,1.33,0,1,1-2.62.43,3.93,3.93,0,0,1,.27-2.09"/><path class="cls-2" d="M178.51,75.35a5.52,5.52,0,0,1,1.75.37,2.25,2.25,0,0,1,1.25,2.74,1.6,1.6,0,0,1-2.68.35c-0.63-1.06.4-2.46,0-3.62"/><path class="cls-2" d="M205.25,80.54a4.49,4.49,0,0,1,1.69,3.83,2.66,2.66,0,0,1-3.1,2.28,5.82,5.82,0,0,0-.47-2.73,2.92,2.92,0,0,1,.2-2.68c0.59-.72,2.1-0.5,2.11.44"/><path class="cls-2" d="M203.76,194a4.55,4.55,0,0,0,2.4-.07c0.81-.1,1.84.18,2,1a1.41,1.41,0,0,1-.09.69,2.69,2.69,0,1,1-3.82-3.26"/><path class="cls-2" d="M150.32,203.36a20.64,20.64,0,0,1,4.36-.1,2.28,2.28,0,0,1-2.25,2.16,5.63,5.63,0,0,1-1.06-4.19"/><path class="cls-2" d="M197.58,171.94a1.64,1.64,0,0,1-.71,2.43A1.71,1.71,0,0,1,194.7,173a1.78,1.78,0,0,1,1.8-1.87"/><path class="cls-2" d="M242.21,163.53a4.12,4.12,0,0,1-1.21,3.75,3.12,3.12,0,0,1-1.66-5.77,4.21,4.21,0,0,1,2.6,2"/><path class="cls-2" d="M195.59,205.27a3.07,3.07,0,0,1,1.67,1.47,1.28,1.28,0,0,1-.87,1.76c-0.88.07-1.36-1-1.57-1.85a2.78,2.78,0,0,1-.1-1.44,1,1,0,0,1,1.09-.72"/><path class="cls-2" d="M238.45,312.57a2.66,2.66,0,0,1,2.86,2.72c-0.21,1.49-2.54,2.22-3.35.95a10.43,10.43,0,0,0,.59-4.37"/><path class="cls-2" d="M212.38,318.43a6.18,6.18,0,0,1,5.61.91,2.88,2.88,0,0,1-1.72,2,3.54,3.54,0,0,1-2.11-3.59"/><path class="cls-2" d="M220.55,302.21A6.1,6.1,0,0,1,224,302a2.13,2.13,0,0,1,1.49,2.68,1.88,1.88,0,0,1-3,.23,2.77,2.77,0,0,1,0-3.29"/><path class="cls-2" d="M194.28,309.34a3.9,3.9,0,0,1,1.59,2.59c0,1-1.35,2-2.09,1.27a1.82,1.82,0,0,1-.43-1.11,3.66,3.66,0,0,1,.33-2.29,1.71,1.71,0,0,1,2-.82"/><path class="cls-2" d="M242,333.51c-0.07.77-1,1.08-1.8,1.18-1.57.21-3.52,0.16-4.28-1.23a2.5,2.5,0,0,1,1.36-3.31,3.74,3.74,0,0,1,3.75.8c0.83,0.72,1.28,2.28.29,2.77"/><path class="cls-2" d="M251.77,347.41c0.55,2-1.93,3.83-3.91,3.26a1.92,1.92,0,0,1-1.28-1c-0.46-1,.57-2.1,1.49-2.77a4.37,4.37,0,0,1,2.3-1.07,1.51,1.51,0,0,1,1.64,1.53"/><path class="cls-2" d="M266.16,351.14c0.57,0.66,1.16,1.56.76,2.34a1.36,1.36,0,0,1-2.13.15,2,2,0,0,1-.07-2.33,3.94,3.94,0,0,1,2-1.47"/><path class="cls-2" d="M276.11,344.82a4.43,4.43,0,0,1,1.9,3.68c-0.18,1.43-2,2.55-3.14,1.61s-0.37-2.88.49-4.15"/><path class="cls-2" d="M283.58,321.4a2.82,2.82,0,0,1-2.23,3.2,2.84,2.84,0,0,1,3-4.4c0.38,0.11.81,0.49,0.6,0.83"/><path class="cls-2" d="M250.56,300.24a2.82,2.82,0,0,1-.09,4.25,2.42,2.42,0,0,1,1.11-4.31"/><path class="cls-2" d="M291.46,339a8.8,8.8,0,0,1-.17,3,2.4,2.4,0,1,1,1.15-4.64l0,1.29"/><path class="cls-2" d="M167.85,299.54a5.74,5.74,0,0,1-2,1.55,2.1,2.1,0,0,1-2.36-.51c-0.76-1,0-2.56,1.19-3a5,5,0,0,1,3.63.43l0,0.86"/><path class="cls-2" d="M281.32,375.52a4.15,4.15,0,0,1-.12,2.47,1.43,1.43,0,0,1-2.07.65,1.61,1.61,0,0,1-.43-1.3,3.6,3.6,0,0,1,2.78-3.26"/><path class="cls-2" d="M254.74,324.85c0.57,1,1,2.47.18,3.32s-2.92-.23-2.63-1.56a2,2,0,0,1,3.26-.81"/><path class="cls-2" d="M262,376.37a1,1,0,0,1,.53,1.76,1.26,1.26,0,0,1-1.62-.74,2.89,2.89,0,0,1,.06-2c0.15-.49.6-1.08,1.06-0.84"/><path class="cls-2" d="M277.71,388.89a1.89,1.89,0,0,1-2.54,1.76,1.76,1.76,0,0,1,0-3,1.65,1.65,0,0,1,2.17,1.93"/><path class="cls-2" d="M404.46,409.82a2.35,2.35,0,0,1-.12,3.15,1.69,1.69,0,0,1-2.68-.91,1.87,1.87,0,0,1,1.29-1.79,4.65,4.65,0,0,1,2.35-.09"/><path class="cls-2" d="M309.81,387.47a7.5,7.5,0,0,0,2.41.48c0.81,0.15,1.69.81,1.52,1.61s-1.54,1-2.19.4a3.46,3.46,0,0,1-.76-2.53,0.66,0.66,0,0,1,.68.07"/><path class="cls-2" d="M407.49,391.23a1.81,1.81,0,0,1-.23,2.7,2.75,2.75,0,0,1-2.94,0,3.7,3.7,0,0,1,3.39-2.81"/><path class="cls-2" d="M375.2,399.08a9.58,9.58,0,0,1,.72,4c0,1.06-.7,2.43-1.73,2.18a1.51,1.51,0,0,1-.74-0.5,3,3,0,0,1,2.38-5"/><path class="cls-2" d="M392.05,400.51a3.31,3.31,0,0,1,1.9,3c-0.15,1.23-2,2-2.68,1a2.42,2.42,0,0,1-.19-1.5c0.12-1.32.4-2.9,1.62-3.42"/><path class="cls-2" d="M394.83,373.29a1.19,1.19,0,0,1,1.12,1.68,1.36,1.36,0,0,1-2.12.18,1.57,1.57,0,0,1,.31-2.2"/><path class="cls-2" d="M412,371.72a9.81,9.81,0,0,1,1.11,4.75,2.6,2.6,0,0,1-3.29-.67,2.88,2.88,0,0,1,.07-3.42"/><path class="cls-2" d="M407.22,316.56a3.28,3.28,0,0,1-4.42,3.77c0.93-.71,1.11-2,1.68-3s2.17-1.74,2.82-.76"/><path class="cls-2" d="M417.49,306.81a2.49,2.49,0,0,1,.69,3,2.09,2.09,0,0,1-.77-3.59"/><path class="cls-2" d="M396.15,308.33a4.48,4.48,0,0,1,.27,2.65l-1.23-.37a10.31,10.31,0,0,0-.41-2.6"/><path class="cls-2" d="M407.47,276.19a5.62,5.62,0,0,1,5.15,4.48,5.47,5.47,0,0,1-3.1-.06l0-1.94"/><path class="cls-2" d="M418.37,289.25a8.94,8.94,0,0,0-2.95,3.06,1.1,1.1,0,0,0-.18,1,1.08,1.08,0,0,0,.64.45,7.64,7.64,0,0,0,3.88.3,3.94,3.94,0,0,0-1.32-4.16"/><path class="cls-2" d="M77.15,241a0.84,0.84,0,0,1,1,.88l-3.15.14a1.5,1.5,0,0,1-1.09-.24c-0.64-.58.15-1.64,1-1.89s1.85-.3,2.3-1l1.11,1"/><path class="cls-2" d="M71.09,232.33a1.86,1.86,0,1,1,1-.85"/><path class="cls-2" d="M58.65,234l-0.19,3.57a4.13,4.13,0,0,1-1.2-6"/><path class="cls-2" d="M65.67,255.49a4.31,4.31,0,0,1,.4,3.13,15.51,15.51,0,0,1-5.91-1.95,5.71,5.71,0,0,1,5-4.14L65.18,254"/><path class="cls-2" d="M48.85,239.85a3.63,3.63,0,0,1-1.84,5.7,7.68,7.68,0,0,1,1.58-6.6"/><path class="cls-2" d="M76.59,207.52a3.34,3.34,0,0,1-.54,2.95l-3.91-2.15,3.53-.73"/><path class="cls-2" d="M83.1,182.08A4.24,4.24,0,0,1,86,185.2c0.21,1.49-1.13,3.14-2.6,2.84a2.56,2.56,0,0,1-1.74-2.92A5.53,5.53,0,0,1,83.65,182"/><path class="cls-2" d="M48.91,201.34A3.41,3.41,0,0,1,50,203.28a1.18,1.18,0,0,1-1.41,1.29,1.52,1.52,0,0,1-.72-0.94c-0.7-1.89.22-4.76,2.22-4.52"/><path class="cls-2" d="M36.11,204.85a1.4,1.4,0,0,1,1.31,1.6,1.2,1.2,0,0,1-1.85.65,1,1,0,0,1,.59-1.74"/><path class="cls-2" d="M61.58,272.73a2.88,2.88,0,0,1-2.05-3.93,1.36,1.36,0,0,1,1.22-.87c0.91,0.08,1.09,1.33,1,2.25l-0.22,2.35"/><path class="cls-2" d="M89.5,384.63a3.19,3.19,0,0,1-.8,5,3,3,0,0,1-4.05-2.8A2.84,2.84,0,0,1,89.09,385"/><path class="cls-2" d="M66.63,401.48c-0.4,2.19-4,2.73-5,.76s1.49-4.62,3.52-3.69a2.16,2.16,0,0,1,.48,2.43"/><path class="cls-2" d="M57.59,393.47c-0.27,1.15-2.12,1.26-2.78.28a2.52,2.52,0,0,1,.69-3.16,6.1,6.1,0,0,1,3.28-1.16,2.23,2.23,0,0,1,.32,2.06"/><path class="cls-2" d="M102.54,366a3.3,3.3,0,0,1-2.67,2.79c-1.38.09-2.62-1.74-1.69-2.76a5.85,5.85,0,0,1,4-.46"/><path class="cls-2" d="M79.15,359.07c1.12,1,2.33,2.07,2.47,3.54s-1.59,3-2.78,2.14a2.56,2.56,0,0,1-.58-2.65,3.68,3.68,0,0,1,1.65-2.59,1.73,1.73,0,0,1,2.49,1"/><path class="cls-2" d="M220.44,472c0,1.45-1.83,2.3-3.23,1.94a7.3,7.3,0,0,1-3.39-2.59A9.1,9.1,0,0,1,218,465a9.68,9.68,0,0,0,1.62,5"/><path class="cls-2" d="M236.84,472.11a1.29,1.29,0,0,1,2.24.52l-3.82-2.12,5.25-.38a7.14,7.14,0,0,1,.85,3.49,2.45,2.45,0,0,1-2.32,2.32c-2.35-.17-2.13-4-4-5.42l2.13-1.49"/><path class="cls-2" d="M259.63,482c-0.72,1.33-2.51,1.55-4,1.6-1,0-2.27-.13-2.51-1.1s0.84-1.71,1.8-1.93A6.24,6.24,0,0,1,259,481"/><path class="cls-2" d="M276.38,478.92a6.25,6.25,0,0,1,0,4.82,1.91,1.91,0,0,1-1.1,1.18c-1.34.37-2.13-1.72-3.49-2a3.77,3.77,0,0,1,2.19-3.43,11.09,11.09,0,0,1,4.19-.94"/><path class="cls-2" d="M266.85,495.3a1.65,1.65,0,0,1-1,.09,2.41,2.41,0,0,1-1.54-1.52,3.43,3.43,0,0,1,.39-3.43,2.44,2.44,0,0,1,3.25-.47,1.9,1.9,0,0,1-.18,3"/><path class="cls-2" d="M318.16,478a8.09,8.09,0,0,1-.21,6.09c-0.47,1-1.88,2-2.6,1.15a1.78,1.78,0,0,1-.28-1.16,14.43,14.43,0,0,1,1.24-5.73"/><path class="cls-2" d="M299.38,494.09c-0.75,1.79-3.47,2.2-4.9.88a4.08,4.08,0,0,1-.26-5.3,5.69,5.69,0,0,1,5.22-1.94,8.08,8.08,0,0,1-.24,8.3"/><path class="cls-2" d="M303.58,478.65a1.92,1.92,0,0,1-1.12,3.66,2.08,2.08,0,1,1,2.57-3.2"/><path class="cls-2" d="M72.5,378.07a1.43,1.43,0,0,1-.15,1.4,0.68,0.68,0,0,1-.72-0.47,1.88,1.88,0,0,1,0-.92,0.23,0.23,0,0,1,.3-0.24l1.06,0c0.08,0,.15.15,0.07,0.12"/><path class="cls-2" d="M70.15,389a13.24,13.24,0,0,1,3.79,1.86,2.07,2.07,0,0,1,.79.85,2.24,2.24,0,0,1,.09,1,1.9,1.9,0,0,1-.43,1.33,1.66,1.66,0,0,1-2-.13,2.73,2.73,0,0,1-1-1,3.63,3.63,0,0,1,.11-2.63,0.32,0.32,0,0,1,.31-0.3"/><path class="cls-2" d="M50.65,372.74a15.6,15.6,0,0,1,5.31,1,1.56,1.56,0,0,1,.74.38,1.28,1.28,0,0,1,.15,1.19,3.5,3.5,0,0,1-3.65,2.47,1.7,1.7,0,0,1-.62-0.17,2,2,0,0,1-.74-1.91,6.15,6.15,0,0,1,.38-1.74,1.08,1.08,0,0,1,.37-0.55,1.18,1.18,0,0,1,.51-0.15L55,373"/><path class="cls-2" d="M472.38,420.11a17.77,17.77,0,0,1,1.3,7.87,1.9,1.9,0,0,1-.3,1.06c-0.59.76-1.77,0.33-2.72,0.24-2.13-.21-4.06,1.63-6.19,1.47-2-.15-3.45-2-3.82-4a13.64,13.64,0,0,1,.61-5.84,2.82,2.82,0,0,1,.53-1.23,2.66,2.66,0,0,1,1.1-.63,23.3,23.3,0,0,1,11.26-1.2"/><path class="cls-2" d="M498.93,326.73a4.87,4.87,0,0,1,1.23,5.33c-1.33.89-2.94-1.33-2.18-2.73s2.57-1.81,4.16-2"/><path class="cls-2" d="M460.59,421.2a3.65,3.65,0,0,1-3.5-2c-0.49-1.35.76-3.16,2.14-2.76a2.23,2.23,0,0,1,1.18,2.85,6.47,6.47,0,0,1-2.14,2.65"/><path class="cls-2" d="M473.65,436.48l-3.84-.63c-1.1-1.58,1-4.08,2.73-3.28l0.54,3.06"/><path class="cls-2" d="M159.14,18l11,3.06a8.13,8.13,0,0,1-12.81,8.08,13.46,13.46,0,0,1,1.47-9.38"/><path class="cls-3" d="M469.82,30.33c15.67,7.38,29,6.75,42.18,3.7V0H438.49C445.1,12.13,454.13,22.94,469.82,30.33Z"/><path class="cls-3" d="M477.84,286C432.2,260.75,408.17,304,357.1,276.91c-41.89-22.18-37.06-64.49-80.95-90.83-51.26-30.76-83,1.31-130.39-22-39.91-19.62-20-52.12-63.64-93C54.33,45,21.55,31.3,3.07,23L0,22.58V98c46.91-4,83.81,29.43,93.38,38.09,40.85,37,28.22,63.31,62,84.57,37.42,23.53,59.58-4.53,104.17,15.58,52.83,23.83,42.57,72.64,93.32,95,44.21,19.5,62.85-12.75,116.17,3.51A150.86,150.86,0,0,1,512,356.3V315A118.66,118.66,0,0,0,477.84,286Z"/><path class="cls-3" d="M423.51,186.44c-41.89-22.18-29.91-53.88-73.8-80.21-51.26-30.76-84.06,2.61-128.34-28.34C189.62,55.7,198,32.62,171.87,0H96.52a171.7,171.7,0,0,1,31.06,24c39.92,38,22.84,71.19,59.89,86.1,41.23,16.58,54.61,2.7,98.68,23.92,52.22,25.15,53.53,73.35,103.7,97,43.7,20.6,55.42-16.58,108.32,1A136.08,136.08,0,0,1,512,237.49V191C484.42,192.85,458,204.73,423.51,186.44Z"/><path class="cls-3" d="M250.54,13.88c36.82,24.46,59.68-3,103.74,18.18C406.51,57.2,395,105.74,445.2,129.39c27,12.72,44.73,5.47,66.8,2.2V71.09c-20.37,2-41.82,5.41-70-3.74C406.24,55.75,409.6,25.11,384.73,0H235.31A62.4,62.4,0,0,0,250.54,13.88Z"/><path class="cls-3" d="M450.1,389.29c-46.26-24.12-78.51,15.65-130.24-10.11-42.43-21.13-31.25-53.11-75.78-78.34-52-29.47-84,4.71-129-25.12C78,251.16,86.48,231,49.12,184.29,34.83,166.41,16.63,155.14,0,147.6v50.25a182.63,182.63,0,0,1,19.33,16.28c39.92,38,26.62,64,59.89,86.1,36.82,24.46,59.68-3,103.74,18.18C235.19,343.54,237.82,403,279.92,405c48.26,2.29,57.11-.41,110,17.18,43.14,14.35,81.61,52.59,93.86,89.86H512V481.33C502.34,453.17,487.33,408.7,450.1,389.29Z"/><path class="cls-3" d="M63.23,426.22c36.82,24.46,59.68-3,103.74,18.18,35,16.87,41.4,44.26,56.93,67.6H405.3c-8.72-14.26-20.16-27.25-35.69-35.85-45.65-25.27-78.88,13.68-129.95-13.37-41.89-22.18-40-42.82-83.84-69.15-51.26-30.76-74-8.45-118.3-39.4C12,336.4,12.4,318,0,294.55V337c1.34,1.23,2.46,2.3,3.33,3.13C43.25,378.11,30,404.12,63.23,426.22Z"/><path class="cls-3" d="M21.52,480.23C10.63,472.62,4.46,464.9,0,456.73V512H155.22c-1.69-1.15-3.47-2.3-5.36-3.43C98.6,477.81,65.8,511.18,21.52,480.23Z"/><path class="cls-4" d="M389.85,231c-50.17-23.65-51.48-71.85-103.7-97-44.07-21.22-57.45-7.33-98.68-23.92-37.06-14.9-20-48.11-59.89-86.1A171.7,171.7,0,0,0,96.52,0H0V11.18c2.23,0.08,4.8.25,7.79,0.51,30.55,2.64,71.17,6.15,102.67,31,41.34,32.62,19.41,64.44,55.08,92.51,40.5,31.87,77.11-2.59,126.74,28.88,42.72,27.08,29.14,61.19,70.59,84,44.27,24.31,69.33-9.33,121.93,15A130.67,130.67,0,0,1,512,280V237.49A136.08,136.08,0,0,0,498.16,232C445.27,214.42,433.55,251.6,389.85,231Z"/><path class="cls-4" d="M0,21.56v1L3.07,23Z"/><path class="cls-5" d="M483.19,275.33c-42.58-22.09-57,17-106.22-4.38-53.17-23.12-52.63-75.89-106.61-99.36-47.23-20.53-71.77,9.8-108.56-13.9-38.1-24.56-20.45-62.7-59.36-98.93C71.27,29.72,29.82,26.16,3.07,23,21.55,31.3,54.33,45,82.12,71c43.64,40.93,23.73,73.43,63.64,93,47.39,23.3,79.13-8.77,130.39,22,43.88,26.33,39.06,68.64,80.95,90.83,51.07,27,75.1-16.16,120.75,9.11A118.66,118.66,0,0,1,512,315V299.71A88.6,88.6,0,0,0,483.19,275.33Z"/><path class="cls-5" d="M3.07,23c26.75,3.2,68.2,6.76,99.37,35.79,38.9,36.23,21.26,74.37,59.36,98.93,36.78,23.71,61.33-6.63,108.56,13.9,54,23.47,53.44,76.24,106.61,99.36,49.22,21.4,63.64-17.71,106.22,4.38A88.6,88.6,0,0,1,512,299.71V280a130.67,130.67,0,0,0-27.21-17c-52.59-24.31-77.66,9.34-121.93-15-41.45-22.77-27.87-56.88-70.59-84-49.63-31.46-86.24,3-126.74-28.88-35.67-28.07-13.74-59.89-55.08-92.51C79,17.84,38.34,14.33,7.79,11.69c-3-.26-5.56-0.42-7.79-0.51V21.56Z"/><path class="cls-4" d="M241.16,49c40.5,31.87,77.11-2.59,126.74,28.88,42.72,27.08,29.14,61.19,70.59,84,28.28,15.53,48.72,7.41,73.52,5.86V131.59c-22.08,3.27-39.81,10.52-66.8-2.2C395,105.74,406.51,57.2,354.29,32.06c-44.07-21.22-66.92,6.28-103.74-18.18A62.4,62.4,0,0,1,235.31,0H214.53C219.36,17.14,221.62,33.64,241.16,49Z"/><path class="cls-5" d="M430.22,171.1c-53.17-23.12-42.8-72.25-96.79-95.72-47.23-20.53-71.77,9.8-108.56-13.9-25-16.1-26-38.05-34.7-61.47h-18.3C198,32.62,189.62,55.7,221.37,77.89c44.28,31,77.09-2.42,128.34,28.34,43.88,26.33,31.91,58,73.8,80.21,34.54,18.29,60.91,6.4,88.49,4.6V171.67C487.06,173.1,464.8,186.13,430.22,171.1Z"/><path class="cls-5" d="M438.48,161.84C397,139.08,410.61,105,367.9,77.89c-49.63-31.46-86.24,3-126.74-28.88-19.54-15.37-21.8-31.87-26.63-49H190.17c8.71,23.42,9.72,45.37,34.7,61.47,36.78,23.71,61.33-6.63,108.56,13.9,54,23.47,43.62,72.6,96.79,95.72,34.58,15,56.83,2,81.78.58v-4C487.21,169.26,466.77,177.38,438.48,161.84Z"/><path class="cls-4" d="M457,42.75c21,11.54,37.69,10,55,7.84V34c-13.15,3-26.52,3.68-42.18-3.7S445.1,12.13,438.49,0H421C428.56,15.61,435.12,30.76,457,42.75Z"/><path class="cls-5" d="M442,67.35c28.19,9.15,49.64,5.78,70,3.74V67.56C497.28,70,481.34,70.75,461.24,62c-33.63-14.62-41.84-39.65-57-62H384.73C409.6,25.11,406.24,55.75,442,67.35Z"/><path class="cls-5" d="M457,42.75c-21.84-12-28.4-27.14-36-42.75H404.24c15.15,22.36,23.37,47.38,57,62,20.1,8.74,36,8,50.76,5.56v-17C494.65,52.78,478,54.29,457,42.75Z"/><path class="cls-4" d="M352.89,331.28c-50.75-22.38-40.48-71.19-93.32-95-44.58-20.11-66.74,7.95-104.17-15.58-33.81-21.26-21.18-47.59-62-84.57C83.81,127.45,46.91,94.06,0,98v33c23.6,5.58,49.21,15.49,76.74,24.22,42.88,13.6,21,63.94,57.38,91.11,41.29,30.85,77-4.52,127.42,25.69,43.38,26,30.66,60.44,72.67,82.16,44.86,23.2,69.08-11.07,122.26,11.92A133.69,133.69,0,0,1,512,411.48V356.3a150.86,150.86,0,0,0-42.94-21.51C415.74,318.52,397.1,350.78,352.89,331.28Z"/><path class="cls-5" d="M455.18,378.46c-43.12-21-66.47,15-116.21-5.11-53.73-21.78-44.6-71.16-99.16-93.27-47.73-19.34-71.51,11.6-108.87-11.18-38.7-23.59-22-62.17-61.82-97.41C48,152.74,22.54,145.33,0,141.73v5.87c16.63,7.54,34.83,18.81,49.12,36.7C86.48,231,78,251.16,115.06,275.72c45,29.83,77-4.35,129,25.12,44.53,25.23,33.35,57.21,75.78,78.34,51.73,25.76,84-14,130.24,10.11,37.24,19.41,52.24,63.87,61.9,92V450.44C500.66,424.49,485.75,393.37,455.18,378.46Z"/><path class="cls-5" d="M69.13,171.49c39.8,35.24,23.11,73.82,61.82,97.41,37.36,22.78,61.14-8.16,108.87,11.18,54.56,22.11,45.43,71.49,99.16,93.27,49.74,20.16,73.09-15.91,116.21,5.11,30.57,14.9,45.48,46,56.82,72v-39a133.69,133.69,0,0,0-55.53-45.35c-53.18-23-77.4,11.28-122.26-11.92-42-21.72-29.29-56.16-72.67-82.16-50.4-30.21-86.14,5.15-127.42-25.69-36.36-27.17-14.5-77.51-57.38-91.11C49.21,146.52,23.6,136.6,0,131v10.7C22.54,145.33,48,152.74,69.13,171.49Z"/><path class="cls-4" d="M389.92,422.14c-52.9-17.59-61.74-14.89-110-17.18-42.1-2-44.73-61.42-96.95-86.56-44.07-21.22-66.92,6.28-103.74-18.18-33.27-22.1-20-48.11-59.89-86.1A182.63,182.63,0,0,0,0,197.84v33.3c0.74,0.56,1.49,1.11,2.22,1.69,41.34,32.62,19.41,64.44,55.08,92.51,40.5,31.87,77.11-2.59,126.74,28.88,42.72,27.08,29.14,61.19,70.59,84,44.27,24.31,69.33-9.33,121.93,15A132.9,132.9,0,0,1,438,512h45.74C471.53,474.73,433.07,436.49,389.92,422.14Z"/><path class="cls-5" d="M37.52,354.23c44.28,31,67,8.64,118.3,39.4,43.88,26.33,41.95,47,83.84,69.15,51.07,27,84.3-11.9,129.95,13.37,15.53,8.6,27,21.58,35.69,35.85h12.54c-9.61-18.39-22.63-36-42.89-46.54-42.58-22.09-66.82,13.38-116-8-53.17-23.12-42.8-72.25-96.79-95.72-47.23-20.53-71.77,9.8-108.56-13.9-36-23.23-22.2-58.64-53.56-93.07v39.81C12.4,318,12,336.4,37.52,354.23Z"/><path class="cls-5" d="M53.56,347.81c36.78,23.71,61.33-6.63,108.56,13.9,54,23.47,43.62,72.6,96.79,95.72,49.22,21.4,73.46-14.07,116,8C395.21,476,408.23,493.61,417.84,512H438a132.9,132.9,0,0,0-61.5-58.84c-52.59-24.31-77.66,9.34-121.93-15-41.45-22.77-27.87-56.88-70.59-84-49.63-31.46-86.24,3-126.74-28.88-35.67-28.07-13.74-59.89-55.08-92.51C1.49,232.26.74,231.7,0,231.15v23.6C31.36,289.17,17.51,324.58,53.56,347.81Z"/><path class="cls-4" d="M41.3,451.35c40.5,31.87,77.11-2.59,126.74,28.88A82.46,82.46,0,0,1,197.84,512H223.9C208.37,488.66,202,461.27,167,444.4c-44.07-21.22-66.92,6.28-103.74-18.18-33.27-22.1-20-48.11-59.89-86.1-0.88-.84-2-1.9-3.33-3.13v35.26C22.61,400.14,10.54,427.14,41.3,451.35Z"/><path class="cls-5" d="M146.11,487.71c-47.23-20.53-71.77,9.8-108.56-13.9-27.47-17.7-26-42.47-37.56-68.48v51.41c4.46,8.17,10.63,15.89,21.52,23.5,44.28,31,77.09-2.42,128.34,28.34,1.89,1.13,3.67,2.28,5.36,3.43h23.64A85.54,85.54,0,0,0,146.11,487.71Z"/><path class="cls-5" d="M168,480.23c-49.63-31.46-86.24,3-126.74-28.88C10.54,427.14,22.61,400.14,0,372.25v33.08c11.6,26,10.09,50.78,37.56,68.48,36.78,23.71,61.33-6.63,108.56,13.9A85.54,85.54,0,0,1,178.86,512h19A82.46,82.46,0,0,0,168,480.23Z"/></svg>