<svg id="Layer_1" data-name="Layer 1" xmlns="http://www.w3.org/2000/svg" width="512" height="512" viewBox="0 0 512 512"><defs><style>.cls-1{fill:#c8c0b3;}.cls-2{fill:#bfb7a9;}.cls-3{fill:#d6cdbf;}</style></defs><title>stone</title><rect class="cls-1" width="512" height="512"/><path class="cls-2" d="M293.58,413.23c-4.22-7.83-9.29-16.31-17.8-18.57-6.06-1.61-13.12.23-18.44-3-3.74-2.3-5.72-6.62-8.52-10-6.54-8-17.25-10.79-27.16-13.63-6.53-1.87-14-5-15.32-11.8-1-4.89,1.7-9.86,2.2-14.88,0.67-6.81-2.73-13.25-7.12-18.19s-9.82-8.82-14.43-13.55a9.11,9.11,0,0,1-2.73-4.32c-0.51-2.47.81-5,1-7.55,0.5-8.76-11.9-12.49-13.31-21.06-0.67-4.06,1.53-8.39,4.86-10.89,5.55-4.15,14-3,18,2.34,3,4.07,3.47,9.72,6.37,13.88,4.37,6.28,13.67,8.3,16.32,15.56,1.53,4.18.36,9.09,1.75,13.32,2.32,7.07,10.46,9.65,16.14,14.24a4.56,4.56,0,0,1,2,3.18c0,1.65-1.37,2.94-2.36,4.28-5,6.82.88,16.55,8.31,19.8s16.15,3.08,23.35,6.81c5.88,3.05,10.32,8.52,16.4,11.18,4.15,1.82,8.85,2.22,12.93,4.17,11.9,5.7,14.31,21.6,15.25,35.17,0.29,4.24-.21,9.77-4.22,11.13a7.93,7.93,0,0,1-5.18-.47,31.56,31.56,0,0,1-12-7.72"/><path class="cls-2" d="M32.79,218.59c7.5,4.27,16.09-7.59,24.69-6.37S69,226.42,77.6,226.76c4.42,0.18,8.43-3.3,12.86-3.63,11.3-.86,15.52,17.46,26.76,18.27a17.22,17.22,0,0,1,3.64.3c3,0.88,4.19,4.37,5,7.42,0.91,3.38,1.82,6.92,1.1,10.42s-3.64,6.88-7.1,6.8c5.64,6.21,16.78,3.9,22.65,9.88,4.74,4.84,4.09,13.05,7.45,19,3.53,6.24,11.45,10,12,17.33,0.35,4.87-2.88,9.31-6,13.14-5.6,6.87-12.68,14.11-21.25,13.92-5-.11-9.46-2.78-14.38-3.26s-11.16,2.93-10.61,8a39.09,39.09,0,0,1-19.08-16.57c-2.18-3.75-3.85-8-7.15-10.74-4.07-3.38-9.75-3.79-15-4.64a73.39,73.39,0,0,1-44.73-25.71c-2.6-3.17-5-6.61-8.32-9-4.9-3.49-3.74-1.83-8.58-5.4-5.38-4-5-9.45-3.51-16.27,5.21,0.87.8-3.08,4.25-7.35,2.89-3.58,2.26-8.8.74-13s-3.8-8.31-3.69-12.87c0.07-3,1.75-6.52,4.7-7.06a8.28,8.28,0,0,1,3.61.41l16,4.29"/><path class="cls-3" d="M24.12,193.18c9.32,4,20.45,7.91,29.38,2.37,1.89-1.17,3.57-2.73,5.61-3.59,4.85-2.05,10.25.37,14.3,3.51s7.7,7.1,12.58,8.66c6.37,2,13.55-.42,20.1,1,14.22,3.06,22.05,23.15,36.65,21.15-2.48,5.05-1.1,11,.34,16.26l2.51,9.28c1.73,6.38-3.24,14.66,3.28,13.79-0.82,1.86,7.76,8.87,9.35,10,1.32-2.25.61-9.16,1.93-11.41-4.86-2.36-.11-11.11,4.56-14.19s18.25-9.51,23.6-8.56c7.23,1.29,46.45,27.22,50.51,15.84,1.82-5.1-6.82-33.14-18.86-27.32-7.24,3.5-33.2-3.14-56.29-25.89-4.14-4.08-9.69-6.19-15.45-7.13s-11.87-1.64-16.45-5.2-6.66-11.2-2.53-15.63c-5-6.86-13-10.81-21.27-12.47s-16.87-1.27-25.37-.87c-4.48.21-9.19,0.49-13.06,3-2.42,1.54-4.48,3.9-7.23,4.51-3.47.78-6.68-1.46-9.85-2.9a22.12,22.12,0,0,0-20.82,1.5c-6.22,4-10.23,11.67-9.55,19"/><path class="cls-2" d="M50.24,140.58C54.61,135,62.69,135,69.39,136.1s14.22,2.44,19.94-1.61c1.37-1,2.56-2.22,4-3.09,5.1-3.06,11.46-.39,16,3.1s8.88,8,14.61,8.77c2.61,0.37,5.36-.08,7.89.65,6.05,1.74,8.29,9.08,9.36,15.44s2.51,13.7,8.15,16.47c2.23,1.09,4.79,1.26,7.24,1.71,6.89,1.26,13.6,5.32,16.13,11.94a32.6,32.6,0,0,0,1.38,3.62,13.39,13.39,0,0,0,2.76,3.36,48.25,48.25,0,0,0,38.46,12.67,18.23,18.23,0,0,0,7.14-2,23.4,23.4,0,0,0,5.12-4.53l11.74-12.62a13.59,13.59,0,0,1,4.52-3.64,23.29,23.29,0,0,1,4.11-.9c8.56-1.79,14.17-12.86,10.52-20.75-2.24-4.85-7-7.87-11.73-10.16-7.5-3.61-15.78-6-24.2-5.47-3.06.21-6.28,0.78-9.05-.42-3.71-1.6-5.51-5.95-5.93-10.08s0.2-8.38-.3-12.51c-0.75-6.16-3.93-11.64-7.57-16.51C195.28,103.58,189.55,98,182.24,97c-5.19-.73-10.47.93-15.61,2.36S156,102,151,100.46s-9.09-6.87-7.58-12.09c1.31-4.54,6.2-7.19,10.77-7.79s9.15,0.29,13.73,0,9.63-2,11.89-6.2c2.16-4,2.29-10.32,6.65-11.09,2.69-.48,5.63,1.84,7.9.23q-6.92-10.15-14.61-19.71a18.11,18.11,0,0,0-4.67-4.53,16.19,16.19,0,0,0-7.72-1.73c-9.81-.32-20.74,2.46-26.66,10.73-1.91,2.67-3.3,5.89-6,7.67-5,3.29-12,.17-17.07,3.33-7.48,4.64-3.89,17.35-9.81,24-5.53,6.17-16.36,3.84-21.92,10-1.74,1.93-2.7,4.45-4.23,6.55-3.94,5.39-10.89,7.16-17.21,8.79-5.93,1.53-12.79,4.21-14.42,10.24-0.76,2.82-.14,5.76-0.13,8.65s-0.9,6.23-3.48,7.54"/><path class="cls-3" d="M239.37,289.09c3.29,1.15,6.93,2.63,8.22,5.93,0.48,1.24.57,2.63,1.09,3.85,1.72,4.08,7,4.63,11,6.25a3.33,3.33,0,0,1,1.52,1,6,6,0,0,1,.68,2.12c1,3.94,5.65,5.24,9.5,6.31a62.46,62.46,0,0,1,12.12,4.76c2.3,1.19,4.86,3.62,3.62,6-0.64,1.24-2,1.82-3.33,2.28-2.45.89-5.12,1.79-7.54,1-1.29-.42-2.39-1.3-3.68-1.75-2.83-1-6,.25-9,0.25a10.92,10.92,0,0,1-9.93-6.69c-0.52-1.28-.84-2.71-1.79-3.69a8.57,8.57,0,0,0-3-1.66c-8-3.33-13.25-12.18-12.59-21.12"/><path class="cls-2" d="M293.57,348.81c6.23,0.27,11.7,4.32,15.28,9.41s5.57,11.19,7.52,17.18l6,18.46c0.66,2,1.38,4.16,2.93,5.58s4.21,1.82,5.76.27c1.35-1.35,1.49-3.72,3.07-4.76s3.28-.28,4.79.4c4.21,1.9,8.5,3.85,11.87,7s5.72,7.84,5,12.59c-0.24,1.66-.84,3.4-0.28,4.95a5.64,5.64,0,0,0,2.44,2.63,20.48,20.48,0,0,0,21.94-.35,5.4,5.4,0,0,0,2.29-2.48c0.54-1.51-.18-3.12-0.94-4.48a53.6,53.6,0,0,0-16.57-18.11c-2.7-1.84-5.65-3.49-7.51-6.22s-2.19-6.94.28-9.28c1.72-1.63,4.59-2.28,5.2-4.57a5.64,5.64,0,0,0-.59-3.5c-2.86-7.09-6.89-15.14-14.39-16.15-6.43-.86-13.22,4-19.31,1.9-2.14-.75-3.89-2.3-5.69-3.67a45.15,45.15,0,0,0-30.29-9.06"/><path class="cls-3" d="M329.9,344.45c6.11,3.17,11.18,8.49,17.88,10.16a39.67,39.67,0,0,0,8.13.81c8.19,0.3,16.59,1.17,23.67,5.14,4.25,2.38,9.33,5.88,13.53,3.06,3-2,3.56-6.59,2-9.83s-4.49-5.41-7.45-7.31c-5.42-3.49-11.67-6.62-18.15-5.5-1.74.3-3.47,0.91-5.2,0.73a12.85,12.85,0,0,1-4.71-1.93c-9.27-5.1-9-16.45-19.62-14.69-1-.44-0.64.91-8.36-4.89-4.71.09,2.63-7.55,3.84-12.26S315.33,292,318.92,288.73c-4.25-2.19-10.64-7.72-13.05-11.91s-11.76.53-16.36-.8-11.71-6.49-11-1.63,7.08,6.85,7.71,11.65c0.18,1.41,10,23.32,10,24.75-0.07,5.86,17.16,16.48,17,22.34,0,1.56-.47,3.25.23,4.61s2.26,1.87,3.69,2.3l12,3.61"/><path class="cls-3" d="M33.24,102.59C41,105.41,50.86,99,51.9,90.55a10.42,10.42,0,0,1,.54-2.9c2.2-5.1,10.61-.67,14.86-4.2,4.55-3.78-.17-12.08,3.5-16.75,2.38-3,6.84-2.74,10.26-4.37,7.22-3.44,8.17-14.24,14.79-18.82,3.11,3.39,8.53,3.36,13,1.84s8.49-4.24,13-5.61c4.26-1.29,8.73-1.31,13.07-2.2s8.86-3,11.06-6.93c2.48-4.49,1.24-10.18-1.5-14.29a21.53,21.53,0,0,0-16-9.42,7.38,7.38,0,0,0-3.38.35A11.5,11.5,0,0,0,121.62,10c-6.84,6.66-16.44,9.18-25.63,10.77-3.14.54-6.36,1-9.18,2.62s-5.17,4.56-5.07,7.79c0,1.58.67,3.1,0.53,4.68-0.29,3.2-3.44,5.28-6.13,7C59.19,53.93,47.94,72,37.28,89.44c-2.47,4-5,8.19-6.08,12.79"/><path class="cls-3" d="M198.67,42.48c10.18,3.35,13.78,19,24.57,19.42l-15,13.8,14.26,7-18.46.3c-3.4.05-7.9,1.07-8.26,4.54,1.43,5.53,7.28,8.14,12.15,10.87s9.84,7.87,7.93,13.39c3.87,0.19,8.6,1,9.67,4.81,0.61,2.15-.28,4.47-0.42,6.73s1.14,5,3.34,4.76c1.11-5.53,8.22-7.95,13.36-6.22s8.82,6.12,12.66,10a77.5,77.5,0,0,0,20.61,14.7c1.84,0.9,3.9,1.74,5.92,1.2,3-.8,4.48-4.1,6.09-6.8,5.73-9.65,18.66-5.41,28.75-9.91a12.43,12.43,0,0,0,9.7,8.61,37.87,37.87,0,0,1,10.19-23.23L314.55,108a6.58,6.58,0,0,0-3.86-.67,6.94,6.94,0,0,0-3.45,2.67c-4.76,5.79-11,3.07-17.15,7.24s-15.41,4.84-19.68-1c-1.45-2-2.14-4.44-3.19-6.68a21.61,21.61,0,0,0-15.38-12,33.22,33.22,0,0,1,23.81-14.74c-0.49-6.3-1.53-13.54-6.84-16.6a27.89,27.89,0,0,0-5.89-2.05,28.28,28.28,0,0,1-15-11.12c-1-1.47-1.91-3.09-3.4-4-1.75-1.11-4-1.08-6.06-1.13a57.37,57.37,0,0,1-41.23-19.12,33.2,33.2,0,0,0,2.05,15"/><path class="cls-2" d="M302.77,248.88c-0.73-4.06,1.48-8.2,4.14-11.45s5.89-6.1,7.86-9.82c4.77-9,1.07-20.47,5.73-29.5a3.07,3.07,0,0,1,4.36-1.76c3.78,1,8.17,2.13,11.38-.33,2.51-1.93,3.26-5.36,4.05-8.45a68.25,68.25,0,0,1,17.49-30.86,30.35,30.35,0,0,0,10.45,17.87,7.11,7.11,0,0,0,4.19,2,8.7,8.7,0,0,0,4.31-1.55l13.19-7.58c-1.42,1.54,1.13,3.46,3.12,3.76a109.39,109.39,0,0,0,24.84.88c-4.43,5.74-13.79,7.73-15.1,14.83-0.83,4.55,2.39,8.65,5.89,11.39a37.27,37.27,0,0,0,18.81,7.67c-7.3,2.61-16-1-22.49,3.4-6.64,4.58-6.38,14.39-5.33,22.32,1.22,9.24,2.59,18.86,7.84,26.33a197,197,0,0,0-31.44-11.3,117.28,117.28,0,0,0,14.6,39.41A35.1,35.1,0,0,1,386,298.32c-0.82,1.34-1.85,2.71-3.32,3.14a6.45,6.45,0,0,1-3.48-.28l-25.3-6.87c0.25-4.22.16-9.21-3.22-11.51a11,11,0,0,0-4.78-1.47,101.24,101.24,0,0,0-20.26-.75L324,267.43a8.8,8.8,0,0,0-1.21-4.05c-1.09-1.52-3-2.11-4.79-2.61L297.42,255l3.48-6.19"/><path class="cls-2" d="M366.75,147.08c-1,2,.63,4.19,2.42,5.27s4,1.74,5.16,3.49a17.25,17.25,0,0,0,1.36,2.22c1.6,1.72,4.54.92,6.49-.53s3.62-3.46,5.91-4.16c4.9-1.48,8.94,3.7,13.81,4.88,3.6,0.88,7.4-.51,11.12-1a21.9,21.9,0,0,1,19.85,8.42c1,1.37,1.93,3.07,1.52,4.79-1,4.17-8,3.91-9.51,7.94-1,2.76,1.4,5.54,4,6.56s5.63,1.09,8.07,2.49c4.22,2.43,5.36,9,2.28,13,4.94,1.4,9.55-3.38,12.8-7.64,2.28-3,4.71-6.68,3.58-10.18-0.4-1.23-1.21-2.29-1.5-3.55-0.37-1.6.15-3.29,0.34-4.95,0.79-6.7-3.64-12.57-8-17.38-5.23-5.72-11.06-11.3-18.44-13.64-7.89-2.5-16.54-1-24.82.54,1.25-3-.95-6.41-3.83-7.56s-6.17-.66-9.29-0.15c-9,1.46-18.17,3-26.47,7"/><path class="cls-3" d="M438.35,220.54c-4.33-3.14-10.47-4.36-15.21-1.5s-6.5,10.56-2.43,14a24.67,24.67,0,0,0-5.64,6.47,42.68,42.68,0,0,1,10.4,14.92,6.09,6.09,0,0,1,.64,3.27,6.94,6.94,0,0,1-1.83,3.17l-8,9.51a12.14,12.14,0,0,1-4.28,3.7c-1.74.72-4,.33-4.84-1.34-4.11,2.94-4.79,9.77-1.32,13.19,1,1,2.23,1.72,2.78,3,1,2.29-.84,5-3,6.41s-4.66,2.17-6.49,4c-3.11,3-3.12,8.45-.61,11.8s7,4.74,11.2,4.33a6.65,6.65,0,0,0,3.23-1c3.16-2.23,2.06-7.28,3.92-10.72,2.79-5.16,10.33-4.3,15.14-7.57,4.56-3.1,5.83-9.24,6.68-14.7L445,240.7c-3.42,0-6.09-3.93-5-7.27,0.64-1.89,2.18-3.35,3.05-5.15s0.66-4.49-1.18-5"/><path class="cls-2" d="M248.06,215.31a8.57,8.57,0,0,0,2.71-8,7.3,7.3,0,0,0,7.39-2.91,7.45,7.45,0,0,0,.34-8c3.48,2.7,8,4.26,12.41,3.36s8.45-4.6,9.05-9.13c0.21,5.26,4.75,8.93,8.89,11.9,3.35,2.4,6.8,4.85,10.82,5.83-0.8,4.73-6.23,6.77-10.27,9.32a4.19,4.19,0,0,0-1.94,2.08,4.46,4.46,0,0,0,.16,2.44q2.66,10.27,4.63,20.74a2.51,2.51,0,0,1-.37,2.36,2.3,2.3,0,0,1-1.68.39c-7-.29-19.2,7.1-25.09,3.4-3-1.89,4.58-11.07,5.94-14.53a78.79,78.79,0,0,0,2.16-10.31c0-19.34-12.89,6.71-13.42,6.66-3.22-.3-9.33-1.95-11.77-4-3.75-3.22,4.39-13.06-.42-14.24"/><path class="cls-3" d="M281.9,173.93a22.77,22.77,0,0,1,16.55,6.4c1.38,1.36,2.6,2.9,4.1,4.12a13.78,13.78,0,0,0,13.74,1.93,3.36,3.36,0,0,0,1.92-1.53c0.49-1.09-.13-2.3-0.75-3.28q-2.47-3.88-5.2-7.58a26.19,26.19,0,0,0-6.12-6.42c-4.82-3.24-11.06-3.3-16.93-3.25a4.93,4.93,0,0,0-3.18.77,5.27,5.27,0,0,0-1.34,2.15l-2.8,6.77"/><path class="cls-2" d="M404,335.08c6.15,3.54,15.42-1,16.8-8.3,0.72-3.8.21-8.87,3.72-10.4,2.16-.94,4.55.28,6.86,0.08,3.35-.28,5.88-3.41,7.36-6.54s2.38-6.61,4.61-9.26c4.74-5.62,13.19-5.22,20-3.53s14.25,4.13,20.82,1.06q4.4,11,8,22.42a16.8,16.8,0,0,1,1.11,6.34c-0.71,9-13.52,12.47-16,21.18-1.46,5.22,1.19,11.32-1.86,15.81-1.35,2-3.54,3.16-5.53,4.46-5.58,3.67-10.47,10.84-7.66,16.73-6.39,4.32-14.66,1.52-21.5-1.39l1.19-8.69a43.48,43.48,0,0,0-14.77-6.64,95.54,95.54,0,0,0-7.74,21.06l-7.12-8.65a2.63,2.63,0,0,1-.84-2c0.21-1.17,1.64-1.53,2.7-2,2.35-1.12,3.59-3.95,3.61-6.56a20.12,20.12,0,0,0-1.89-7.46c-1.89-4.77-3.82-9.61-7-13.59-3.34-4.22-8.33-8.78-6.51-14.07"/><path class="cls-3" d="M388.48,394.78c0.49,3.64,3.66,6.26,7,7.43s7,1.25,10.58,1.89a33.34,33.34,0,0,1,13.66,5.82c2.82,2.05,5.41,4.69,6.44,8.1s0.13,7.68-2.82,9.79c-3.83,2.74-9,.82-12.64-1.93-8.28-6.32-13.2-16.33-21.32-22.85"/><path class="cls-3" d="M92.46,357.5c2.75,2.7,5.58,5.45,9.1,7s7.92,1.74,11.17-.57c2-1.44,3.41-3.67,5.43-5.1,3.85-2.73,9-1.95,13.27-.4s8.51,3.76,13.11,3.54c7.88-.37,15.66-7.77,22.83-4.74l9.43-32.87a20,20,0,0,0,9.23-2.24c5.38,3.47,3.4,14.56,9.7,15.85-4.56,4.62-4.5,13,.12,17.22l-4.53,9.39c5.72,2.58,8,9.57,12.77,13.69a31.09,31.09,0,0,0,8.52,4.71l17.06,7.22A32.08,32.08,0,0,0,253.23,405c2.34,0.25,4.81.27,6.81,1.47s3.42,3.68,5.6,4.85c3.05,1.63,7.37.58,9.79,3.07,1.94,2,1.67,5.31,1.26,8.17l-2.21,15.62a316.74,316.74,0,0,1-46-23.23c-4.12-2.52-8.19-5.14-12.25-7.76-4.23-2.72-8.46-5.45-12.5-8.44-3.2-2.36-6.37-4.94-10.18-6.08-4.4-1.32-9.89-.91-12.66-4.6-1.35-1.79-2.21-4.58-4.45-4.62-1.68,0-2.92,1.59-4.24,2.71-3.76,3.19-9.28,2.57-13.66.77s-8.42-4.59-13.13-5.32c-5.3-.82-10.95,1.08-16.08-0.4-3.1-.9-5.71-3-8.66-4.24-4-1.73-8.42-2-12.73-2.66a74.45,74.45,0,0,1-22.23-7,8.91,8.91,0,0,1-3.93-3.08c-0.87-1.46-.78-3.69.64-4.72a7.35,7.35,0,0,0,9.34-1"/><path class="cls-3" d="M70.83,340.68a29.68,29.68,0,0,0-8.1-17.82,10.7,10.7,0,0,0-5.7-3.48c-2.08-.34-4.24.31-6.33,0-6.29-.83-8.64-9.1-14.32-11.86-2.08-1-4.48-1.2-6.66-2-4.56-1.65-7.72-5.73-11.6-8.64s-9.75-4.48-13.46-1.06a3.47,3.47,0,0,0-1.32,2.84,4,4,0,0,0,1.39,2.17,89.61,89.61,0,0,0,17.46,13.22A6.4,6.4,0,0,1,25,316.48c1.44,2.86-1.71,6-2.42,9.26s1.07,6.23,3.54,8,5.54,2.46,8.54,3.07a160.33,160.33,0,0,0,27.67,3.59"/><path class="cls-2" d="M174.78,399.28a139.57,139.57,0,0,0,39,20.34c4.54,1.52,9.2,2.82,13.39,5.11,5.25,2.87,9.55,7.18,14.21,10.93a80.83,80.83,0,0,0,39.91,17c3.89,0.51,8.25.62,11.4-1.93,1.16-.93,2.06-2.16,3.21-3.11a17,17,0,0,1,6-2.73L328.05,437a14,14,0,0,1,5.44-.89c2.31,0.25,4.28,1.64,6.14,3l43.88,31.77a90.08,90.08,0,0,0-12.67,23.17c-1.22,3.32-2.32,6.83-4.72,9.41a16.83,16.83,0,0,1-5.95,3.86c-6.19,2.58-12.94,3.09-19.53,3.13-21.63.12-44.48-5.44-58.39-21.81-1.19-1.4-2.36-2.91-4-3.64-2.79-1.23-6,.05-9.06.83-12.39,3.19-24.94-2.47-35.36-9.41s-20.17-15.44-32.23-18.9c1.26-3.34-1-6.88-3.83-8.86s-6.15-3.17-8.49-5.66c-3-3.17-3.76-7.87-5.75-11.78-3.8-7.43-11.73-11.55-19.58-14.1s-16.19-4-23.32-8.16c4.66-4.81,12.79-4.11,17.54-8.83,1.17-1.16,2.11-2.64,3.55-3.41,4.53-2.44,9.33,3.66,14.3,2.63"/><path class="cls-3" d="M460.69,265.18c2.41-2.69,6.77-2.52,10.08-1.06s6.09,3.93,9.39,5.39a17.33,17.33,0,0,0,10.36,1.12,3.26,3.26,0,0,1,2.12,0,3,3,0,0,1,1.2,1.71l4.76,12.27a4.25,4.25,0,0,1,.38,3c-0.75,2-3.66,1.69-5.51.68-4.83-2.64-8.23-7.7-13.48-9.38-2.7-.87-5.61-0.73-8.4-1.23A27.34,27.34,0,0,1,461.26,273a13.23,13.23,0,0,1-4.67-4.71c-1-2-.94-4.69.69-6.23"/><path class="cls-3" d="M453.95,230.12c-0.55-.49.42-1.22,1.15-1.28,6.36-.52,12.43,2.44,18.12,5.32l15.72,8c2.24,1.13,5,2.27,7.14,1,1.21-.7,2.35-2.13,3.67-1.67a3,3,0,0,1,1.39,1.35l5.22,8c1,1.6,1.83,4.24.08,5a3.32,3.32,0,0,1-1.69.12A239.87,239.87,0,0,1,480,252a25.22,25.22,0,0,1-6.47-2,26.59,26.59,0,0,1-4.17-2.89l-6-4.79c-2.87-2.27-5.83-4.67-7.41-8"/><path class="cls-2" d="M471.21,172.22c9.8,13.28,20,27,34.45,35a7.29,7.29,0,0,1,2.9,2.3,6.56,6.56,0,0,1,.71,2.93,77.1,77.1,0,0,1-.64,17.36,55.17,55.17,0,0,1-15.94-7.21c-3.26-2.16-6.3-4.66-9.74-6.5-2.46-1.31-5.1-2.27-7.52-3.66A27.08,27.08,0,0,1,462.75,194a33.9,33.9,0,0,1,3.89-22.28"/><path class="cls-3" d="M353,65.36a40.33,40.33,0,0,1,16.13,10.78C367.06,80.74,361,81.46,356,82s-11.16,2.69-11.51,7.72a17,17,0,0,0,6.69,5.19,30.16,30.16,0,0,1-8,3.16,16.17,16.17,0,0,0,18.1,7.72c3.33-.94,6.29-3,9.65-3.78a14.46,14.46,0,0,1,13.62,4c1.06,1.11,2.21,2.51,3.73,2.37a6.2,6.2,0,0,0,2.3-1.06c3-1.66,6.75-1,9.79.51s5.65,3.79,8.58,5.51a8.59,8.59,0,0,0,3.87,1.38c1.11,0.05,2.22-.27,3.33-0.18a9.41,9.41,0,0,1,4.07,1.68l15.4,9.43a14.19,14.19,0,0,1,4.93,4.18c1.15,1.84,1.27,4.53-.33,6a17.27,17.27,0,0,0,14.45,6.65,12.26,12.26,0,0,1,3.79,0c2.64,0.69,4,3.48,5.87,5.49s5.68,3,6.92.61c1.57,8.64,11.38,12.68,19.79,15.22l11.75,3.55c3.12,0.94,7.25,1.54,9-1.24a89.65,89.65,0,0,0-20.09-15.62c-3-1.73-6.36-3.48-7.89-6.62-2.56-5.26.88-12.55-3-16.92-3.49-3.93-9.79-2.24-15-2.65-8-.63-14.27-6.66-20.86-11.2a63.3,63.3,0,0,0-25.66-10.32,14.25,14.25,0,0,1-5.56-1.62,19.4,19.4,0,0,1-2.93-2.72c-3.91-3.87-9.31-5.81-14.63-7.23-2.34-.62-5-1.38-6.09-3.52a13.59,13.59,0,0,1-.87-3.68c-0.56-2.78-2.15-5.22-3.71-7.58-3.45-5.22-7-10.51-11.64-14.65s-10.77-7.09-17-6.7l-3,7.65"/><path class="cls-2" d="M285.75,91.07a6.7,6.7,0,0,1-4-1.31l-1.13,1.43c2.57,2.4,2.84,6.29,3.49,9.74s2.5,7.37,6,7.82a15.66,15.66,0,0,0,4.5-6.47,12.3,12.3,0,0,0,6,.86,2.36,2.36,0,0,0,1.2-.38,3,3,0,0,0,.84-1.76c1.55-5.87,8-8.78,13.66-10.91a4.67,4.67,0,0,1,2.43-.44c1.1,0.2,1.89,1.14,2.73,1.89a9.78,9.78,0,0,0,8.34,2.27A59.28,59.28,0,0,0,326.07,82a4.54,4.54,0,0,0-1.22-1.86A6.47,6.47,0,0,0,322,79.3c-4.63-.9-7.66-5.23-10.22-9.2-0.93-1.43-2.63-3.05-4.05-2.11a4.49,4.49,0,0,0-1.24,2,6,6,0,0,1-3.82,3.17c-1,.27-2.28.4-2.72,1.36a3.73,3.73,0,0,0,0,2.11c0.57,3.72-2.56,6.87-5.4,9.33a8.52,8.52,0,0,1-2.9,1.88c-1.51.47-3.14,0.07-4.71,0.21s-3.34,1.27-3.15,2.83"/></svg>