<svg id="Layer_1" data-name="Layer 1" xmlns="http://www.w3.org/2000/svg" width="512" height="512.07" viewBox="0 0 512 512.07"><defs><style>.cls-1{fill:#7da840;}.cls-2{fill:none;}.cls-3{fill:#95b43d;}.cls-4{fill:#a2c23a;}</style></defs><title>grass</title><rect class="cls-1" y="0.07" width="512" height="512"/><path class="cls-2" d="M474.77,0h4.47A34.19,34.19,0,0,0,474.77,0Z" transform="translate(0 0.07)"/><path class="cls-2" d="M155.87,12.15c4.91,3.42,13.13,1.45,14.74-4.32,1,4.57,2.1,9.38,5.27,12.83s9.11,4.81,12.5,1.58l-2.85-9.77c7,0.75,12.54-5.4,18.62-8.94s16.91-1.72,16.2,5.28c-0.87,8.59-17.06,7.1-19.09,15.49-1.22,5.06,4.56,9.58,9.75,9.19s9.55-3.9,13.53-7.25A16.68,16.68,0,0,1,216,39.87l9.35,15.3a24.32,24.32,0,0,1,6.11-10l8.09,7.37,10.74-9.86a39.53,39.53,0,0,1-2.37,18.73,28,28,0,0,0,14.52-1.13L262,59.5l6.66-2.35a27.42,27.42,0,0,1-6.24,3.12L272.57,79a14.79,14.79,0,0,0,4.62-13.87,57.77,57.77,0,0,0,26.58,22.51c0.72-6.26-5.87-12.19-12-10.81,4.5-4.86,13-3.8,17.88.69s6.86,11.28,7.93,17.82c0.72,4.38,1.18,9,3.59,12.71s7.55,6.16,11.39,3.94,2.86-9.71-1.58-9.66c4.52-4.45,28-10.15,29.33-3.95,0.86,4.09-1.21,8.25-1.05,12.43s5.14,8.58,8.13,5.66c1.25-1.22,1.42-3.13,2-4.8,2.67-8.21,17.13-7.81,19.35.53-3.41,11,5.12,24,16.56,25.31,5.69-2.25,7.64-10.71,3.51-15.21,11.69,2.91,15.74,20.87,6.41,28.51,4.12,1.91,9.2-.64,11.66-4.46s3-8.54,3.38-13.06c6.66,2.09,7.13,11.29,5.82,18.15s-2.37,15.55,3.5,19.33c-0.88-5.16,5.47-9.16,10.6-8.1s9,5.23,12.4,9.18l14-9.94,5.65,28.86,8.47-4.75L493,200.76c5-1.29,10.49-1.88,15.31,0A13.29,13.29,0,0,1,512,203V141.68a13.69,13.69,0,0,1-9.28-3.72c2.05-2.34,4.22-5,4.24-8.07s-3.49-6.2-6.13-4.56a8.63,8.63,0,0,1-6.16,8.73c-0.7-4.18.66-8.49,0-12.68s-4.93-8.45-8.7-6.51c-1.35.7-2.26,2-3.56,2.83-2.82,1.72-6.44.43-9.46-.89a17,17,0,0,0,.64-15.18c-3.18,8-13.92,11.91-21.5,7.82a30.68,30.68,0,0,1-5.91-4.56A46.41,46.41,0,0,0,459.35,94c-3.85,1.8-7.81-2.2-10-5.81s-5.56-7.91-9.68-6.86c-1.57,3.59,1.7,7.25,3.81,10.55s1.72,9.41-2.19,9.25c-5.33-4-9.27-9.48-13.7-14.44s-9.78-9.6-16.31-10.86-14.31,2-16,8.47c-6.47-2.17-9.69-10.88-6.2-16.74-0.27-4.46-6.55-6.31-10.42-4.09s-5.76,6.68-7.39,10.84a56.83,56.83,0,0,0-6.37-20.73A43.6,43.6,0,0,1,351,62.21c-2.83,1.1-7.25,1-7.58-2a5.35,5.35,0,0,1,1.27-3.38l7-10.42a20.05,20.05,0,0,1-34.22-4.15c1.72,2.29,5.55,1.82,7.59-.18,1.74-1.71,2.54-4.11,3.13-6.51-1.1,2.34-5,3-7.51,1.56-2.89-1.67-4.56-4.81-7-7.11A15.24,15.24,0,0,0,297.63,27a7.55,7.55,0,0,1,9.8-1.59c2.59-3.53-.13-8.86-4.09-10.73s-8.56-1.41-12.93-1.37c-2,0-4.8-1.39-3.75-3.09a9.58,9.58,0,0,0,4.87-6.86,10.71,10.71,0,0,1-13.84,3.53,9.2,9.2,0,0,0,3-6.95H150.48C150.32,4.71,152.05,9.49,155.87,12.15Z" transform="translate(0 0.07)"/><path class="cls-2" d="M403.55,6.12c0,2.61.23,5.58,2.27,7.22,3.12,2.51,7.58,0,11.06-2s9.21-2.53,10.26,1.33l-6.84,8.49a53.86,53.86,0,0,0,15.68,1l-3.58,10A26,26,0,0,0,441.2,31l-0.1-4.55A33.87,33.87,0,0,1,451.77,52.3l6.38-4.44a14.77,14.77,0,0,0-2.64-7.45c5.49,1,17.87-2.5,19.44,2.84,1,3.43.84,7.32,2.87,10.26,2.51,3.64,7.43,4.53,11.82,5.1l-3.92,3L487,67.18c4.72-1.53,9.9-2.28,14.63-.76s8.81,5.75,9,10.71c0.08,2.87-1.1,5.64-1.18,8.51,0,1.78,1,2.55,2.56,2.79V30.94l-10.87-2.77a25.17,25.17,0,0,1,3.93-7.8,10,10,0,0,0-19.39-.27c-1.45-3.14-2.92-6.37-3.13-9.82s1.1-7.22,4.09-9A33.36,33.36,0,0,0,479.24,0h-4.47a33.62,33.62,0,0,0-10.24,2.29A25.17,25.17,0,0,0,465.91,0h-56A8.55,8.55,0,0,1,403.55,6.12Z" transform="translate(0 0.07)"/><path class="cls-2" d="M501.52,428.09c5.16-13.13-26.88-16.72-23.67-30.46-1.15,8-12.63,12.27-18.72,6.89l7.78-3.3c2.39-4.8-3.53-10.06-8.9-10.1s-10.36,2.77-15.7,3.35-12-2.8-11.39-8.13c8.82-2.84,6-18.32-3.08-20.24s-17.7,6.42-19.64,15.48a45,45,0,0,1-11.93-21c-5.26,5.35-14.6,4.35-20.61-.15s-9.48-11.52-12.73-18.28a9.6,9.6,0,0,1,10.75.54c-10.63-14-23.9-26.21-38.44-16.36-2.62,1.77-5.05,3.94-8,5a11.74,11.74,0,1,1-7.13-22.37,33.75,33.75,0,0,0-27.65,10.45c-6.26-4.85-21.24-1.09-27.5-5.95,2-8.29,7-26.25-.09-31-3.55,6.51-19,19.78-26.39,20.76-3.37-7.59,2-23.8-1.39-31.39,7.68,0.18,11.07-11.38,6.1-17.24s-14-6.36-21.37-4.25-14.06,6.28-21.47,8.34-16.44,1.41-21.28-4.55l13.35-10.55a82.87,82.87,0,0,1-41-2.79,15.45,15.45,0,0,0-2-14.54c-7.43,6.44-20.47,4.5-25.7-3.83l11.67-9.06c-15.57,2.79-32.55,5.37-46.45-2.19-6.14-3.34-14-8.44-19.11-3.67-2.44,2.28-3,6.17-5.75,8.11-6.38,4.54-12.79-5.78-13.92-13.53l24-3c-2.52-6.81-5.51-14.18-11.87-17.68s-16.63.29-16.18,7.54c-6.47-4.71-22.11-1.43-24-9.2-1.74-7,3.5-15.7,10.17-15.77A45.43,45.43,0,0,1,6.43,150.29L0,163.71v50.58a14.66,14.66,0,0,1,4.35,13.64,12.19,12.19,0,0,0,11.82-.66,12.84,12.84,0,0,0-5.4,5.59c4.53,10.09,17.42,15.49,27.79,11.65l-6.63,8.71c10.93-3.17,23.72,2.25,29,12.31a10.81,10.81,0,0,0-5.52,8.15A30.29,30.29,0,0,0,73.11,272c5.64,5.16,3.77,16-3.26,19,7.08,3.91,15.67-.35,22.91-4s17.11-6.17,22.51-.15l-7,7.66a39.46,39.46,0,0,0,35.29-9.23c5.44,6.22,1.86,17.73-6.15,19.76q16.78-2.47,33.3-6.35a135.48,135.48,0,0,1-1.21,25.09c12.56-.28,25.63,1.84,33-10.62,5.17-8.79,14.8.77,17.48,10.61,2,7.51,2.69,16.76-3.16,21.9a65,65,0,0,0,28.27-11.3,21.75,21.75,0,0,1-12.42,24c13.67,6.45,31.64,1.75,40.42-10.56,4.38,5.67,8.94,11.78,9.52,18.93a15.15,15.15,0,0,1-4.94,12.24c12.7-4,27.07-5.47,34.88,4.46A34.1,34.1,0,0,0,301,389.26L327.63,390c2.77,0.07,5.66.17,8.11,1.49,5.55,3,6.32,10.39,8.37,16.35,1.76,5.11,7.46,10.06,11.91,8.62l2.1-1.27a5.4,5.4,0,0,1-2.1,1.27L341.92,425c6.71,3.69,15,.63,21.83-2.88s14.26-7.6,21.68-5.72S397,430,390.12,433.44c9.2-4.23,23.17-6.72,26.77,2.74,1,2.57.92,5.75,3,7.57s5.18,1.35,7.44,0a39,39,0,0,1-24.39,10.39,57.08,57.08,0,0,0,40.74-1.56c-1,10.91,15.27,18.35,22.86,10.44,1.19-1.23,2.17-3,1.47-4.6a1.58,1.58,0,0,0-.32-0.46,11.44,11.44,0,0,0-3.3.76c-0.09-1.52,2.28-1.81,3.3-.76,6.27-.54,12.94,3.8,14.33,10.05s-2.82,13-8.72,15.16c7.72-1.62,15.55-3,23.37-2.22A34.11,34.11,0,0,1,512,486.14V422.42l-10.94-11.7A13.29,13.29,0,0,1,501.52,428.09Z" transform="translate(0 0.07)"/><path class="cls-2" d="M395.91,494.45a11,11,0,0,1,11.54-2.13c-6.57-5.19-16-1.5-24.23,0s-19.75-3.54-17.35-11.47a91.39,91.39,0,0,1-9.93-6.32c-6.71-4.54-18.52-5.8-20.59,2l0.89-.16,6.74-2a30.12,30.12,0,0,1-6.74,2l-0.93.27,0-.12A32,32,0,0,1,312.22,471c-3.44-2.48-6.6-6.54-5.42-10.62,1.39-4.81,7.72-6.1,12.64-5.17s9.83,3.2,14.72,2.14l-7.09,7.06a16.91,16.91,0,0,0,11.38-7.26C331.88,443.27,310,440.38,300,452a9,9,0,0,0-15-10.08c-0.08-6.34-6.24-11.92-12.56-11.37a11.27,11.27,0,1,1-22.24-3.73l10.17-2.64c-8.58-7.6-22.57-8.16-31.73-1.27a34.87,34.87,0,0,0-22-27.52,11.81,11.81,0,0,1-9.05,13.51,20.32,20.32,0,0,1-6.37-15.12,58.37,58.37,0,0,1-37,4.6c4.61-1.09,9.4-2.27,13.09-5.25s5.92-8.33,3.86-12.6c-2.16-4.46-8.13-5.93-12.89-4.55s-8.58,4.85-12.21,8.23l-1.48-14.9a31.33,31.33,0,0,0-21.06,10.54A21.88,21.88,0,0,0,117.68,358c2.34,3.82-1.28,9-5.66,10s-8.83-.88-12.92-2.69a17.65,17.65,0,0,0,2.2-20.06c-6.49-1.75-12.36,3.82-17.48,8.17S70.2,361,66,355.8l6.15-11.88a108.55,108.55,0,0,0-28.32-6.24c5.67-.19,10.07-6.87,8-12.16A19.24,19.24,0,0,1,30.12,324a23.46,23.46,0,0,0,8-5.18c-2.56,1.26-7-1.18-9.55-3.61-3.22-3-10.41-4.09-10.29.32C17,306.28,9.06,298.58,0,296.67V377.6c6.75,0.49,13.65-4.33,15.27-11a12.26,12.26,0,0,0,13,5.47,10.37,10.37,0,0,1-4.69,9.61c6.49-.65,12-5,18.32-6.62s15,1.38,14.88,7.89a46.1,46.1,0,0,0-8.08,11.07A50.23,50.23,0,0,1,76.82,387a31.58,31.58,0,0,1-.51,16.5L91,396.1c1.85-.93,3.83-1.88,5.89-1.68,4.63,0.46,6.62,6,7.58,10.54-3.08-.68-6.24,1.34-7.89,4s-2.12,5.91-2.55,9A58.79,58.79,0,0,0,133,404.65l-8.46,9.44c-0.87,1-1.8,2.1-1.7,3.39a4.38,4.38,0,0,0,1.43,2.56,20.06,20.06,0,0,0,18.92,5.46c3.74-.93,7.48-3,11.23-2.07,5,1.2,7,6.58,7.86,11.88,8.78-1.67,18.42.7,24.78,7l-14.23-1.65a17.65,17.65,0,0,0,27.92,16.76,9.43,9.43,0,0,1-6.32,9.85,77.68,77.68,0,0,0,33.3-9.39,17.63,17.63,0,0,1-3.84,16.19l21.38-6.62a12.11,12.11,0,0,0,7.54,8.47A31.66,31.66,0,0,0,238.91,485l24-3.91c2.15-.35,4.58-0.64,6.32.68,3.51,2.67.9,8.82,3.51,12.38a20.59,20.59,0,0,1,16.08.79,3.76,3.76,0,0,1,1.89,1.6,4,4,0,0,1-.38,3.19A54.4,54.4,0,0,1,283,512H410.85C404.08,507.79,398.68,502.08,395.91,494.45Z" transform="translate(0 0.07)"/><path class="cls-2" d="M0,381.11v0.39l0.13,0Z" transform="translate(0 0.07)"/><path class="cls-2" d="M27.14,85.49L16.43,83.64c5.78,4.15,11.8,8.37,18.76,9.83s15.17-.57,18.88-6.65L42.24,109.58c22.32,7.32,42.33,20.14,64.49,12.34a20.48,20.48,0,0,1-5.55,22.46c9.49,11.3,27.24,14.61,40.16,7.49l-11.83,15.56c8.81,6.69,21.54,1.93,30.72-4.24s18.8-14,29.79-12.79c-0.09,6.59-2.54,12.93-3.18,19.49s1.2,14.18,7.05,17.22c5.36,2.78,11.85.7,17.51-1.41l-8,8.18a60.24,60.24,0,0,0,46.4-3.21A70.24,70.24,0,0,1,239.63,209a41.09,41.09,0,0,0,30.53-5A11.84,11.84,0,0,0,289,217.85c9.29,2.81,11.2,17.88,2.9,22.91a33.78,33.78,0,0,0,37.19,5.8c5.4-2.64,9.66-10.62,6.18-14.29-0.54-.39-1.08-0.78-1.64-1.14a5.11,5.11,0,0,1,1.64,1.14c15,10.94,22.75,31.07,18.76,49.22a28.91,28.91,0,0,0,20.4-5.57c-5.08,3.69,0,12.44,6.21,13.28s12.17-2.49,18.35-3.59,14.34,1.88,14.3,8.16c-3.7,3.86-2.68-5.37-6.37-1.51a48.32,48.32,0,0,0,46.45,18.06l-6.69,15.34a26.56,26.56,0,0,1,25.71,5.43c2,1.82,3.88,4,6.51,4.68,6.16,1.49,9.76-6,14.83-10.21a3.52,3.52,0,0,1,4-2.34,12.35,12.35,0,0,0-4,2.34c-1.2,2.74-.74,7.24.82,10.24,2.48,4.77,3.87,12.76-1.44,13.6l18.85,8.7V275.72a35,35,0,0,0-5,2.46,34.56,34.56,0,0,1-4.32-14.4l-9.51,2.86-2.58-16.74c-0.64-4.16-1.37-8.52-4-11.84s-7.7-5.08-11.12-2.62c-4.23,3-3.06,9.64-.62,14.23s5.84,9.42,4.65,14.48-6.59,8-11.71,8.56c-6.65.75-14.13-2.07-16.93-8.14-2.3-5,.18-11.77,4.85-14,0.34-1.44,2.95-2.42,3.31-.75a7.5,7.5,0,0,0-3.31.75,1.31,1.31,0,0,0,.09.88c0.86,1.85,3.83,1.6,5.12,0s1.39-3.78,1.42-5.82l0.27-17c0.06-3.87-.41-8.61-3.95-10.16-4.36-1.91-8.66,2.92-10.36,7.35-0.77,2-1.35,4.4-.18,6.2a2.48,2.48,0,0,0,.9.81,15.26,15.26,0,0,0,3.94-1.38c-0.08,1.74-2.43,2.21-3.94,1.38-11.4,2.35-24.65-8.12-23.34-20.11a32.17,32.17,0,0,1-32.24,16.87,12.5,12.5,0,0,1,7.44-15.15,41,41,0,0,0-27.86-1l2.19-13.44c-1.5,8.75-15.21,10.82-20.81,3.93s-3.07-18,3.59-23.83c-5.34,3.74-11.59,7.56-18,6.14-5.51-1.23-9-8.82-6.12-12.89-8,6.46-15.48,3.57-26.43.83l5.8-4.73c-2.77-7.44-10.54-13.42-18.36-12s-12.92,12.06-7.73,18.08a75.31,75.31,0,0,1-18.07-25c-1.42-3.2-2.63-6.78-1.66-10.14,0.79-2.72,3.62-4.94,6.27-4.75-13-3.53-31.61,2.27-44.3,5.82,6.75-3.86,3.78-11.49,10.53-15.35-11.86,3.06-14.31,8.62-26.54,9.09-1.56.06-3.26,0.06-4.52-.86-3.62-2.63,0-8.49-1.26-12.78-1.8-6.06-10.72-4.74-16.48-2.14a51.42,51.42,0,0,0,8.37-11.83c-9,1.92-12.07-9.8-21-7.88l9.93-9.26a59.88,59.88,0,0,1-42.18-5,18.48,18.48,0,0,1,7.88-10.07c-4.27-10.74-18.92-15.61-28.87-9.94a11.28,11.28,0,0,1-1,.64c0.34-.23.69-0.44,1-0.64A13.15,13.15,0,0,0,130.1,50.6l-26.64,7.9-1.69-8.76a36.29,36.29,0,0,1-33.68.61A21,21,0,0,0,79.91,35.62a21.69,21.69,0,0,1-17.59,3.46L59.29,22A86.79,86.79,0,0,0,37.9,26.38a14.05,14.05,0,0,0,5.5-6.62C41.82,11.16,30.53,17,23,12.51l3,0.22C28.92,6.6,34.61,2.42,41,0H0V52.21C15,55.5,27.82,69.84,27.14,85.49Z" transform="translate(0 0.07)"/><path class="cls-2" d="M177.86,512h12.71C186.42,509.8,181.08,509.5,177.86,512Z" transform="translate(0 0.07)"/><path class="cls-2" d="M501.34,512H512v-8.35A51.17,51.17,0,0,1,501.34,512Z" transform="translate(0 0.07)"/><path class="cls-2" d="M180.26,499.87a11.19,11.19,0,0,0-19.71,9.44c-12.72-4.25-19.47-20.93-13.3-32.83a12,12,0,0,1-19.65-11,14.7,14.7,0,0,0-9.13,16.87A34,34,0,0,1,98.82,466.1c-1.28-2.41-2.83-5.37-5.55-5.45-6-.19-3.76,11.59-9.24,14.06,0.21-5.26.32-10.93-2.63-15.3s-10.2-6.1-13.39-1.91c-1,1.29-1.8,3.17-3.42,3.16a3.27,3.27,0,0,1-1.91-.83c-6.67-5.16-5.54-17.32,2-21.17-3-4.36-9.6-1.13-14.59.63a20.94,20.94,0,0,1-21.41-5,37.28,37.28,0,0,0,16.64-6.68c1.45-3.8-2.16-8-6.17-8.71s-8,1.09-11.59,3-7.25,4.09-11.31,4.28c-6.61.31-12-4.52-16.21-9.88v55.15c4.66,3.13,10.56,4.41,15.91,2.59l-1.44,9a24.08,24.08,0,0,1,11-6,12.73,12.73,0,0,1,2.36,9.72,11.77,11.77,0,0,1,16.09,1.93c-4.6,0-7.17,7-3.69,10a17.89,17.89,0,0,0,16.83-5.85c3.71,4.43,2.1,11.82-2.45,15.08l15.28-7.12a4,4,0,0,1,2.78-.55,4,4,0,0,1,2,2L80.51,512h94.22A12,12,0,0,1,180.26,499.87Z" transform="translate(0 0.07)"/><path class="cls-3" d="M32.16,163.94c0.75,0.12,1.51.23,2.27,0.31A7.91,7.91,0,0,0,32.16,163.94Z" transform="translate(0 0.07)"/><path class="cls-3" d="M333.66,231.12c0.56,0.37,1.1.75,1.64,1.14A5.11,5.11,0,0,0,333.66,231.12Z" transform="translate(0 0.07)"/><path class="cls-3" d="M493.15,349.38c5.31-.83,3.91-8.83,1.44-13.6-1.56-3-2-7.5-.82-10.24-5.07,4.25-8.67,11.7-14.83,10.21-2.63-.64-4.51-2.86-6.51-4.68a26.56,26.56,0,0,0-25.71-5.43l6.69-15.34a48.32,48.32,0,0,1-46.45-18.06c3.7-3.86,2.68,5.37,6.37,1.51,0-6.28-8.12-9.26-14.3-8.16s-12.13,4.44-18.35,3.59-11.29-9.6-6.21-13.28a28.91,28.91,0,0,1-20.4,5.57c4-18.15-3.78-38.28-18.76-49.22,3.48,3.67-.78,11.66-6.18,14.29a33.78,33.78,0,0,1-37.19-5.8c8.3-5,6.39-20.11-2.9-22.91A11.84,11.84,0,0,1,270.16,204a41.09,41.09,0,0,1-30.53,5,70.24,70.24,0,0,0,10.23-18.32,60.24,60.24,0,0,1-46.4,3.21l8-8.18c-5.66,2.11-12.15,4.2-17.51,1.41-5.85-3-7.69-10.66-7.05-17.22s3.09-12.9,3.18-19.49c-11-1.18-20.62,6.62-29.79,12.79s-21.91,10.93-30.72,4.24l11.83-15.56c-12.92,7.12-30.67,3.81-40.16-7.49a20.48,20.48,0,0,0,5.55-22.46c-22.15,7.8-42.17-5-64.49-12.34L54.07,86.82c-3.71,6.07-11.92,8.1-18.88,6.65s-13-5.68-18.76-9.83l10.71,1.86C27.82,69.84,15,55.5,0,52.21v111.5l6.43-13.42a45.43,45.43,0,0,0,25.74,13.65,7.91,7.91,0,0,1,2.27.31c-0.76-.08-1.52-0.19-2.27-0.31C25.49,164,20.26,172.71,22,179.7c1.93,7.77,17.57,4.49,24,9.2-0.45-7.25,9.82-11,16.18-7.54S71.57,192.24,74.09,199l-24,3c1.13,7.75,7.54,18.08,13.92,13.53,2.72-1.94,3.31-5.83,5.75-8.11,5.11-4.77,13,.33,19.11,3.67,13.9,7.56,30.88,5,46.45,2.19l-11.67,9.06c5.23,8.33,18.27,10.28,25.7,3.83a15.45,15.45,0,0,1,2,14.54,82.87,82.87,0,0,0,41,2.79L179,254.15c4.84,6,13.88,6.61,21.28,4.55s14.08-6.23,21.47-8.34,16.4-1.61,21.37,4.25,1.58,17.43-6.1,17.24c3.37,7.59-2,23.8,1.39,31.39,7.35-1,22.84-14.25,26.39-20.76,7.11,4.7,2.08,22.66.09,31,6.26,4.85,21.24,1.09,27.5,5.95a33.75,33.75,0,0,1,27.65-10.45,11.74,11.74,0,1,0,7.13,22.37c3-1,5.43-3.18,8-5,14.54-9.85,27.81,2.37,38.44,16.36a9.6,9.6,0,0,0-10.75-.54c3.26,6.76,6.73,13.78,12.73,18.28s15.35,5.5,20.61.15a45,45,0,0,0,11.93,21c1.94-9.06,10.58-17.39,19.64-15.48s11.9,17.4,3.08,20.24c-0.62,5.33,6.06,8.71,11.39,8.13s10.33-3.39,15.7-3.35,11.29,5.29,8.9,10.1l-7.78,3.3c6.09,5.38,17.57,1.16,18.72-6.89-3.2,13.74,28.84,17.33,23.67,30.46a13.29,13.29,0,0,0-.46-17.37L512,422.42V358.08Z" transform="translate(0 0.07)"/><path class="cls-3" d="M493.77,325.55a12.35,12.35,0,0,1,4-2.34A3.52,3.52,0,0,0,493.77,325.55Z" transform="translate(0 0.07)"/><path class="cls-3" d="M473.3,483.13a11.44,11.44,0,0,1-3.33.71l3.33-.71c5.9-2.17,10.11-8.91,8.72-15.16s-8.06-10.59-14.33-10.05a1.58,1.58,0,0,1,.32.46c0.7,1.56-.29,3.37-1.47,4.6-7.59,7.9-23.87.46-22.86-10.44a57.08,57.08,0,0,1-40.74,1.56,39,39,0,0,0,24.39-10.39c-2.26,1.39-5.45,1.79-7.44,0s-2-5-3-7.57c-3.6-9.46-17.57-7-26.77-2.74,6.84-3.45,2.73-15.2-4.69-17.07s-14.88,2.21-21.68,5.72-15.12,6.57-21.83,2.88l14.1-8.57c-4.45,1.44-10.15-3.51-11.91-8.62-2.05-6-2.82-13.37-8.37-16.35-2.44-1.31-5.33-1.42-8.11-1.49L301,389.26a34.1,34.1,0,0,1,11.51-5.74c-7.82-9.93-22.18-8.42-34.88-4.46a9.49,9.49,0,0,1-7,2.45c2.23-.87,4.57-1.7,7-2.45a15.15,15.15,0,0,0,4.94-12.24c-0.58-7.14-5.14-13.26-9.52-18.93-8.77,12.31-26.74,17-40.42,10.56a21.75,21.75,0,0,0,12.42-24,65,65,0,0,1-28.27,11.3c5.85-5.14,5.2-14.38,3.16-21.9-2.68-9.84-12.31-19.4-17.48-10.61-7.33,12.46-20.39,10.33-33,10.62a135.48,135.48,0,0,0,1.21-25.09q-16.51,3.88-33.3,6.35c8-2,11.59-13.55,6.15-19.76a39.46,39.46,0,0,1-35.29,9.23l7-7.66c-5.4-6-15.27-3.46-22.51.15S76.93,295,69.85,291c7-3,8.91-13.86,3.26-19a30.29,30.29,0,0,1-17.67,1.65A10.81,10.81,0,0,1,61,265.52c-5.32-10.06-18.11-15.48-29-12.31l6.63-8.71c-10.37,3.84-23.26-1.57-27.79-11.65a12.84,12.84,0,0,1,5.4-5.59,12.19,12.19,0,0,1-11.82.66A14.66,14.66,0,0,0,0,214.28v82.39c9.06,1.91,17,9.61,18.23,18.89-0.12-4.41,7.06-3.33,10.29-.32,2.6,2.43,7,4.87,9.55,3.61,0.51-.51,1-1,1.48-1.59a3.13,3.13,0,0,1-1.48,1.59,23.46,23.46,0,0,1-8,5.18,19.24,19.24,0,0,0,21.68,1.5c2.06,5.29-2.34,12-8,12.16a108.55,108.55,0,0,1,28.32,6.24L66,355.8c4.25,5.21,12.74,2,17.86-2.36s11-9.91,17.48-8.17a17.65,17.65,0,0,1-2.2,20.06c4.1,1.81,8.55,3.66,12.92,2.69s8-6.18,5.66-10a21.88,21.88,0,0,1,5.93,21.86,31.33,31.33,0,0,1,21.06-10.54l1.48,14.9c3.63-3.37,7.45-6.85,12.21-8.23s10.74,0.09,12.89,4.55c2.06,4.27-.17,9.62-3.86,12.6s-8.47,4.15-13.09,5.25a58.37,58.37,0,0,0,37-4.6,20.32,20.32,0,0,0,6.37,15.12,11.81,11.81,0,0,0,9.05-13.51,34.87,34.87,0,0,1,22,27.52c9.16-6.89,23.15-6.33,31.73,1.27l-10.17,2.64a11.27,11.27,0,1,0,22.24,3.73c6.31-.55,12.48,5,12.56,11.37A9,9,0,0,1,300,452c9.95-11.66,31.84-8.76,38.41,5.08a16.91,16.91,0,0,1-11.38,7.26l7.09-7.06c-4.89,1.06-9.81-1.21-14.72-2.14s-11.25.36-12.64,5.17c-1.18,4.08,2,8.14,5.42,10.62a32,32,0,0,0,23.13,5.51c2.08-7.76,13.89-6.5,20.59-2a91.39,91.39,0,0,0,9.93,6.32l0-.08,12,1.11c-3.94,1.92-8,1-12.06-1-2.41,7.94,9.13,12.95,17.35,11.47s17.67-5.17,24.23,0a11,11,0,0,0-11.54,2.13c2.77,7.63,8.17,13.34,14.94,17.55h90.49A51.17,51.17,0,0,0,512,503.65V486.14a34.11,34.11,0,0,0-15.33-5.22C488.85,480.14,481,481.51,473.3,483.13Z" transform="translate(0 0.07)"/><path class="cls-3" d="M356,416.41a5.4,5.4,0,0,0,2.1-1.27Z" transform="translate(0 0.07)"/><path class="cls-3" d="M277.67,379.06c-2.4.75-4.74,1.59-7,2.45A9.49,9.49,0,0,0,277.67,379.06Z" transform="translate(0 0.07)"/><path class="cls-3" d="M473.3,483.13l-3.33.71A11.44,11.44,0,0,0,473.3,483.13Z" transform="translate(0 0.07)"/><path class="cls-3" d="M39.55,317.27c-0.46.55-1,1.08-1.48,1.59A3.13,3.13,0,0,0,39.55,317.27Z" transform="translate(0 0.07)"/><path class="cls-3" d="M336.24,476.32a30.12,30.12,0,0,0,6.74-2Z" transform="translate(0 0.07)"/><path class="cls-3" d="M464.39,458.68a11.44,11.44,0,0,1,3.3-.76C466.67,456.87,464.31,457.16,464.39,458.68Z" transform="translate(0 0.07)"/><path class="cls-3" d="M336.24,476.32l-0.89.16,0,0.12Z" transform="translate(0 0.07)"/><path class="cls-3" d="M377.93,481.86l-12-1.11,0,0.08C369.89,482.83,374,483.78,377.93,481.86Z" transform="translate(0 0.07)"/><path class="cls-3" d="M162.65,438.61c-0.1-1.07-.23-2.18-0.42-3.3a26.06,26.06,0,0,0-12.54,6A14.77,14.77,0,0,1,162.65,438.61Z" transform="translate(0 0.07)"/><path class="cls-3" d="M290.72,496.57a3.76,3.76,0,0,0-1.89-1.6,20.59,20.59,0,0,0-16.08-.79c-2.61-3.56,0-9.71-3.51-12.38-1.74-1.32-4.17-1-6.32-.68l-24,3.91A31.66,31.66,0,0,1,252.78,476a12.11,12.11,0,0,1-7.54-8.47l-21.38,6.62a17.63,17.63,0,0,0,3.84-16.19,77.68,77.68,0,0,1-33.3,9.39,9.43,9.43,0,0,0,6.32-9.85,17.65,17.65,0,0,1-27.92-16.76L187,442.35c-6.36-6.34-16-8.7-24.78-7,0.18,1.12.32,2.23,0.42,3.3a14.77,14.77,0,0,0-13,2.71,26.06,26.06,0,0,1,12.54-6c-0.87-5.3-2.9-10.68-7.86-11.88-3.75-.91-7.49,1.14-11.23,2.07a20.06,20.06,0,0,1-18.92-5.46,4.38,4.38,0,0,1-1.43-2.56c-0.09-1.3.83-2.42,1.7-3.39l8.46-9.44A58.79,58.79,0,0,1,94.07,418c0.43-3.12.9-6.35,2.55-9s4.81-4.71,7.89-4c-1-4.55-3-10.08-7.58-10.54-2.06-.2-4,0.75-5.89,1.68L76.31,403.5a31.58,31.58,0,0,0,.51-16.5,50.23,50.23,0,0,0-28.15,7.08A46.1,46.1,0,0,1,56.75,383c0.13-6.52-8.58-9.56-14.88-7.89s-11.83,6-18.32,6.62a10.37,10.37,0,0,0,4.69-9.61,12.26,12.26,0,0,1-13-5.47c-1.62,6.62-8.52,11.44-15.27,11v3.51l0.13,0.37L0,381.5v34.81c4.23,5.36,9.6,10.19,16.21,9.88,4.06-.19,7.72-2.36,11.31-4.28s7.58-3.69,11.59-3,7.61,4.91,6.17,8.71a37.28,37.28,0,0,1-16.64,6.68,20.94,20.94,0,0,0,21.41,5c5-1.76,11.59-5,14.59-.63-7.51,3.85-8.64,16-2,21.17a3.27,3.27,0,0,0,1.91.83c1.62,0,2.44-1.87,3.42-3.16,3.19-4.19,10.45-2.46,13.39,1.91s2.84,10,2.63,15.3c5.49-2.47,3.23-14.25,9.24-14.06,2.73,0.08,4.27,3,5.55,5.45a34,34,0,0,0,19.66,16.29,14.7,14.7,0,0,1,9.13-16.87,12,12,0,0,0,19.65,11c-6.18,11.91.58,28.58,13.3,32.83a11.19,11.19,0,0,1,19.71-9.44A12,12,0,0,0,174.74,512h3.12c3.22-2.5,8.57-2.2,12.71,0H283a54.4,54.4,0,0,0,7.34-12.24A4,4,0,0,0,290.72,496.57Z" transform="translate(0 0.07)"/><path class="cls-3" d="M54.62,507.88l-3,1.41A8.59,8.59,0,0,0,54.62,507.88Z" transform="translate(0 0.07)"/><path class="cls-3" d="M72.68,500.21a4,4,0,0,0-2.78.55l-15.28,7.12a8.59,8.59,0,0,1-3,1.41l3-1.41c4.55-3.26,6.16-10.65,2.45-15.08a17.89,17.89,0,0,1-16.83,5.85c-3.49-3-.91-10,3.69-10a11.77,11.77,0,0,0-16.09-1.93A12.73,12.73,0,0,0,25.49,477a24.08,24.08,0,0,0-11,6l1.44-9c-5.35,1.81-11.24.53-15.91-2.59V512H80.51l-5.79-9.74A4,4,0,0,0,72.68,500.21Z" transform="translate(0 0.07)"/><path class="cls-3" d="M273.73,135.67c0.62,0.17,1.22.35,1.81,0.56A4.14,4.14,0,0,0,273.73,135.67Z" transform="translate(0 0.07)"/><path class="cls-3" d="M455.71,250.57a7.5,7.5,0,0,1,3.31-.75C458.65,248.15,456,249.12,455.71,250.57Z" transform="translate(0 0.07)"/><path class="cls-3" d="M452.94,231.48a15.26,15.26,0,0,1-3.94,1.38C450.51,233.69,452.86,233.22,452.94,231.48Z" transform="translate(0 0.07)"/><path class="cls-3" d="M125.25,65.48c-0.35.2-.7,0.41-1,0.64A11.28,11.28,0,0,0,125.25,65.48Z" transform="translate(0 0.07)"/><path class="cls-3" d="M262,59.5l0.42,0.78a27.42,27.42,0,0,0,6.24-3.12Z" transform="translate(0 0.07)"/><path class="cls-3" d="M333.91,173.42c0.6-.48,1.19-1,1.79-1.6A5.32,5.32,0,0,0,333.91,173.42Z" transform="translate(0 0.07)"/><path class="cls-3" d="M26,12.73l-3-.22c7.52,4.48,18.8-1.35,20.39,7.25a14.05,14.05,0,0,1-5.5,6.62A86.79,86.79,0,0,1,59.29,22l3,17.08a21.69,21.69,0,0,0,17.59-3.46A21,21,0,0,1,68.09,50.35a36.29,36.29,0,0,0,33.68-.61l1.69,8.76,26.64-7.9a13.15,13.15,0,0,1-4.84,14.88c10-5.67,24.6-.8,28.87,9.94a18.48,18.48,0,0,0-7.88,10.07,59.88,59.88,0,0,0,42.18,5l-9.93,9.26c9-1.92,12.07,9.8,21,7.88a51.42,51.42,0,0,1-8.37,11.83c5.76-2.61,14.68-3.92,16.48,2.14,1.27,4.29-2.36,10.16,1.26,12.78,1.27,0.92,3,.92,4.52.86,12.24-.47,14.69-6,26.54-9.09-6.75,3.86-3.78,11.49-10.53,15.35,12.69-3.55,31.33-9.34,44.3-5.82a4.14,4.14,0,0,1,1.81.56c-0.59-.21-1.2-0.39-1.81-0.56-2.65-.19-5.48,2-6.27,4.75-1,3.36.24,6.94,1.66,10.14a75.31,75.31,0,0,0,18.07,25c-5.18-6-.08-16.67,7.73-18.08s15.59,4.56,18.36,12l-5.8,4.73c10.95,2.75,18.47,5.63,26.43-.83a5.32,5.32,0,0,1,1.79-1.6c-0.6.59-1.2,1.12-1.79,1.6-2.87,4.06.6,11.65,6.12,12.89,6.37,1.42,12.61-2.4,18-6.14-6.66,5.87-9.19,16.94-3.59,23.83s19.31,4.82,20.81-3.93L373,213.5a41,41,0,0,1,27.86,1,12.5,12.5,0,0,0-7.44,15.15,32.17,32.17,0,0,0,32.24-16.87c-1.32,12,11.94,22.46,23.34,20.11a2.48,2.48,0,0,1-.9-0.81c-1.17-1.8-.59-4.19.18-6.2,1.71-4.44,6-9.26,10.36-7.35,3.54,1.55,4,6.3,3.95,10.16l-0.27,17c0,2-.12,4.24-1.42,5.82s-4.26,1.82-5.12,0a1.31,1.31,0,0,1-.09-0.88c-4.67,2.23-7.15,9-4.85,14,2.8,6.08,10.28,8.89,16.93,8.14,5.13-.58,10.53-3.54,11.71-8.56s-2.21-9.89-4.65-14.48-3.6-11.2.62-14.23c3.42-2.45,8.53-.69,11.12,2.62s3.32,7.68,4,11.84l2.58,16.74,9.51-2.86a34.56,34.56,0,0,0,4.32,14.4,35,35,0,0,1,5-2.46V203a13.29,13.29,0,0,0-3.65-2.22c-4.82-1.92-10.28-1.33-15.31,0L490.68,186l-8.47,4.75-5.65-28.86-14,9.94c-3.45-3.94-7.27-8.11-12.4-9.18s-11.48,2.94-10.6,8.1c-5.87-3.78-4.81-12.47-3.5-19.33s0.84-16.06-5.82-18.15c-0.43,4.52-.92,9.24-3.38,13.06s-7.54,6.37-11.66,4.46c9.32-7.63,5.28-25.6-6.41-28.51,4.13,4.51,2.18,13-3.51,15.21-11.44-1.28-20-14.31-16.56-25.31-2.22-8.35-16.67-8.74-19.35-.53-0.54,1.66-.71,3.57-2,4.8-3,2.92-8-1.48-8.13-5.66s1.92-8.34,1.05-12.43c-1.31-6.21-24.81-.5-29.33,3.95,4.44,0,5.42,7.44,1.58,9.66s-9-.21-11.39-3.94-2.87-8.33-3.59-12.71c-1.07-6.54-3.06-13.33-7.93-17.82s-13.38-5.55-17.88-.69c6.14-1.38,12.74,4.55,12,10.81a57.77,57.77,0,0,1-26.58-22.51A14.79,14.79,0,0,1,272.57,79L262.43,60.28a28,28,0,0,1-14.52,1.13,39.53,39.53,0,0,0,2.37-18.73l-10.74,9.86-8.09-7.37a24.32,24.32,0,0,0-6.11,10L216,39.87a16.68,16.68,0,0,0,8.56-13.62c-4,3.36-8.33,6.87-13.53,7.25s-11-4.13-9.75-9.19c2-8.39,18.21-6.9,19.09-15.49,0.71-7-10.11-8.82-16.2-5.28s-11.62,9.69-18.62,8.94l2.85,9.77c-3.39,3.23-9.34,1.87-12.5-1.58s-4.28-8.25-5.27-12.83c-1.61,5.77-9.82,7.75-14.74,4.32-3.81-2.66-5.55-7.44-5.39-12.15H41C34.61,2.42,28.92,6.6,26,12.73Z" transform="translate(0 0.07)"/><path class="cls-3" d="M277.69,6.95a10.71,10.71,0,0,0,13.84-3.53,9.58,9.58,0,0,1-4.87,6.86c-1.05,1.69,1.76,3.11,3.75,3.09,4.38,0,9-.5,12.93,1.37s6.68,7.2,4.09,10.73a7.55,7.55,0,0,0-9.8,1.59A15.24,15.24,0,0,1,313.72,30c2.41,2.31,4.08,5.45,7,7.11,2.49,1.44,6.41.78,7.51-1.56,0.1-.42.2-0.83,0.3-1.25a3.12,3.12,0,0,1-.3,1.25c-0.6,2.4-1.39,4.8-3.13,6.51-2,2-5.87,2.48-7.59.18a20.05,20.05,0,0,0,34.22,4.15l-7,10.42a5.35,5.35,0,0,0-1.27,3.38c0.33,3,4.74,3.11,7.58,2a43.6,43.6,0,0,0,13.82-8.61,56.83,56.83,0,0,1,6.37,20.73c1.63-4.16,3.52-8.62,7.39-10.84s10.15-.37,10.42,4.09c-3.49,5.86-.26,14.57,6.2,16.74,1.71-6.43,9.49-9.73,16-8.47s11.87,5.9,16.31,10.86,8.37,10.47,13.7,14.44c3.92,0.16,4.31-6,2.19-9.25s-5.39-7-3.81-10.55c4.12-1.05,7.44,3.24,9.68,6.86s6.19,7.62,10,5.81a46.41,46.41,0,0,1-13.14,10.85,30.68,30.68,0,0,0,5.91,4.56c7.58,4.09,18.32.18,21.5-7.82A17,17,0,0,1,473,116.8c3,1.32,6.64,2.61,9.46.89,1.3-.79,2.21-2.13,3.56-2.83,3.76-1.94,8.07,2.32,8.7,6.51s-0.73,8.5,0,12.68a8.63,8.63,0,0,0,6.16-8.73c2.64-1.64,6.15,1.45,6.13,4.56s-2.19,5.73-4.24,8.07a13.69,13.69,0,0,0,9.28,3.72V88.42c-1.6-.24-2.61-1-2.56-2.79,0.08-2.87,1.26-5.64,1.18-8.51-0.14-5-4.23-9.19-9-10.71s-9.9-.77-14.63.76l-1.32-5.54,3.92-3c-4.39-.58-9.3-1.46-11.82-5.1-2-2.94-1.86-6.83-2.87-10.26-1.57-5.34-14-1.89-19.44-2.84a14.77,14.77,0,0,1,2.64,7.45l-6.38,4.44A33.87,33.87,0,0,0,441.1,26.45L441.2,31a26,26,0,0,1-8.8,1.19l3.58-10a53.86,53.86,0,0,1-15.68-1l6.84-8.49c-1.05-3.86-6.78-3.3-10.26-1.33s-7.94,4.47-11.06,2c-2-1.64-2.23-4.61-2.27-7.22A8.55,8.55,0,0,0,409.89,0H280.69A9.2,9.2,0,0,1,277.69,6.95Z" transform="translate(0 0.07)"/><path class="cls-3" d="M328.2,35.55a3.12,3.12,0,0,0,.3-1.25C328.41,34.71,328.31,35.13,328.2,35.55Z" transform="translate(0 0.07)"/><path class="cls-3" d="M479.24,0a33.36,33.36,0,0,1,7.39,1.32c-3,1.73-4.31,5.5-4.09,9s1.69,6.68,3.13,9.82a10,10,0,0,1,19.39.27,25.17,25.17,0,0,0-3.93,7.8L512,30.94V0H479.24Z" transform="translate(0 0.07)"/><path class="cls-3" d="M474.77,0h-8.86a25.17,25.17,0,0,1-1.38,2.29A33.62,33.62,0,0,1,474.77,0Z" transform="translate(0 0.07)"/><path class="cls-4" d="M212.15,102.23c1.17-5.52,2.19-12.15-1.66-16.27a17.92,17.92,0,0,0-15.35-5.41c1.85-4.47,7.51-6.34,12.27-5.44s8.82,3.88,12.7,6.77a14,14,0,0,1,2.75,2.46c2.76,3.52,1.59,8.6.28,12.88,4.12-3.47,7-8.7,6.69-14.08s-4.34-10.6-9.67-11.38c0.87-1.36,3-1,4.41-.3a18.07,18.07,0,0,1,6.11,27.64c4.23-6.65,9.65-14,17.52-14.45,3.62-.19,7.11,1.2,10.46,2.6s6.79,2.87,10.41,2.84,7.5-2,8.61-5.41a22.61,22.61,0,0,1-3.87,9,7.25,7.25,0,0,1-2.53,2.4c-1.69.83-3.72,0.47-5.5-.14-6.2-2.14-12.15-7.19-18.48-5.47-3.66,1-6.41,4.19-7.84,7.71s-3.6,5.29-3.9,9.07c0-3.93,4.93-5.57,8.81-6.25a8.69,8.69,0,0,1,9.38,5.47,4.44,4.44,0,0,0-5,.62c-1.37,1.27-1.8,3.3-3.09,4.66-2.87,3-10.91,5.4-14.59,3.45C224.38,111.72,218.8,105.77,212.15,102.23Z" transform="translate(0 0.07)"/><path class="cls-4" d="M146.56,327.75c1-4.44-2.76-9.68-6.25-12.6A57.14,57.14,0,0,0,115,303c3.95-5.38,12.05-5.42,18.41-3.39,9.71,3.09,18.89,11.06,19.24,21.24,4.77-9.8,2.59-21.4.31-32.06a23.71,23.71,0,0,1,11.13,18.78A29.06,29.06,0,0,1,176,291.27c-2,2.6-1.6,6.19-1.55,9.44s-0.65,7.09-3.58,8.51a80.84,80.84,0,0,0,16.54-14l-1,14.14c-0.27,3.68-1.7,6-3.65,9.16s-9.66,1.59-8.3,5.2c2.67-3.24,8.32-2.43,12.44-1.64s6.87,1.28,10.45,3.46c-6.8,5.38-18.07,2.07-24.24,8.16a22.59,22.59,0,0,1,13.18,3.19,4.87,4.87,0,0,1,1.93,1.79c1.26,2.46-1.62,5-4.23,5.92a22.45,22.45,0,0,1-13.57.24C161,342,154.6,333.45,146.56,327.75Z" transform="translate(0 0.07)"/><path class="cls-4" d="M269.71,265.64c5.27-4.15,4.3-13.8-1.69-16.82,1.59-3,6.32-2.9,8.86-.61s3.44,5.82,4.22,9.15a19.78,19.78,0,0,1,23.65-2.91,23.53,23.53,0,0,0-10.65,12.81c0.39-2.94,3.93-4.63,6.84-4s5.17,2.85,7,5.18,3.48,4.89,5.87,6.65a109.33,109.33,0,0,1-14.52-1.36c2.05,2.15,4.2,5.48,2.31,7.78-3.44-2.93-7.21-6-11.72-6.28-1.52-.09-3.06.14-4.58,0C279.58,274.55,272.21,270.85,269.71,265.64Z" transform="translate(0 0.07)"/><path class="cls-4" d="M387.33,264.84c4.47-5.29,3.87-16.92-2.83-18.66,4.45,0.47,9,1.44,12.61,4.09s6,7.33,4.86,11.65c3.68-5.71-1.8-19,1.31-21.76,1.54,5.63,5.82,11.35,5.84,16.7l11.93-12c-0.84,3.38,1.11,6.78,1.48,10.24,0.6,5.57-2.86,10.67-6.16,15.19,2.52-3.16,7.36-3.59,11.11-2.1s6.67,4.5,9.47,7.41a13.25,13.25,0,0,0-7-1.53c-2.4.29-4.78,1.94-5.24,4.32-0.64,3.32,2,8-1.07,9.45C411.64,282,396.34,274.7,387.33,264.84Z" transform="translate(0 0.07)"/></svg>