<svg id="Layer_1" data-name="Layer 1" xmlns="http://www.w3.org/2000/svg" xmlns:xlink="http://www.w3.org/1999/xlink" width="512" height="512" viewBox="0 0 512 512"><defs><style>.cls-1{fill:#27c6ee;}.cls-2{fill:#30d8fe;}.cls-3{fill:#34e1ff;}.Graphic-Style{fill:url(#linear-gradient);}.cls-4{fill:#2fd7fc;}.cls-5{fill:#2dd2ff;}.cls-6{fill:#32dfff;}.cls-7{fill:#35ddff;}.cls-8{fill:#34e3fe;}.cls-9{fill:#2ed0fe;}.cls-10{fill:#32dcff;}.cls-11{fill:#3df;}.cls-12{fill:#2fd5ff;}.cls-13{fill:#34deff;}</style><linearGradient id="linear-gradient" x1="89.77" y1="259.06" x2="99.43" y2="275.79" gradientTransform="translate(250.08 -107.22) rotate(45)" gradientUnits="userSpaceOnUse"><stop offset="0" stop-color="#99f8ff"/><stop offset="0.17" stop-color="#89f6ff"/><stop offset="0.45" stop-color="#75f4ff"/><stop offset="0.73" stop-color="#68f2ff"/><stop offset="1" stop-color="#64f2ff"/></linearGradient></defs><title>water</title><rect class="cls-1" width="512" height="512"/><path class="cls-2" d="M194.45,273.68S173.24,243,154.38,228s-32.62-21.66-50.06-37.21S65.48,150.8,63.93,142.57s8.22,5.39,23,10.69c11.12,4.24,63.89,25.58,72.54,28.61s14.2,7.84,15.56,10.37-32-2.93-36.65.82C201.05,248.69,194.45,273.68,194.45,273.68Z" transform="translate(0)"/><path class="cls-3" d="M63.23,113.23c-3.39,3.33,8.68,17.42,10.08,18.92,5.23,5.6,13.39,12.48,29.7,19.45,16.09,6.87,21.19,5.74,37.83,12,6,2.27,8.62,4.18,23.29,11,3.51,1.63,12.09,5.46,12.93,3.73s-7.76-14.92-12.62-20-8-11.74-19.18-21.83c-8.57-7.72-13.83-10.79-19.71-13.35a61.79,61.79,0,0,0-23.6-5.57,89,89,0,0,1-22.8-4.07C73.21,111.72,66.62,109.9,63.23,113.23Z" transform="translate(0)"/><path class="Graphic-Style" d="M92.57,140.45c0.28-.87,6.77,2,14-1.24,3.48-1.56.7-4.59,6.19-4.42S159,162,160.28,165.73s-1.3.72-22.1-6.54C138.18,159.19,91.74,143,92.57,140.45Z" transform="translate(0)"/><path class="cls-4" d="M89.21,68.5c0,4.4,18,2.27,40.31,15.56,8.94,5.32,12.88,9.72,27.22,17.32,8.18,4.34,17.83,9.45,19.45,7.42,2.13-2.67-10.55-16.6-20.86-25.81-12.54-11.2-23.69-21.16-40-22.27C102.47,59.84,89.21,64.72,89.21,68.5Z" transform="translate(0)"/><path class="cls-5" d="M185.73,90.77c-6.2-.16,25.45,26.86,44.19,47.73,18.61,20.71,20.71,23.83,28.64,30.76a178.07,178.07,0,0,0,66.11,36.42c5.31,1.51,7.19,1.75,64,6.72,38.65,3.38,58,5,58.69,2.12,1-4-22.15-12.69-25.1-13.79-28.13-10.45-41.59-7.63-67.18-12.73-32.49-6.47-56-20-66.47-26.16-18.73-11-22.17-16.87-47.38-35.36C218.55,109.84,191.94,90.93,185.73,90.77Z" transform="translate(0)"/><path class="cls-6" d="M195.05,221.7c4.23-4.47,12.67,5.24,42.57,21.07s32.72,3.64,65.85,6c15.94,1.15,43.21,3.36,73.54,17,10,4.51,37,17.7,58.34,44.9,7.2,9.17,14.8,21.26,12.37,23.69-2,2-8.82-2.25-20.27-5.89-14.57-4.63-30.76-4.36-35.94-4.83s-43.67-.65-75.31-9.07c-20.26-5.39-39.72-12.14-62.58-25.1S190.82,226.17,195.05,221.7Z" transform="translate(0)"/><path class="Graphic-Style" d="M218.26,245.63c1.57-1.56-8.25-12.43-9.54-13.88s-8.9-9.91-10.52-8.66c-1.18.91,3.27,8.13,5.75,10.61S216.63,247.24,218.26,245.63Z" transform="translate(0)"/><path class="Graphic-Style" d="M256.92,268.26c0.65-.92,8.39,6.43,21.21,7.54,9,0.78,12.5-2.22,19.8-2.83,11.78-1,25.28,9.66,35.59,15.79s46,22.39,47.14,25.93-9.54-3.87-25.22-5.89c-13.89-1.79-16.81.78-28-.24-15.36-1.38-26.23-7.65-39.13-15.08C269.21,282.49,256.06,269.47,256.92,268.26Z" transform="translate(0)"/><path class="cls-7" d="M395,236.67c-3.16-3,15.27-3.83,29.7-2.83,9.23,0.64,16.56,1.23,24.51,5.66,9.79,5.45,17.78,15.18,16,17.91-1.59,2.48-11.12-.87-28-6.84-11.4-4-12-4.6-21.27-7.37C402.34,239.15,398.2,239.64,395,236.67Z" transform="translate(0)"/><path class="cls-8" d="M154.74,63.08c-1.41-3.06,18.17-8.43,40.92-12.29,25.09-4.25,38-6.31,55-2.83,13.51,2.77,23,7.64,32.44,12.46A181.56,181.56,0,0,1,322.32,88c6.88,6.33,6.19,6.69,15.82,15.64,5.34,5,22.43,21.29,25,23.36s22.92,17.24,25.25,18.53c13.26,7.38,29.22,17.69,30.94,18.56a244.62,244.62,0,0,1,24.28,14.53c7,4.92,9.19,6.45,12.24,13s-25.07-.65-29.08-2-17.29-4.42-22.91-6.17c-19.41-6.07-19.37-4.85-42.87-11.58-28.17-8.06-42.25-12.1-53.65-17.59A236.34,236.34,0,0,1,263.16,127c-9.51-7.59-12.24-11.58-21.27-18.33C236,104.26,223.28,95.25,202.29,85,170.25,69.34,156.15,66.14,154.74,63.08Z" transform="translate(0)"/><path class="Graphic-Style" d="M164.52,63.2c5.13-2.3,22.55-3.91,29.79-4,5.73-.06,15.47-0.09,19.36.44s18.21,2.3,18.56,3.54-4.28,7.59-5.25,13.69,20,23.47,18.88,26.81-28-18.64-38.73-22.65S159.39,65.5,164.52,63.2Z" transform="translate(0)"/><path class="Graphic-Style" d="M305.23,145.34c2-.3,9.24,3.89,23.92,3.18,7.88-.38,11.69-1.74,18.09-0.06,7.84,2.06,12.26,5.15,15.67,7.19,21,12.55,41.28,18.41,41.72,21s-24-4.08-46.64-10.64C326.79,157,300.64,146,305.23,145.34Z" transform="translate(0)"/><path class="cls-9" d="M211.54,272.85c1.47-1.26,8.07,5.24,27.22,18,7.42,5,21.6,14.42,37.12,22.27,14.47,7.32,35.27,17.84,62.58,20.15,16.9,1.43,16.37-2,38.54-1.77,35.16,0.33,65.38,12.33,65.05,16.26-0.22,2.66-14.37-2.87-31.11,4.95-15.52,7.25-17.92,13.11-29.7,23.33-16.09,14-33.41,6.19-41.54,3.36-10.05-3.5-18.87-6.57-36.42-17-20-11.84-45.8-32-47.91-33.76C227.21,304.93,206.77,276.92,211.54,272.85Z" transform="translate(0)"/><path class="cls-10" d="M388.5,398.54c0.25-1.69,4.38,0,15.38-4.07,7.24-2.65,5.3-4.24,16.62-4.24s21.57,11,22.63,14.5-15.89,4-22.1,3.71C403.8,407.69,388.07,401.43,388.5,398.54Z" transform="translate(0)"/><path class="cls-11" d="M41.48,229c3.87-1.7,8.44,6,25.63,21a225,225,0,0,0,39.07,27.4c9.39,5.08,19.28,8.52,44.37,16.44,19.58,6.18,21.44,6,29.88,9.72,6.77,3,16.46,8,34.47,21.74,19.32,14.78,47.91,41.54,43.31,45.79-1.59,1.47-13.08-8.84-33.94-19.45-9.24-4.7-29.55-13.31-58-17-23.14-3-25.07,1-46.32-3.18-13.63-2.69-26.14-5.16-39.77-14-22.61-14.6-31.56-35.79-34.47-43C38.15,256,35.25,231.75,41.48,229Z" transform="translate(0)"/><path class="Graphic-Style" d="M95.4,315.81c9.72-.88,11.28-3.14,11.67-4.95s-1.65-3-1.77-6.36a16.94,16.94,0,0,1,2.3-7.6c2.12-3.18,86.56,38.71,80.57,38.94-6.29.23-30.48-7.53-45.74-5.76C124.69,332.13,85.68,316.7,95.4,315.81Z" transform="translate(0)"/><path class="cls-12" d="M74,325.18c9.73-1.15,16.36,6.67,32.17,13.08,6,2.44,11.47,3.95,26.52,6.36,15.46,2.48,24.65,1.22,34.47.88,42-1.44,78.6,26.46,77.43,30.05-0.45,1.38-13.78-2.7-36.24-6.54-56.87-9.72-74.61-14.76-75.31-12.37-0.8,2.74,29.5,5.79,61.16,32.53,14.45,12.2,17,16.58,36.95,37.3,26.34,27.4,37.3,33.76,40.48,37.65,3.49,4.27-21.92,3.54-43.49-6.72-12.32-5.86-21.1-13.1-37.12-28.64-22-21.35-31.46-32.55-43-43.66C126.34,364.07,63.58,326.42,74,325.18Z" transform="translate(0)"/><path class="cls-13" d="M206.24,387.76c2.37-4.74,26.75.06,46.76,10.16,2.58,1.31,4.54,2.38,6.33,3.46a161.87,161.87,0,0,1,13.74,8.82c10.27,7.78,15.35,11.9,15.64,12.11a165.45,165.45,0,0,0,33.89,18.31l1.37,0.52c19,6.95,26,6.91,29.17,7.42,4.86,0.8-22,14.58-47.55,13.08-17.74-1-30.44-10.42-36.06-14.14-9.45-6.25-11.55-10.12-25.46-24C217.9,397.27,204.41,391.42,206.24,387.76Z" transform="translate(0)"/><path class="Graphic-Style" d="M272.44,437.35c2.21-2.56,5.7.95,22.72,5.75,11,3.11,16.75,5.11,23.51,5.66,7,0.56,9.29,1.61,10,2.39,1.5,1.68-7.15,4.34-17.68,4.95-13.24.76-24.12-5.28-28.11-8C277.48,444.52,271.18,438.8,272.44,437.35Z" transform="translate(0)"/></svg>